<ttFont>
    <TTGlyph name=".notdef" xMin="38" yMin="-15" xMax="722" yMax="774">
      <contour>
        <pt x="413" y="103" on="1" overlap="1"/>
        <pt x="418" y="103" on="0"/>
        <pt x="419" y="110" on="1"/>
        <pt x="419" y="112" on="0"/>
        <pt x="360" y="279" on="1"/>
        <pt x="361" y="278" on="0"/>
        <pt x="361" y="278" on="1"/>
        <pt x="360" y="278" on="0"/>
        <pt x="357" y="274" on="1"/>
        <pt x="226" y="107" on="0"/>
        <pt x="225" y="104" on="1"/>
        <pt x="225" y="103" on="0"/>
        <pt x="225" y="103" on="1"/>
      </contour>
      <contour>
        <pt x="192" y="239" on="1"/>
        <pt x="195" y="239" on="0"/>
        <pt x="197" y="241" on="1"/>
        <pt x="319" y="381" on="0"/>
        <pt x="319" y="383" on="1"/>
        <pt x="319" y="384" on="0"/>
        <pt x="258" y="521" on="1"/>
        <pt x="259" y="520" on="0"/>
        <pt x="258" y="520" on="1"/>
        <pt x="251" y="520" on="0"/>
        <pt x="250" y="515" on="1"/>
        <pt x="191" y="238" on="1"/>
        <pt x="191" y="239" on="0"/>
      </contour>
      <contour>
        <pt x="494" y="-15" on="1"/>
        <pt x="104" y="-15" on="1"/>
        <pt x="71" y="-15" on="0"/>
        <pt x="38" y="35" on="0"/>
        <pt x="44" y="63" on="1"/>
        <pt x="180" y="701" on="1"/>
        <pt x="186" y="731" on="0"/>
        <pt x="235" y="774" on="0"/>
        <pt x="265" y="774" on="1"/>
        <pt x="655" y="774" on="1"/>
        <pt x="689" y="774" on="0"/>
        <pt x="722" y="725" on="0"/>
        <pt x="716" y="695" on="1"/>
        <pt x="580" y="57" on="1"/>
        <pt x="575" y="30" on="0"/>
        <pt x="526" y="-15" on="0"/>
      </contour>
      <contour>
        <pt x="503" y="239" on="1"/>
        <pt x="509" y="239" on="0"/>
        <pt x="511" y="244" on="1"/>
        <pt x="569" y="521" on="1"/>
        <pt x="569" y="520" on="0"/>
        <pt x="569" y="520" on="1"/>
        <pt x="566" y="520" on="0"/>
        <pt x="563" y="517" on="1"/>
        <pt x="443" y="379" on="0"/>
        <pt x="442" y="377" on="1"/>
        <pt x="442" y="376" on="0"/>
        <pt x="502" y="239" on="1"/>
        <pt x="502" y="239" on="0"/>
      </contour>
      <contour>
        <pt x="398" y="483" on="1"/>
        <pt x="401" y="483" on="0"/>
        <pt x="403" y="485" on="1"/>
        <pt x="535" y="654" on="0"/>
        <pt x="535" y="656" on="1"/>
        <pt x="535" y="657" on="0"/>
        <pt x="537" y="657" on="1"/>
        <pt x="349" y="657" on="1"/>
        <pt x="343" y="657" on="0"/>
        <pt x="341" y="650" on="1"/>
        <pt x="341" y="649" on="0"/>
        <pt x="400" y="482" on="1"/>
        <pt x="399" y="483" on="0"/>
      </contour>
    </TTGlyph>
    <TTGlyph name="A" xMin="19" yMin="-20" xMax="598" yMax="770">
      <contour>
        <pt x="529" y="-20" on="1" overlap="1"/>
        <pt x="511" y="-20" on="0"/>
        <pt x="480" y="5" on="0"/>
        <pt x="478" y="24" on="1"/>
        <pt x="464" y="166" on="1"/>
        <pt x="464" y="185" on="0"/>
        <pt x="441" y="185" on="1"/>
        <pt x="246" y="185" on="1"/>
        <pt x="220" y="185" on="0"/>
        <pt x="207" y="160" on="1"/>
        <pt x="133" y="19" on="1"/>
        <pt x="123" y="2" on="0"/>
        <pt x="87" y="-20" on="0"/>
        <pt x="70" y="-20" on="1"/>
        <pt x="46" y="-20" on="0"/>
        <pt x="31" y="-1" on="1"/>
        <pt x="19" y="14" on="0"/>
        <pt x="19" y="32" on="1"/>
        <pt x="19" y="46" on="0"/>
        <pt x="27" y="60" on="1"/>
        <pt x="377" y="717" on="1"/>
        <pt x="389" y="740" on="0"/>
        <pt x="434" y="769" on="0"/>
        <pt x="458" y="770" on="1"/>
        <pt x="488" y="770" on="0"/>
        <pt x="525" y="736" on="0"/>
        <pt x="528" y="712" on="1"/>
        <pt x="598" y="48" on="1"/>
        <pt x="598" y="18" on="0"/>
        <pt x="572" y="-3" on="1"/>
        <pt x="552" y="-20" on="0"/>
      </contour>
      <contour>
        <pt x="433" y="305" on="1"/>
        <pt x="444" y="305" on="0"/>
        <pt x="446" y="315" on="1"/>
        <pt x="420" y="564" on="1"/>
        <pt x="423" y="561" on="1"/>
        <pt x="422" y="561" on="1"/>
        <pt x="420" y="561" on="0"/>
        <pt x="420" y="559" on="0"/>
        <pt x="419" y="558" on="1"/>
        <pt x="290" y="314" on="1"/>
        <pt x="287" y="305" on="1"/>
      </contour>
    </TTGlyph>
    <TTGlyph name="B" xMin="87" yMin="-14" xMax="648" yMax="766">
      <contour>
        <pt x="316" y="-14" on="1" overlap="1"/>
        <pt x="139" y="-14" on="1"/>
        <pt x="114" y="-14" on="0"/>
        <pt x="99" y="6" on="1"/>
        <pt x="87" y="20" on="0"/>
        <pt x="87" y="39" on="1"/>
        <pt x="87" y="45" on="0"/>
        <pt x="227" y="707" on="1"/>
        <pt x="233" y="731" on="0"/>
        <pt x="275" y="766" on="0"/>
        <pt x="299" y="766" on="1"/>
        <pt x="476" y="766" on="1"/>
        <pt x="565" y="766" on="0"/>
        <pt x="613" y="702" on="1"/>
        <pt x="648" y="655" on="0"/>
        <pt x="648" y="595" on="1"/>
        <pt x="648" y="573" on="0"/>
        <pt x="644" y="550" on="1"/>
        <pt x="628" y="465" on="0"/>
        <pt x="557" y="405" on="1"/>
        <pt x="556" y="401" on="1"/>
        <pt x="555" y="401" on="1"/>
        <pt x="553" y="405" on="1"/>
        <pt x="607" y="345" on="0"/>
        <pt x="607" y="275" on="1"/>
        <pt x="607" y="249" on="0"/>
        <pt x="601" y="220" on="1"/>
        <pt x="577" y="120" on="0"/>
        <pt x="412" y="-14" on="0"/>
      </contour>
      <contour>
        <pt x="411" y="461" on="1"/>
        <pt x="449" y="461" on="0"/>
        <pt x="515" y="513" on="0"/>
        <pt x="525" y="556" on="1"/>
        <pt x="528" y="569" on="0"/>
        <pt x="528" y="580" on="1"/>
        <pt x="528" y="605" on="0"/>
        <pt x="495" y="646" on="0"/>
        <pt x="457" y="646" on="1"/>
        <pt x="346" y="646" on="1"/>
        <pt x="335" y="646" on="0"/>
        <pt x="333" y="634" on="1"/>
        <pt x="297" y="465" on="0"/>
        <pt x="296" y="464" on="1"/>
        <pt x="296" y="461" on="0"/>
        <pt x="299" y="461" on="1"/>
      </contour>
      <contour>
        <pt x="336" y="106" on="1"/>
        <pt x="387" y="106" on="0"/>
        <pt x="470" y="174" on="0"/>
        <pt x="482" y="227" on="1"/>
        <pt x="485" y="242" on="0"/>
        <pt x="485" y="255" on="1"/>
        <pt x="485" y="285" on="0"/>
        <pt x="446" y="339" on="0"/>
        <pt x="393" y="341" on="1"/>
        <pt x="282" y="341" on="1"/>
        <pt x="270" y="341" on="0"/>
        <pt x="268" y="329" on="1"/>
        <pt x="221" y="113" on="0"/>
        <pt x="221" y="107" on="1"/>
        <pt x="221" y="106" on="0"/>
        <pt x="224" y="106" on="1"/>
      </contour>
    </TTGlyph>
    <TTGlyph name="C" xMin="111" yMin="-20" xMax="703" yMax="770">
      <contour>
        <pt x="368" y="-20" on="1"/>
        <pt x="230" y="-20" on="0"/>
        <pt x="169" y="90" on="1"/>
        <pt x="111" y="201" on="0"/>
        <pt x="149" y="378" on="1"/>
        <pt x="190" y="557" on="0"/>
        <pt x="289" y="663" on="1"/>
        <pt x="394" y="770" on="0"/>
        <pt x="530" y="770" on="1"/>
        <pt x="703" y="770" on="0"/>
        <pt x="686" y="690" on="1"/>
        <pt x="680" y="663" on="0"/>
        <pt x="658" y="647" on="1"/>
        <pt x="642" y="635" on="0"/>
        <pt x="624" y="635" on="1"/>
        <pt x="614" y="635" on="0"/>
        <pt x="604" y="641" on="1"/>
        <pt x="586" y="652" on="0"/>
        <pt x="515" y="652" on="1"/>
        <pt x="440" y="650" on="0"/>
        <pt x="298" y="511" on="0"/>
        <pt x="269" y="376" on="1"/>
        <pt x="239" y="235" on="0"/>
        <pt x="310" y="101" on="0"/>
        <pt x="391" y="99" on="1"/>
        <pt x="452" y="99" on="0"/>
        <pt x="487" y="116" on="1"/>
        <pt x="496" y="120" on="0"/>
        <pt x="506" y="120" on="1"/>
        <pt x="529" y="120" on="0"/>
        <pt x="541" y="107" on="1"/>
        <pt x="558" y="88" on="0"/>
        <pt x="551" y="55" on="1"/>
        <pt x="542" y="14" on="0"/>
        <pt x="498" y="1" on="1"/>
        <pt x="433" y="-20" on="0"/>
      </contour>
    </TTGlyph>
    <TTGlyph name="D" xMin="84" yMin="-15" xMax="648" yMax="765">
      <contour>
        <pt x="239" y="105" on="1"/>
        <pt x="349" y="105" on="0"/>
        <pt x="471" y="214" on="0"/>
        <pt x="498" y="343" on="1"/>
        <pt x="527" y="477" on="0"/>
        <pt x="527" y="530" on="1"/>
        <pt x="527" y="625" on="0"/>
        <pt x="439" y="639" on="1"/>
        <pt x="396" y="645" on="0"/>
        <pt x="344" y="645" on="1"/>
        <pt x="333" y="645" on="0"/>
        <pt x="330" y="633" on="1"/>
        <pt x="219" y="110" on="1"/>
        <pt x="219" y="107" on="1"/>
        <pt x="219" y="106" on="0"/>
        <pt x="219" y="105" on="0"/>
      </contour>
      <contour>
        <pt x="220" y="-15" on="1"/>
        <pt x="137" y="-15" on="1"/>
        <pt x="112" y="-15" on="0"/>
        <pt x="97" y="5" on="1"/>
        <pt x="84" y="20" on="0"/>
        <pt x="84" y="40" on="1"/>
        <pt x="84" y="46" on="0"/>
        <pt x="225" y="706" on="1"/>
        <pt x="231" y="730" on="0"/>
        <pt x="273" y="765" on="0"/>
        <pt x="296" y="765" on="1"/>
        <pt x="390" y="765" on="1"/>
        <pt x="648" y="765" on="0"/>
        <pt x="648" y="538" on="1"/>
        <pt x="648" y="480" on="0"/>
        <pt x="632" y="407" on="1"/>
        <pt x="617" y="337" on="1"/>
        <pt x="577" y="149" on="0"/>
        <pt x="382" y="-15" on="0"/>
      </contour>
    </TTGlyph>
    <TTGlyph name="E" xMin="94" yMin="-15" xMax="695" yMax="765">
      <contour>
        <pt x="484" y="-15" on="1"/>
        <pt x="147" y="-15" on="1"/>
        <pt x="122" y="-15" on="0"/>
        <pt x="107" y="5" on="1"/>
        <pt x="94" y="21" on="0"/>
        <pt x="94" y="40" on="1"/>
        <pt x="94" y="46" on="0"/>
        <pt x="235" y="707" on="1"/>
        <pt x="241" y="731" on="0"/>
        <pt x="283" y="765" on="0"/>
        <pt x="306" y="765" on="1"/>
        <pt x="644" y="765" on="1"/>
        <pt x="668" y="765" on="0"/>
        <pt x="683" y="746" on="1"/>
        <pt x="695" y="731" on="0"/>
        <pt x="695" y="712" on="1"/>
        <pt x="695" y="685" on="0"/>
        <pt x="668" y="662" on="1"/>
        <pt x="647" y="645" on="0"/>
        <pt x="624" y="645" on="1"/>
        <pt x="354" y="645" on="1"/>
        <pt x="342" y="645" on="0"/>
        <pt x="340" y="634" on="1"/>
        <pt x="305" y="472" on="0"/>
        <pt x="304" y="462" on="1"/>
        <pt x="304" y="460" on="0"/>
        <pt x="306" y="460" on="1"/>
        <pt x="550" y="460" on="1"/>
        <pt x="574" y="460" on="0"/>
        <pt x="589" y="441" on="1"/>
        <pt x="601" y="426" on="0"/>
        <pt x="601" y="407" on="1"/>
        <pt x="601" y="380" on="0"/>
        <pt x="574" y="357" on="1"/>
        <pt x="553" y="340" on="0"/>
        <pt x="531" y="340" on="1"/>
        <pt x="289" y="340" on="1"/>
        <pt x="278" y="340" on="0"/>
        <pt x="275" y="329" on="1"/>
        <pt x="229" y="110" on="0"/>
        <pt x="228" y="109" on="1"/>
        <pt x="228" y="105" on="0"/>
        <pt x="231" y="105" on="1"/>
        <pt x="503" y="105" on="1"/>
        <pt x="527" y="105" on="0"/>
        <pt x="542" y="86" on="1"/>
        <pt x="554" y="72" on="0"/>
        <pt x="554" y="54" on="1"/>
        <pt x="554" y="24" on="0"/>
        <pt x="528" y="2" on="1"/>
        <pt x="507" y="-15" on="0"/>
      </contour>
    </TTGlyph>
    <TTGlyph name="F" xMin="92" yMin="-20" xMax="695" yMax="765">
      <contour>
        <pt x="143" y="-20" on="1"/>
        <pt x="119" y="-20" on="0"/>
        <pt x="104" y="-1" on="1"/>
        <pt x="92" y="15" on="0"/>
        <pt x="92" y="33" on="1"/>
        <pt x="92" y="39" on="0"/>
        <pt x="234" y="707" on="1"/>
        <pt x="240" y="731" on="0"/>
        <pt x="282" y="765" on="0"/>
        <pt x="305" y="765" on="1"/>
        <pt x="644" y="765" on="1"/>
        <pt x="668" y="765" on="0"/>
        <pt x="683" y="746" on="1"/>
        <pt x="695" y="731" on="0"/>
        <pt x="695" y="712" on="1"/>
        <pt x="695" y="685" on="0"/>
        <pt x="668" y="662" on="1"/>
        <pt x="647" y="645" on="0"/>
        <pt x="624" y="645" on="1"/>
        <pt x="353" y="645" on="1"/>
        <pt x="341" y="645" on="0"/>
        <pt x="339" y="634" on="1"/>
        <pt x="304" y="472" on="0"/>
        <pt x="303" y="462" on="1"/>
        <pt x="303" y="460" on="0"/>
        <pt x="305" y="460" on="1"/>
        <pt x="550" y="460" on="1"/>
        <pt x="574" y="460" on="0"/>
        <pt x="589" y="441" on="1"/>
        <pt x="601" y="426" on="0"/>
        <pt x="601" y="407" on="1"/>
        <pt x="601" y="380" on="0"/>
        <pt x="574" y="357" on="1"/>
        <pt x="553" y="340" on="0"/>
        <pt x="531" y="340" on="1"/>
        <pt x="288" y="340" on="1"/>
        <pt x="277" y="340" on="0"/>
        <pt x="274" y="329" on="1"/>
        <pt x="212" y="37" on="1"/>
        <pt x="207" y="14" on="0"/>
        <pt x="166" y="-20" on="0"/>
      </contour>
    </TTGlyph>
    <TTGlyph name="G" xMin="112" yMin="-20" xMax="652" yMax="770">
      <contour>
        <pt x="312" y="-20" on="1"/>
        <pt x="227" y="-20" on="0"/>
        <pt x="134" y="83" on="0"/>
        <pt x="112" y="242" on="0"/>
        <pt x="130" y="336" on="1"/>
        <pt x="148" y="420" on="1"/>
        <pt x="193" y="620" on="0"/>
        <pt x="313" y="717" on="1"/>
        <pt x="378" y="770" on="0"/>
        <pt x="475" y="770" on="1"/>
        <pt x="642" y="770" on="0"/>
        <pt x="651" y="589" on="1"/>
        <pt x="652" y="577" on="0"/>
        <pt x="650" y="570" on="1"/>
        <pt x="645" y="545" on="0"/>
        <pt x="607" y="513" on="0"/>
        <pt x="584" y="513" on="1"/>
        <pt x="536" y="513" on="0"/>
        <pt x="533" y="559" on="1"/>
        <pt x="527" y="651" on="0"/>
        <pt x="456" y="651" on="1"/>
        <pt x="411" y="651" on="0"/>
        <pt x="334" y="591" on="0"/>
        <pt x="305" y="529" on="1"/>
        <pt x="281" y="478" on="0"/>
        <pt x="267" y="415" on="1"/>
        <pt x="249" y="330" on="1"/>
        <pt x="227" y="215" on="0"/>
        <pt x="272" y="99" on="0"/>
        <pt x="341" y="99" on="1"/>
        <pt x="386" y="99" on="0"/>
        <pt x="429" y="127" on="1"/>
        <pt x="439" y="134" on="0"/>
        <pt x="441" y="146" on="1"/>
        <pt x="470" y="280" on="1"/>
        <pt x="471" y="285" on="0"/>
        <pt x="467" y="285" on="1"/>
        <pt x="415" y="285" on="1"/>
        <pt x="393" y="285" on="0"/>
        <pt x="360" y="322" on="0"/>
        <pt x="366" y="352" on="1"/>
        <pt x="371" y="377" on="0"/>
        <pt x="411" y="405" on="0"/>
        <pt x="431" y="405" on="1"/>
        <pt x="576" y="405" on="1"/>
        <pt x="593" y="405" on="0"/>
        <pt x="610" y="380" on="0"/>
        <pt x="607" y="364" on="1"/>
        <pt x="556" y="126" on="1"/>
        <pt x="549" y="91" on="0"/>
        <pt x="522" y="67" on="1"/>
        <pt x="425" y="-20" on="0"/>
      </contour>
    </TTGlyph>
    <TTGlyph name="H" xMin="73" yMin="-20" xMax="687" yMax="770">
      <contour>
        <pt x="474" y="-20" on="1"/>
        <pt x="450" y="-20" on="0"/>
        <pt x="435" y="0" on="1"/>
        <pt x="423" y="15" on="0"/>
        <pt x="423" y="34" on="1"/>
        <pt x="424" y="44" on="1"/>
        <pt x="482" y="314" on="1"/>
        <pt x="482" y="315" on="0"/>
        <pt x="481" y="315" on="1"/>
        <pt x="481" y="316" on="1"/>
        <pt x="479" y="315" on="1"/>
        <pt x="264" y="315" on="1"/>
        <pt x="252" y="315" on="0"/>
        <pt x="250" y="304" on="1"/>
        <pt x="193" y="37" on="1"/>
        <pt x="188" y="14" on="0"/>
        <pt x="147" y="-20" on="0"/>
        <pt x="124" y="-20" on="1"/>
        <pt x="100" y="-20" on="0"/>
        <pt x="85" y="0" on="1"/>
        <pt x="73" y="15" on="0"/>
        <pt x="73" y="34" on="1"/>
        <pt x="73" y="39" on="0"/>
        <pt x="216" y="714" on="1"/>
        <pt x="222" y="737" on="0"/>
        <pt x="263" y="770" on="0"/>
        <pt x="286" y="770" on="1"/>
        <pt x="310" y="770" on="0"/>
        <pt x="325" y="751" on="1"/>
        <pt x="337" y="736" on="0"/>
        <pt x="337" y="717" on="1"/>
        <pt x="337" y="712" on="0"/>
        <pt x="279" y="441" on="1"/>
        <pt x="279" y="437" on="1"/>
        <pt x="279" y="436" on="0"/>
        <pt x="279" y="435" on="0"/>
        <pt x="281" y="435" on="1"/>
        <pt x="496" y="435" on="1"/>
        <pt x="507" y="435" on="0"/>
        <pt x="510" y="447" on="1"/>
        <pt x="566" y="714" on="1"/>
        <pt x="572" y="737" on="0"/>
        <pt x="613" y="770" on="0"/>
        <pt x="636" y="770" on="1"/>
        <pt x="660" y="770" on="0"/>
        <pt x="675" y="751" on="1"/>
        <pt x="687" y="736" on="0"/>
        <pt x="687" y="717" on="1"/>
        <pt x="687" y="712" on="0"/>
        <pt x="543" y="37" on="1"/>
        <pt x="538" y="14" on="0"/>
        <pt x="497" y="-20" on="0"/>
      </contour>
    </TTGlyph>
    <TTGlyph name="I" xMin="84" yMin="-15" xMax="676" yMax="765">
      <contour>
        <pt x="465" y="-15" on="1"/>
        <pt x="135" y="-15" on="1"/>
        <pt x="111" y="-15" on="0"/>
        <pt x="96" y="5" on="1"/>
        <pt x="84" y="20" on="0"/>
        <pt x="84" y="39" on="1"/>
        <pt x="84" y="66" on="0"/>
        <pt x="112" y="89" on="1"/>
        <pt x="132" y="105" on="0"/>
        <pt x="154" y="105" on="1"/>
        <pt x="251" y="105" on="1"/>
        <pt x="262" y="105" on="0"/>
        <pt x="265" y="117" on="1"/>
        <pt x="377" y="644" on="1"/>
        <pt x="377" y="645" on="0"/>
        <pt x="376" y="645" on="1"/>
        <pt x="376" y="646" on="1"/>
        <pt x="374" y="645" on="1"/>
        <pt x="275" y="645" on="1"/>
        <pt x="251" y="645" on="0"/>
        <pt x="236" y="665" on="1"/>
        <pt x="224" y="680" on="0"/>
        <pt x="224" y="699" on="1"/>
        <pt x="224" y="726" on="0"/>
        <pt x="252" y="749" on="1"/>
        <pt x="272" y="765" on="0"/>
        <pt x="295" y="765" on="1"/>
        <pt x="625" y="765" on="1"/>
        <pt x="649" y="765" on="0"/>
        <pt x="664" y="746" on="1"/>
        <pt x="676" y="731" on="0"/>
        <pt x="676" y="712" on="1"/>
        <pt x="676" y="685" on="0"/>
        <pt x="649" y="662" on="1"/>
        <pt x="628" y="645" on="0"/>
        <pt x="605" y="645" on="1"/>
        <pt x="509" y="645" on="1"/>
        <pt x="498" y="645" on="0"/>
        <pt x="495" y="634" on="1"/>
        <pt x="385" y="117" on="0"/>
        <pt x="384" y="107" on="1"/>
        <pt x="384" y="106" on="0"/>
        <pt x="384" y="105" on="0"/>
        <pt x="484" y="105" on="1"/>
        <pt x="508" y="105" on="0"/>
        <pt x="524" y="86" on="1"/>
        <pt x="535" y="72" on="0"/>
        <pt x="535" y="54" on="1"/>
        <pt x="535" y="24" on="0"/>
        <pt x="509" y="2" on="1"/>
        <pt x="488" y="-15" on="0"/>
      </contour>
    </TTGlyph>
    <TTGlyph name="J" xMin="86" yMin="-20" xMax="665" yMax="765">
      <contour>
        <pt x="299" y="-20" on="1"/>
        <pt x="242" y="-20" on="0"/>
        <pt x="155" y="5" on="0"/>
        <pt x="90" y="84" on="0"/>
        <pt x="86" y="137" on="1"/>
        <pt x="87" y="151" on="1"/>
        <pt x="93" y="175" on="0"/>
        <pt x="134" y="210" on="0"/>
        <pt x="157" y="210" on="1"/>
        <pt x="177" y="210" on="0"/>
        <pt x="207" y="184" on="0"/>
        <pt x="210" y="164" on="1"/>
        <pt x="211" y="143" on="0"/>
        <pt x="224" y="126" on="1"/>
        <pt x="243" y="97" on="0"/>
        <pt x="298" y="97" on="1"/>
        <pt x="326" y="97" on="0"/>
        <pt x="369" y="109" on="0"/>
        <pt x="393" y="128" on="1"/>
        <pt x="429" y="158" on="0"/>
        <pt x="437" y="198" on="1"/>
        <pt x="532" y="645" on="1"/>
        <pt x="385" y="645" on="1"/>
        <pt x="361" y="645" on="0"/>
        <pt x="346" y="665" on="1"/>
        <pt x="334" y="680" on="0"/>
        <pt x="334" y="698" on="1"/>
        <pt x="334" y="725" on="0"/>
        <pt x="362" y="748" on="1"/>
        <pt x="382" y="765" on="0"/>
        <pt x="404" y="765" on="1"/>
        <pt x="612" y="765" on="1"/>
        <pt x="637" y="765" on="0"/>
        <pt x="653" y="745" on="1"/>
        <pt x="665" y="731" on="0"/>
        <pt x="665" y="713" on="1"/>
        <pt x="665" y="707" on="0"/>
        <pt x="556" y="192" on="1"/>
        <pt x="537" y="104" on="0"/>
        <pt x="386" y="-20" on="0"/>
      </contour>
    </TTGlyph>
    <TTGlyph name="K" xMin="77" yMin="-20" xMax="681" yMax="770">
      <contour>
        <pt x="495" y="-20" on="1" overlap="1"/>
        <pt x="479" y="-20" on="0"/>
        <pt x="451" y="-1" on="0"/>
        <pt x="446" y="13" on="1"/>
        <pt x="326" y="326" on="1"/>
        <pt x="324" y="327" on="1"/>
        <pt x="322" y="327" on="1"/>
        <pt x="319" y="327" on="0"/>
        <pt x="315" y="325" on="0"/>
        <pt x="253" y="265" on="1"/>
        <pt x="243" y="255" on="0"/>
        <pt x="241" y="243" on="1"/>
        <pt x="197" y="36" on="1"/>
        <pt x="191" y="13" on="0"/>
        <pt x="151" y="-20" on="0"/>
        <pt x="128" y="-20" on="1"/>
        <pt x="104" y="-20" on="0"/>
        <pt x="89" y="-1" on="1"/>
        <pt x="77" y="13" on="0"/>
        <pt x="77" y="31" on="1"/>
        <pt x="77" y="37" on="0"/>
        <pt x="220" y="713" on="1"/>
        <pt x="226" y="736" on="0"/>
        <pt x="267" y="770" on="0"/>
        <pt x="289" y="770" on="1"/>
        <pt x="314" y="770" on="0"/>
        <pt x="329" y="751" on="1"/>
        <pt x="341" y="736" on="0"/>
        <pt x="341" y="717" on="1"/>
        <pt x="341" y="712" on="0"/>
        <pt x="289" y="469" on="1"/>
        <pt x="289" y="465" on="1"/>
        <pt x="289" y="464" on="0"/>
        <pt x="289" y="463" on="0"/>
        <pt x="292" y="463" on="1"/>
        <pt x="293" y="463" on="1"/>
        <pt x="296" y="463" on="0"/>
        <pt x="300" y="465" on="0"/>
        <pt x="581" y="749" on="1"/>
        <pt x="605" y="770" on="0"/>
        <pt x="630" y="770" on="1"/>
        <pt x="657" y="770" on="0"/>
        <pt x="670" y="750" on="1"/>
        <pt x="681" y="734" on="0"/>
        <pt x="681" y="716" on="1"/>
        <pt x="681" y="693" on="0"/>
        <pt x="661" y="671" on="1"/>
        <pt x="430" y="439" on="1"/>
        <pt x="428" y="436" on="0"/>
        <pt x="426" y="433" on="0"/>
        <pt x="426" y="431" on="1"/>
        <pt x="426" y="430" on="1"/>
        <pt x="425" y="430" on="1"/>
        <pt x="426" y="430" on="1"/>
        <pt x="426" y="428" on="1"/>
        <pt x="562" y="66" on="1"/>
        <pt x="565" y="57" on="0"/>
        <pt x="565" y="47" on="1"/>
        <pt x="565" y="19" on="0"/>
        <pt x="539" y="-3" on="1"/>
        <pt x="519" y="-20" on="0"/>
      </contour>
    </TTGlyph>
    <TTGlyph name="L" xMin="113" yMin="-15" xMax="559" yMax="770">
      <contour>
        <pt x="490" y="-15" on="1"/>
        <pt x="184" y="-15" on="1"/>
        <pt x="149" y="-15" on="0"/>
        <pt x="129" y="11" on="1"/>
        <pt x="113" y="32" on="0"/>
        <pt x="113" y="58" on="1"/>
        <pt x="113" y="67" on="0"/>
        <pt x="250" y="713" on="1"/>
        <pt x="256" y="736" on="0"/>
        <pt x="295" y="770" on="0"/>
        <pt x="320" y="770" on="1"/>
        <pt x="348" y="768" on="0"/>
        <pt x="361" y="749" on="1"/>
        <pt x="370" y="735" on="0"/>
        <pt x="370" y="719" on="1"/>
        <pt x="370" y="712" on="0"/>
        <pt x="247" y="128" on="0"/>
        <pt x="247" y="124" on="1"/>
        <pt x="247" y="105" on="0"/>
        <pt x="269" y="105" on="1"/>
        <pt x="507" y="105" on="1"/>
        <pt x="531" y="105" on="0"/>
        <pt x="547" y="87" on="1"/>
        <pt x="559" y="73" on="0"/>
        <pt x="559" y="55" on="1"/>
        <pt x="558" y="41" on="1"/>
        <pt x="553" y="18" on="0"/>
        <pt x="512" y="-15" on="0"/>
      </contour>
    </TTGlyph>
    <TTGlyph name="M" xMin="63" yMin="-20" xMax="694" yMax="770">
      <contour>
        <pt x="484" y="-20" on="1" overlap="1"/>
        <pt x="460" y="-20" on="0"/>
        <pt x="445" y="-1" on="1"/>
        <pt x="433" y="13" on="0"/>
        <pt x="433" y="31" on="1"/>
        <pt x="433" y="37" on="0"/>
        <pt x="481" y="263" on="1"/>
        <pt x="527" y="483" on="0"/>
        <pt x="528" y="482" on="1"/>
        <pt x="532" y="477" on="1"/>
        <pt x="533" y="478" on="1"/>
        <pt x="533" y="477" on="1"/>
        <pt x="437" y="323" on="1"/>
        <pt x="425" y="304" on="0"/>
        <pt x="383" y="281" on="0"/>
        <pt x="362" y="281" on="1"/>
        <pt x="341" y="281" on="0"/>
        <pt x="306" y="308" on="0"/>
        <pt x="301" y="328" on="1"/>
        <pt x="270" y="482" on="1"/>
        <pt x="276" y="477" on="1"/>
        <pt x="277" y="478" on="1"/>
        <pt x="183" y="37" on="1"/>
        <pt x="177" y="13" on="0"/>
        <pt x="136" y="-20" on="0"/>
        <pt x="114" y="-20" on="1"/>
        <pt x="90" y="-20" on="0"/>
        <pt x="75" y="-1" on="1"/>
        <pt x="63" y="13" on="0"/>
        <pt x="63" y="31" on="1"/>
        <pt x="63" y="37" on="0"/>
        <pt x="204" y="703" on="1"/>
        <pt x="211" y="730" on="0"/>
        <pt x="258" y="770" on="0"/>
        <pt x="284" y="770" on="1"/>
        <pt x="305" y="770" on="0"/>
        <pt x="337" y="745" on="0"/>
        <pt x="342" y="725" on="1"/>
        <pt x="396" y="485" on="1"/>
        <pt x="397" y="485" on="1"/>
        <pt x="403" y="485" on="0"/>
        <pt x="408" y="488" on="0"/>
        <pt x="566" y="730" on="1"/>
        <pt x="578" y="748" on="0"/>
        <pt x="616" y="770" on="0"/>
        <pt x="635" y="770" on="1"/>
        <pt x="663" y="770" on="0"/>
        <pt x="681" y="748" on="1"/>
        <pt x="694" y="731" on="0"/>
        <pt x="694" y="710" on="1"/>
        <pt x="694" y="702" on="0"/>
        <pt x="553" y="37" on="1"/>
        <pt x="547" y="13" on="0"/>
        <pt x="506" y="-20" on="0"/>
      </contour>
    </TTGlyph>
    <TTGlyph name="N" xMin="73" yMin="-20" xMax="687" yMax="770">
      <contour>
        <pt x="464" y="-20" on="1" overlap="1"/>
        <pt x="445" y="-20" on="0"/>
        <pt x="411" y="4" on="0"/>
        <pt x="406" y="23" on="1"/>
        <pt x="287" y="510" on="1"/>
        <pt x="292" y="506" on="1"/>
        <pt x="293" y="506" on="1"/>
        <pt x="193" y="37" on="1"/>
        <pt x="187" y="14" on="0"/>
        <pt x="147" y="-20" on="0"/>
        <pt x="124" y="-20" on="1"/>
        <pt x="100" y="-20" on="0"/>
        <pt x="85" y="-1" on="1"/>
        <pt x="73" y="13" on="0"/>
        <pt x="73" y="31" on="1"/>
        <pt x="73" y="37" on="0"/>
        <pt x="214" y="703" on="1"/>
        <pt x="221" y="730" on="0"/>
        <pt x="269" y="770" on="0"/>
        <pt x="295" y="770" on="1"/>
        <pt x="315" y="770" on="0"/>
        <pt x="348" y="745" on="0"/>
        <pt x="353" y="727" on="1"/>
        <pt x="473" y="239" on="1"/>
        <pt x="473" y="240" on="0"/>
        <pt x="471" y="241" on="0"/>
        <pt x="470" y="242" on="0"/>
        <pt x="467" y="244" on="1"/>
        <pt x="566" y="713" on="1"/>
        <pt x="572" y="736" on="0"/>
        <pt x="613" y="770" on="0"/>
        <pt x="635" y="770" on="1"/>
        <pt x="660" y="770" on="0"/>
        <pt x="675" y="751" on="1"/>
        <pt x="687" y="736" on="0"/>
        <pt x="687" y="717" on="1"/>
        <pt x="687" y="711" on="0"/>
        <pt x="545" y="47" on="1"/>
        <pt x="538" y="19" on="0"/>
        <pt x="490" y="-20" on="0"/>
      </contour>
    </TTGlyph>
    <TTGlyph name="O" xMin="115" yMin="-20" xMax="644" yMax="770">
      <contour>
        <pt x="299" y="-20" on="1"/>
        <pt x="223" y="-20" on="0"/>
        <pt x="183" y="16" on="1"/>
        <pt x="115" y="76" on="0"/>
        <pt x="115" y="210" on="1"/>
        <pt x="115" y="287" on="0"/>
        <pt x="135" y="378" on="1"/>
        <pt x="167" y="535" on="0"/>
        <pt x="239" y="642" on="1"/>
        <pt x="326" y="770" on="0"/>
        <pt x="460" y="770" on="1"/>
        <pt x="535" y="770" on="0"/>
        <pt x="576" y="734" on="1"/>
        <pt x="644" y="673" on="0"/>
        <pt x="644" y="539" on="1"/>
        <pt x="644" y="463" on="0"/>
        <pt x="624" y="372" on="1"/>
        <pt x="592" y="212" on="0"/>
        <pt x="520" y="108" on="1"/>
        <pt x="431" y="-20" on="0"/>
      </contour>
      <contour>
        <pt x="322" y="119" on="1"/>
        <pt x="374" y="119" on="0"/>
        <pt x="410" y="158" on="1"/>
        <pt x="474" y="228" on="0"/>
        <pt x="504" y="378" on="1"/>
        <pt x="520" y="451" on="0"/>
        <pt x="520" y="510" on="1"/>
        <pt x="520" y="560" on="0"/>
        <pt x="486" y="630" on="0"/>
        <pt x="437" y="630" on="1"/>
        <pt x="384" y="630" on="0"/>
        <pt x="349" y="594" on="1"/>
        <pt x="288" y="530" on="0"/>
        <pt x="255" y="372" on="1"/>
        <pt x="238" y="294" on="0"/>
        <pt x="238" y="236" on="1"/>
        <pt x="238" y="187" on="0"/>
        <pt x="273" y="119" on="0"/>
      </contour>
    </TTGlyph>
    <TTGlyph name="P" xMin="113" yMin="-20" xMax="677" yMax="765">
      <contour>
        <pt x="164" y="-20" on="1"/>
        <pt x="140" y="-20" on="0"/>
        <pt x="125" y="-1" on="1"/>
        <pt x="113" y="14" on="0"/>
        <pt x="113" y="33" on="1"/>
        <pt x="113" y="39" on="0"/>
        <pt x="255" y="706" on="1"/>
        <pt x="261" y="730" on="0"/>
        <pt x="303" y="765" on="0"/>
        <pt x="326" y="765" on="1"/>
        <pt x="504" y="765" on="1"/>
        <pt x="590" y="765" on="0"/>
        <pt x="642" y="701" on="1"/>
        <pt x="677" y="654" on="0"/>
        <pt x="677" y="595" on="1"/>
        <pt x="677" y="573" on="0"/>
        <pt x="672" y="549" on="1"/>
        <pt x="647" y="444" on="0"/>
        <pt x="499" y="320" on="0"/>
        <pt x="415" y="320" on="1"/>
        <pt x="305" y="320" on="1"/>
        <pt x="294" y="320" on="0"/>
        <pt x="291" y="308" on="1"/>
        <pt x="233" y="37" on="1"/>
        <pt x="228" y="14" on="0"/>
        <pt x="187" y="-20" on="0"/>
      </contour>
      <contour>
        <pt x="435" y="440" on="1"/>
        <pt x="473" y="440" on="0"/>
        <pt x="541" y="496" on="0"/>
        <pt x="553" y="555" on="1"/>
        <pt x="555" y="567" on="0"/>
        <pt x="555" y="578" on="1"/>
        <pt x="555" y="604" on="0"/>
        <pt x="522" y="645" on="0"/>
        <pt x="484" y="645" on="1"/>
        <pt x="374" y="645" on="1"/>
        <pt x="363" y="645" on="0"/>
        <pt x="360" y="633" on="1"/>
        <pt x="320" y="445" on="1"/>
        <pt x="320" y="442" on="1"/>
        <pt x="320" y="441" on="0"/>
        <pt x="320" y="440" on="0"/>
        <pt x="322" y="440" on="1"/>
      </contour>
    </TTGlyph>
    <TTGlyph name="Q" xMin="115" yMin="-215" xMax="644" yMax="770">
      <contour>
        <pt x="299" y="-20" on="1"/>
        <pt x="223" y="-20" on="0"/>
        <pt x="183" y="16" on="1"/>
        <pt x="115" y="76" on="0"/>
        <pt x="115" y="210" on="1"/>
        <pt x="115" y="287" on="0"/>
        <pt x="135" y="378" on="1"/>
        <pt x="167" y="535" on="0"/>
        <pt x="239" y="642" on="1"/>
        <pt x="326" y="770" on="0"/>
        <pt x="460" y="770" on="1"/>
        <pt x="535" y="770" on="0"/>
        <pt x="576" y="734" on="1"/>
        <pt x="644" y="673" on="0"/>
        <pt x="644" y="539" on="1"/>
        <pt x="644" y="463" on="0"/>
        <pt x="624" y="372" on="1"/>
        <pt x="592" y="212" on="0"/>
        <pt x="520" y="108" on="1"/>
        <pt x="431" y="-20" on="0"/>
      </contour>
      <contour>
        <pt x="322" y="119" on="1"/>
        <pt x="374" y="119" on="0"/>
        <pt x="410" y="158" on="1"/>
        <pt x="474" y="228" on="0"/>
        <pt x="504" y="378" on="1"/>
        <pt x="520" y="451" on="0"/>
        <pt x="520" y="510" on="1"/>
        <pt x="520" y="560" on="0"/>
        <pt x="486" y="630" on="0"/>
        <pt x="437" y="630" on="1"/>
        <pt x="384" y="630" on="0"/>
        <pt x="349" y="594" on="1"/>
        <pt x="288" y="530" on="0"/>
        <pt x="255" y="372" on="1"/>
        <pt x="238" y="294" on="0"/>
        <pt x="238" y="236" on="1"/>
        <pt x="238" y="187" on="0"/>
        <pt x="273" y="119" on="0"/>
      </contour>
      <contour>
        <pt x="475" y="-215" on="1"/>
        <pt x="466" y="-215" on="0"/>
        <pt x="456" y="-212" on="1"/>
        <pt x="264" y="-137" on="1"/>
        <pt x="248" y="-130" on="0"/>
        <pt x="239" y="-113" on="1"/>
        <pt x="233" y="-101" on="0"/>
        <pt x="233" y="-88" on="1"/>
        <pt x="233" y="-73" on="0"/>
        <pt x="252" y="-42" on="0"/>
        <pt x="286" y="-21" on="0"/>
        <pt x="303" y="-21" on="1"/>
        <pt x="313" y="-21" on="0"/>
        <pt x="323" y="-25" on="1"/>
        <pt x="514" y="-99" on="1"/>
        <pt x="532" y="-106" on="0"/>
        <pt x="540" y="-123" on="1"/>
        <pt x="546" y="-135" on="0"/>
        <pt x="546" y="-148" on="1"/>
        <pt x="545" y="-158" on="1"/>
        <pt x="535" y="-190" on="0"/>
        <pt x="510" y="-205" on="1"/>
        <pt x="492" y="-215" on="0"/>
      </contour>
    </TTGlyph>
    <TTGlyph name="R" xMin="86" yMin="-20" xMax="651" yMax="765">
      <contour>
        <pt x="506" y="-20" on="1"/>
        <pt x="490" y="-20" on="0"/>
        <pt x="463" y="-1" on="0"/>
        <pt x="458" y="13" on="1"/>
        <pt x="338" y="318" on="1"/>
        <pt x="337" y="318" on="0"/>
        <pt x="336" y="319" on="1"/>
        <pt x="335" y="320" on="1"/>
        <pt x="278" y="320" on="1"/>
        <pt x="267" y="320" on="0"/>
        <pt x="264" y="308" on="1"/>
        <pt x="206" y="37" on="1"/>
        <pt x="200" y="14" on="0"/>
        <pt x="160" y="-20" on="0"/>
        <pt x="138" y="-20" on="1"/>
        <pt x="114" y="-20" on="0"/>
        <pt x="98" y="-1" on="1"/>
        <pt x="86" y="13" on="0"/>
        <pt x="86" y="31" on="1"/>
        <pt x="86" y="37" on="0"/>
        <pt x="228" y="706" on="1"/>
        <pt x="234" y="730" on="0"/>
        <pt x="276" y="765" on="0"/>
        <pt x="299" y="765" on="1"/>
        <pt x="476" y="765" on="1"/>
        <pt x="562" y="765" on="0"/>
        <pt x="615" y="701" on="1"/>
        <pt x="651" y="656" on="0"/>
        <pt x="651" y="600" on="1"/>
        <pt x="651" y="577" on="0"/>
        <pt x="645" y="549" on="1"/>
        <pt x="627" y="470" on="0"/>
        <pt x="537" y="361" on="0"/>
        <pt x="479" y="338" on="1"/>
        <pt x="469" y="334" on="0"/>
        <pt x="469" y="324" on="1"/>
        <pt x="574" y="66" on="1"/>
        <pt x="577" y="56" on="0"/>
        <pt x="577" y="46" on="1"/>
        <pt x="577" y="21" on="0"/>
        <pt x="550" y="-2" on="1"/>
        <pt x="530" y="-20" on="0"/>
      </contour>
      <contour>
        <pt x="408" y="440" on="1"/>
        <pt x="445" y="440" on="0"/>
        <pt x="514" y="504" on="0"/>
        <pt x="526" y="555" on="1"/>
        <pt x="529" y="570" on="0"/>
        <pt x="529" y="583" on="1"/>
        <pt x="529" y="645" on="0"/>
        <pt x="458" y="645" on="1"/>
        <pt x="347" y="645" on="1"/>
        <pt x="336" y="645" on="0"/>
        <pt x="333" y="633" on="1"/>
        <pt x="293" y="447" on="0"/>
        <pt x="293" y="441" on="1"/>
        <pt x="293" y="440" on="0"/>
        <pt x="295" y="440" on="1"/>
      </contour>
    </TTGlyph>
    <TTGlyph name="S" xMin="88" yMin="-20" xMax="660" yMax="770">
      <contour>
        <pt x="304" y="-20" on="1"/>
        <pt x="223" y="-20" on="0"/>
        <pt x="103" y="68" on="0"/>
        <pt x="91" y="119" on="1"/>
        <pt x="88" y="129" on="0"/>
        <pt x="91" y="141" on="1"/>
        <pt x="96" y="166" on="0"/>
        <pt x="132" y="202" on="0"/>
        <pt x="158" y="202" on="1"/>
        <pt x="188" y="202" on="0"/>
        <pt x="205" y="170" on="1"/>
        <pt x="249" y="101" on="0"/>
        <pt x="323" y="99" on="1"/>
        <pt x="358" y="99" on="0"/>
        <pt x="394" y="115" on="1"/>
        <pt x="450" y="142" on="0"/>
        <pt x="464" y="208" on="1"/>
        <pt x="476" y="262" on="0"/>
        <pt x="415" y="294" on="1"/>
        <pt x="386" y="309" on="0"/>
        <pt x="357" y="320" on="1"/>
        <pt x="156" y="392" on="0"/>
        <pt x="191" y="554" on="1"/>
        <pt x="206" y="628" on="0"/>
        <pt x="295" y="723" on="0"/>
        <pt x="401" y="770" on="0"/>
        <pt x="461" y="770" on="1"/>
        <pt x="555" y="770" on="0"/>
        <pt x="658" y="690" on="0"/>
        <pt x="659" y="627" on="1"/>
        <pt x="660" y="619" on="0"/>
        <pt x="658" y="609" on="1"/>
        <pt x="653" y="586" on="0"/>
        <pt x="621" y="555" on="0"/>
        <pt x="596" y="555" on="1"/>
        <pt x="553" y="555" on="0"/>
        <pt x="546" y="603" on="1"/>
        <pt x="542" y="624" on="0"/>
        <pt x="486" y="656" on="0"/>
        <pt x="443" y="656" on="1"/>
        <pt x="399" y="656" on="0"/>
        <pt x="318" y="598" on="0"/>
        <pt x="307" y="549" on="1"/>
        <pt x="297" y="498" on="0"/>
        <pt x="361" y="451" on="0"/>
        <pt x="402" y="436" on="1"/>
        <pt x="467" y="412" on="0"/>
        <pt x="504" y="387" on="1"/>
        <pt x="607" y="318" on="0"/>
        <pt x="581" y="193" on="1"/>
        <pt x="564" y="115" on="0"/>
        <pt x="471" y="25" on="0"/>
        <pt x="370" y="-20" on="0"/>
      </contour>
    </TTGlyph>
    <TTGlyph name="SF010000" xMin="250" yMin="-400" xMax="620" yMax="420">
      <contour>
        <pt x="250" y="-400" on="1"/>
        <pt x="250" y="420" on="1"/>
        <pt x="620" y="420" on="1"/>
        <pt x="620" y="320" on="1"/>
        <pt x="350" y="320" on="1"/>
        <pt x="350" y="-400" on="1"/>
      </contour>
    </TTGlyph>
    <TTGlyph name="SF020000" xMin="250" yMin="320" xMax="620" yMax="1120">
      <contour>
        <pt x="250" y="320" on="1"/>
        <pt x="250" y="1120" on="1"/>
        <pt x="350" y="1120" on="1"/>
        <pt x="350" y="420" on="1"/>
        <pt x="620" y="420" on="1"/>
        <pt x="620" y="320" on="1"/>
      </contour>
    </TTGlyph>
    <TTGlyph name="SF030000" xMin="-20" yMin="-400" xMax="350" yMax="420">
      <contour>
        <pt x="250" y="-400" on="1"/>
        <pt x="250" y="320" on="1"/>
        <pt x="-20" y="320" on="1"/>
        <pt x="-20" y="420" on="1"/>
        <pt x="350" y="420" on="1"/>
        <pt x="350" y="-400" on="1"/>
      </contour>
    </TTGlyph>
    <TTGlyph name="SF040000" xMin="-20" yMin="320" xMax="350" yMax="1120">
      <contour>
        <pt x="-20" y="320" on="1"/>
        <pt x="-20" y="420" on="1"/>
        <pt x="250" y="420" on="1"/>
        <pt x="250" y="1120" on="1"/>
        <pt x="350" y="1120" on="1"/>
        <pt x="350" y="320" on="1"/>
      </contour>
    </TTGlyph>
    <TTGlyph name="SF050000" xMin="-20" yMin="-400" xMax="620" yMax="1120">
      <contour>
        <pt x="250" y="-400" on="1"/>
        <pt x="250" y="320" on="1"/>
        <pt x="-20" y="320" on="1"/>
        <pt x="-20" y="420" on="1"/>
        <pt x="250" y="420" on="1"/>
        <pt x="250" y="1120" on="1"/>
        <pt x="350" y="1120" on="1"/>
        <pt x="350" y="420" on="1"/>
        <pt x="620" y="420" on="1"/>
        <pt x="620" y="320" on="1"/>
        <pt x="350" y="320" on="1"/>
        <pt x="350" y="-400" on="1"/>
      </contour>
    </TTGlyph>
    <TTGlyph name="SF060000" xMin="-20" yMin="-400" xMax="620" yMax="420">
      <contour>
        <pt x="250" y="-400" on="1"/>
        <pt x="250" y="320" on="1"/>
        <pt x="-20" y="320" on="1"/>
        <pt x="-20" y="420" on="1"/>
        <pt x="620" y="420" on="1"/>
        <pt x="620" y="320" on="1"/>
        <pt x="350" y="320" on="1"/>
        <pt x="350" y="-400" on="1"/>
      </contour>
    </TTGlyph>
    <TTGlyph name="SF070000" xMin="-20" yMin="320" xMax="620" yMax="1120">
      <contour>
        <pt x="-20" y="320" on="1"/>
        <pt x="-20" y="420" on="1"/>
        <pt x="250" y="420" on="1"/>
        <pt x="250" y="1120" on="1"/>
        <pt x="350" y="1120" on="1"/>
        <pt x="350" y="420" on="1"/>
        <pt x="620" y="420" on="1"/>
        <pt x="620" y="320" on="1"/>
      </contour>
    </TTGlyph>
    <TTGlyph name="SF080000" xMin="250" yMin="-400" xMax="620" yMax="1120">
      <contour>
        <pt x="250" y="-400" on="1"/>
        <pt x="250" y="1120" on="1"/>
        <pt x="350" y="1120" on="1"/>
        <pt x="350" y="420" on="1"/>
        <pt x="620" y="420" on="1"/>
        <pt x="620" y="320" on="1"/>
        <pt x="350" y="320" on="1"/>
        <pt x="350" y="-400" on="1"/>
      </contour>
    </TTGlyph>
    <TTGlyph name="SF090000" xMin="-20" yMin="-400" xMax="350" yMax="1120">
      <contour>
        <pt x="250" y="-400" on="1"/>
        <pt x="250" y="320" on="1"/>
        <pt x="-20" y="320" on="1"/>
        <pt x="-20" y="420" on="1"/>
        <pt x="250" y="420" on="1"/>
        <pt x="250" y="1120" on="1"/>
        <pt x="350" y="1120" on="1"/>
        <pt x="350" y="-400" on="1"/>
      </contour>
    </TTGlyph>
    <TTGlyph name="SF100000" xMin="-20" yMin="320" xMax="620" yMax="420">
      <contour>
        <pt x="-20" y="320" on="1"/>
        <pt x="-20" y="420" on="1"/>
        <pt x="620" y="420" on="1"/>
        <pt x="620" y="320" on="1"/>
      </contour>
    </TTGlyph>
    <TTGlyph name="SF110000" xMin="250" yMin="-400" xMax="350" yMax="1120">
      <contour>
        <pt x="250" y="-400" on="1"/>
        <pt x="250" y="1120" on="1"/>
        <pt x="350" y="1120" on="1"/>
        <pt x="350" y="-400" on="1"/>
      </contour>
    </TTGlyph>
    <TTGlyph name="SF190000" xMin="-20" yMin="-400" xMax="350" yMax="1120">
      <contour>
        <pt x="250" y="-400" on="1"/>
        <pt x="250" y="220" on="1"/>
        <pt x="-20" y="220" on="1"/>
        <pt x="-20" y="320" on="1"/>
        <pt x="250" y="320" on="1"/>
        <pt x="250" y="420" on="1"/>
        <pt x="-20" y="420" on="1"/>
        <pt x="-20" y="520" on="1"/>
        <pt x="250" y="520" on="1"/>
        <pt x="250" y="1120" on="1"/>
        <pt x="350" y="1120" on="1"/>
        <pt x="350" y="-400" on="1"/>
      </contour>
    </TTGlyph>
    <TTGlyph name="SF200000" xMin="-20" yMin="-400" xMax="450" yMax="1120">
      <contour>
        <pt x="150" y="-400" on="1"/>
        <pt x="150" y="320" on="1"/>
        <pt x="-20" y="320" on="1"/>
        <pt x="-20" y="420" on="1"/>
        <pt x="150" y="420" on="1"/>
        <pt x="150" y="1120" on="1"/>
        <pt x="250" y="1120" on="1"/>
        <pt x="250" y="-400" on="1"/>
      </contour>
      <contour>
        <pt x="350" y="-400" on="1"/>
        <pt x="350" y="1120" on="1"/>
        <pt x="450" y="1120" on="1"/>
        <pt x="450" y="-400" on="1"/>
      </contour>
    </TTGlyph>
    <TTGlyph name="SF210000" xMin="-20" yMin="-400" xMax="450" yMax="420">
      <contour>
        <pt x="150" y="-400" on="1"/>
        <pt x="150" y="320" on="1"/>
        <pt x="-20" y="320" on="1"/>
        <pt x="-20" y="420" on="1"/>
        <pt x="450" y="420" on="1"/>
        <pt x="450" y="-400" on="1"/>
        <pt x="350" y="-400" on="1"/>
        <pt x="350" y="320" on="1"/>
        <pt x="250" y="320" on="1"/>
        <pt x="250" y="-400" on="1"/>
      </contour>
    </TTGlyph>
    <TTGlyph name="SF220000" xMin="-20" yMin="-400" xMax="350" yMax="520">
      <contour>
        <pt x="250" y="-400" on="1"/>
        <pt x="250" y="220" on="1"/>
        <pt x="-20" y="220" on="1"/>
        <pt x="-20" y="320" on="1"/>
        <pt x="250" y="320" on="1"/>
        <pt x="250" y="420" on="1"/>
        <pt x="-20" y="420" on="1"/>
        <pt x="-20" y="520" on="1"/>
        <pt x="350" y="520" on="1"/>
        <pt x="350" y="-400" on="1"/>
      </contour>
    </TTGlyph>
    <TTGlyph name="SF230000" xMin="-20" yMin="-400" xMax="450" yMax="1120">
      <contour>
        <pt x="350" y="-400" on="1"/>
        <pt x="350" y="1120" on="1"/>
        <pt x="450" y="1120" on="1"/>
        <pt x="450" y="-400" on="1"/>
      </contour>
      <contour>
        <pt x="-20" y="420" on="1"/>
        <pt x="-20" y="520" on="1"/>
        <pt x="150" y="520" on="1"/>
        <pt x="150" y="1120" on="1"/>
        <pt x="250" y="1120" on="1"/>
        <pt x="250" y="420" on="1"/>
      </contour>
      <contour>
        <pt x="150" y="-400" on="1"/>
        <pt x="150" y="220" on="1"/>
        <pt x="-20" y="220" on="1"/>
        <pt x="-20" y="320" on="1"/>
        <pt x="250" y="320" on="1"/>
        <pt x="250" y="-400" on="1"/>
      </contour>
    </TTGlyph>
    <TTGlyph name="SF240000" xMin="150" yMin="-400" xMax="450" yMax="1120">
      <contour>
        <pt x="350" y="-400" on="1"/>
        <pt x="350" y="1120" on="1"/>
        <pt x="450" y="1120" on="1"/>
        <pt x="450" y="-400" on="1"/>
      </contour>
      <contour>
        <pt x="150" y="-400" on="1"/>
        <pt x="150" y="1120" on="1"/>
        <pt x="250" y="1120" on="1"/>
        <pt x="250" y="-400" on="1"/>
      </contour>
    </TTGlyph>
    <TTGlyph name="SF250000" xMin="-20" yMin="-400" xMax="450" yMax="520">
      <contour>
        <pt x="350" y="-400" on="1"/>
        <pt x="350" y="420" on="1"/>
        <pt x="-20" y="420" on="1"/>
        <pt x="-20" y="520" on="1"/>
        <pt x="450" y="520" on="1"/>
        <pt x="450" y="-400" on="1"/>
      </contour>
      <contour>
        <pt x="150" y="-400" on="1"/>
        <pt x="150" y="220" on="1"/>
        <pt x="-20" y="220" on="1"/>
        <pt x="-20" y="320" on="1"/>
        <pt x="250" y="320" on="1"/>
        <pt x="250" y="-400" on="1"/>
      </contour>
    </TTGlyph>
    <TTGlyph name="SF260000" xMin="-20" yMin="220" xMax="450" yMax="1120">
      <contour>
        <pt x="-20" y="220" on="1"/>
        <pt x="-20" y="320" on="1"/>
        <pt x="350" y="320" on="1"/>
        <pt x="350" y="1120" on="1"/>
        <pt x="450" y="1120" on="1"/>
        <pt x="450" y="220" on="1"/>
      </contour>
      <contour>
        <pt x="-20" y="420" on="1"/>
        <pt x="-20" y="520" on="1"/>
        <pt x="150" y="520" on="1"/>
        <pt x="150" y="1120" on="1"/>
        <pt x="250" y="1120" on="1"/>
        <pt x="250" y="420" on="1"/>
      </contour>
    </TTGlyph>
    <TTGlyph name="SF270000" xMin="-20" yMin="320" xMax="450" yMax="1120">
      <contour>
        <pt x="-20" y="320" on="1"/>
        <pt x="-20" y="420" on="1"/>
        <pt x="150" y="420" on="1"/>
        <pt x="150" y="1120" on="1"/>
        <pt x="250" y="1120" on="1"/>
        <pt x="250" y="420" on="1"/>
        <pt x="350" y="420" on="1"/>
        <pt x="350" y="1120" on="1"/>
        <pt x="450" y="1120" on="1"/>
        <pt x="450" y="320" on="1"/>
      </contour>
    </TTGlyph>
    <TTGlyph name="SF280000" xMin="-20" yMin="220" xMax="350" yMax="1120">
      <contour>
        <pt x="-20" y="220" on="1"/>
        <pt x="-20" y="320" on="1"/>
        <pt x="250" y="320" on="1"/>
        <pt x="250" y="420" on="1"/>
        <pt x="-20" y="420" on="1"/>
        <pt x="-20" y="520" on="1"/>
        <pt x="250" y="520" on="1"/>
        <pt x="250" y="1120" on="1"/>
        <pt x="350" y="1120" on="1"/>
        <pt x="350" y="220" on="1"/>
      </contour>
    </TTGlyph>
    <TTGlyph name="SF360000" xMin="250" yMin="-400" xMax="620" yMax="1120">
      <contour>
        <pt x="250" y="-400" on="1"/>
        <pt x="250" y="1120" on="1"/>
        <pt x="350" y="1120" on="1"/>
        <pt x="350" y="520" on="1"/>
        <pt x="620" y="520" on="1"/>
        <pt x="620" y="420" on="1"/>
        <pt x="350" y="420" on="1"/>
        <pt x="350" y="320" on="1"/>
        <pt x="620" y="320" on="1"/>
        <pt x="620" y="220" on="1"/>
        <pt x="350" y="220" on="1"/>
        <pt x="350" y="-400" on="1"/>
      </contour>
    </TTGlyph>
    <TTGlyph name="SF370000" xMin="150" yMin="-400" xMax="620" yMax="1120">
      <contour>
        <pt x="350" y="-400" on="1"/>
        <pt x="350" y="1120" on="1"/>
        <pt x="450" y="1120" on="1"/>
        <pt x="450" y="420" on="1"/>
        <pt x="620" y="420" on="1"/>
        <pt x="620" y="320" on="1"/>
        <pt x="450" y="320" on="1"/>
        <pt x="450" y="-400" on="1"/>
      </contour>
      <contour>
        <pt x="150" y="-400" on="1"/>
        <pt x="150" y="1120" on="1"/>
        <pt x="250" y="1120" on="1"/>
        <pt x="250" y="-400" on="1"/>
      </contour>
    </TTGlyph>
    <TTGlyph name="SF380000" xMin="150" yMin="220" xMax="620" yMax="1120">
      <contour>
        <pt x="150" y="220" on="1"/>
        <pt x="150" y="1120" on="1"/>
        <pt x="250" y="1120" on="1"/>
        <pt x="250" y="320" on="1"/>
        <pt x="620" y="320" on="1"/>
        <pt x="620" y="220" on="1"/>
      </contour>
      <contour>
        <pt x="350" y="420" on="1"/>
        <pt x="350" y="1120" on="1"/>
        <pt x="450" y="1120" on="1"/>
        <pt x="450" y="520" on="1"/>
        <pt x="620" y="520" on="1"/>
        <pt x="620" y="420" on="1"/>
      </contour>
    </TTGlyph>
    <TTGlyph name="SF390000" xMin="150" yMin="-400" xMax="620" yMax="520">
      <contour>
        <pt x="150" y="-400" on="1"/>
        <pt x="150" y="520" on="1"/>
        <pt x="620" y="520" on="1"/>
        <pt x="620" y="420" on="1"/>
        <pt x="250" y="420" on="1"/>
        <pt x="250" y="-400" on="1"/>
      </contour>
      <contour>
        <pt x="350" y="-400" on="1"/>
        <pt x="350" y="320" on="1"/>
        <pt x="620" y="320" on="1"/>
        <pt x="620" y="220" on="1"/>
        <pt x="450" y="220" on="1"/>
        <pt x="450" y="-400" on="1"/>
      </contour>
    </TTGlyph>
    <TTGlyph name="SF400000" xMin="-20" yMin="220" xMax="620" yMax="1120">
      <contour>
        <pt x="350" y="420" on="1"/>
        <pt x="350" y="1120" on="1"/>
        <pt x="450" y="1120" on="1"/>
        <pt x="450" y="520" on="1"/>
        <pt x="620" y="520" on="1"/>
        <pt x="620" y="420" on="1"/>
      </contour>
      <contour>
        <pt x="-20" y="420" on="1"/>
        <pt x="-20" y="520" on="1"/>
        <pt x="150" y="520" on="1"/>
        <pt x="150" y="1120" on="1"/>
        <pt x="250" y="1120" on="1"/>
        <pt x="250" y="420" on="1"/>
      </contour>
      <contour>
        <pt x="-20" y="220" on="1"/>
        <pt x="-20" y="320" on="1"/>
        <pt x="620" y="320" on="1"/>
        <pt x="620" y="220" on="1"/>
      </contour>
    </TTGlyph>
    <TTGlyph name="SF410000" xMin="-20" yMin="-400" xMax="620" yMax="520">
      <contour>
        <pt x="-20" y="420" on="1"/>
        <pt x="-20" y="520" on="1"/>
        <pt x="620" y="520" on="1"/>
        <pt x="620" y="420" on="1"/>
      </contour>
      <contour>
        <pt x="350" y="-400" on="1"/>
        <pt x="350" y="320" on="1"/>
        <pt x="620" y="320" on="1"/>
        <pt x="620" y="220" on="1"/>
        <pt x="450" y="220" on="1"/>
        <pt x="450" y="-400" on="1"/>
      </contour>
      <contour>
        <pt x="150" y="-400" on="1"/>
        <pt x="150" y="220" on="1"/>
        <pt x="-20" y="220" on="1"/>
        <pt x="-20" y="320" on="1"/>
        <pt x="250" y="320" on="1"/>
        <pt x="250" y="-400" on="1"/>
      </contour>
    </TTGlyph>
    <TTGlyph name="SF420000" xMin="150" yMin="-400" xMax="620" yMax="1120">
      <contour>
        <pt x="150" y="-400" on="1"/>
        <pt x="150" y="1120" on="1"/>
        <pt x="250" y="1120" on="1"/>
        <pt x="250" y="-400" on="1"/>
      </contour>
      <contour>
        <pt x="350" y="420" on="1"/>
        <pt x="350" y="1120" on="1"/>
        <pt x="450" y="1120" on="1"/>
        <pt x="450" y="520" on="1"/>
        <pt x="620" y="520" on="1"/>
        <pt x="620" y="420" on="1"/>
      </contour>
      <contour>
        <pt x="350" y="-400" on="1"/>
        <pt x="350" y="320" on="1"/>
        <pt x="620" y="320" on="1"/>
        <pt x="620" y="220" on="1"/>
        <pt x="450" y="220" on="1"/>
        <pt x="450" y="-400" on="1"/>
      </contour>
    </TTGlyph>
    <TTGlyph name="SF430000" xMin="-20" yMin="220" xMax="620" yMax="520">
      <contour>
        <pt x="-20" y="420" on="1"/>
        <pt x="-20" y="520" on="1"/>
        <pt x="620" y="520" on="1"/>
        <pt x="620" y="420" on="1"/>
      </contour>
      <contour>
        <pt x="-20" y="220" on="1"/>
        <pt x="-20" y="320" on="1"/>
        <pt x="620" y="320" on="1"/>
        <pt x="620" y="220" on="1"/>
      </contour>
    </TTGlyph>
    <TTGlyph name="SF440000" xMin="-20" yMin="-400" xMax="620" yMax="1120">
      <contour>
        <pt x="-20" y="420" on="1"/>
        <pt x="-20" y="520" on="1"/>
        <pt x="150" y="520" on="1"/>
        <pt x="150" y="1120" on="1"/>
        <pt x="250" y="1120" on="1"/>
        <pt x="250" y="420" on="1"/>
      </contour>
      <contour>
        <pt x="350" y="420" on="1"/>
        <pt x="350" y="1120" on="1"/>
        <pt x="450" y="1120" on="1"/>
        <pt x="450" y="520" on="1"/>
        <pt x="620" y="520" on="1"/>
        <pt x="620" y="420" on="1"/>
      </contour>
      <contour>
        <pt x="350" y="-400" on="1"/>
        <pt x="350" y="320" on="1"/>
        <pt x="620" y="320" on="1"/>
        <pt x="620" y="220" on="1"/>
        <pt x="450" y="220" on="1"/>
        <pt x="450" y="-400" on="1"/>
      </contour>
      <contour>
        <pt x="150" y="-400" on="1"/>
        <pt x="150" y="220" on="1"/>
        <pt x="-20" y="220" on="1"/>
        <pt x="-20" y="320" on="1"/>
        <pt x="250" y="320" on="1"/>
        <pt x="250" y="-400" on="1"/>
      </contour>
    </TTGlyph>
    <TTGlyph name="SF450000" xMin="-20" yMin="220" xMax="620" yMax="1120">
      <contour>
        <pt x="-20" y="420" on="1"/>
        <pt x="-20" y="520" on="1"/>
        <pt x="250" y="520" on="1"/>
        <pt x="250" y="1120" on="1"/>
        <pt x="350" y="1120" on="1"/>
        <pt x="350" y="520" on="1"/>
        <pt x="620" y="520" on="1"/>
        <pt x="620" y="420" on="1"/>
      </contour>
      <contour>
        <pt x="-20" y="220" on="1"/>
        <pt x="-20" y="320" on="1"/>
        <pt x="620" y="320" on="1"/>
        <pt x="620" y="220" on="1"/>
      </contour>
    </TTGlyph>
    <TTGlyph name="SF460000" xMin="-20" yMin="320" xMax="620" yMax="1120">
      <contour>
        <pt x="-20" y="320" on="1"/>
        <pt x="-20" y="420" on="1"/>
        <pt x="150" y="420" on="1"/>
        <pt x="150" y="1120" on="1"/>
        <pt x="250" y="1120" on="1"/>
        <pt x="250" y="420" on="1"/>
        <pt x="350" y="420" on="1"/>
        <pt x="350" y="1120" on="1"/>
        <pt x="450" y="1120" on="1"/>
        <pt x="450" y="420" on="1"/>
        <pt x="620" y="420" on="1"/>
        <pt x="620" y="320" on="1"/>
      </contour>
    </TTGlyph>
    <TTGlyph name="SF470000" xMin="-20" yMin="-400" xMax="620" yMax="520">
      <contour>
        <pt x="-20" y="420" on="1"/>
        <pt x="-20" y="520" on="1"/>
        <pt x="620" y="520" on="1"/>
        <pt x="620" y="420" on="1"/>
      </contour>
      <contour>
        <pt x="250" y="-400" on="1"/>
        <pt x="250" y="220" on="1"/>
        <pt x="-20" y="220" on="1"/>
        <pt x="-20" y="320" on="1"/>
        <pt x="620" y="320" on="1"/>
        <pt x="620" y="220" on="1"/>
        <pt x="350" y="220" on="1"/>
        <pt x="350" y="-400" on="1"/>
      </contour>
    </TTGlyph>
    <TTGlyph name="SF480000" xMin="-20" yMin="-400" xMax="620" yMax="420">
      <contour>
        <pt x="150" y="-400" on="1"/>
        <pt x="150" y="320" on="1"/>
        <pt x="-20" y="320" on="1"/>
        <pt x="-20" y="420" on="1"/>
        <pt x="620" y="420" on="1"/>
        <pt x="620" y="320" on="1"/>
        <pt x="450" y="320" on="1"/>
        <pt x="450" y="-400" on="1"/>
        <pt x="350" y="-400" on="1"/>
        <pt x="350" y="320" on="1"/>
        <pt x="250" y="320" on="1"/>
        <pt x="250" y="-400" on="1"/>
      </contour>
    </TTGlyph>
    <TTGlyph name="SF490000" xMin="150" yMin="320" xMax="620" yMax="1120">
      <contour>
        <pt x="150" y="320" on="1"/>
        <pt x="150" y="1120" on="1"/>
        <pt x="250" y="1120" on="1"/>
        <pt x="250" y="420" on="1"/>
        <pt x="350" y="420" on="1"/>
        <pt x="350" y="1120" on="1"/>
        <pt x="450" y="1120" on="1"/>
        <pt x="450" y="420" on="1"/>
        <pt x="620" y="420" on="1"/>
        <pt x="620" y="320" on="1"/>
      </contour>
    </TTGlyph>
    <TTGlyph name="SF500000" xMin="250" yMin="220" xMax="620" yMax="1120">
      <contour>
        <pt x="250" y="220" on="1"/>
        <pt x="250" y="1120" on="1"/>
        <pt x="350" y="1120" on="1"/>
        <pt x="350" y="520" on="1"/>
        <pt x="620" y="520" on="1"/>
        <pt x="620" y="420" on="1"/>
        <pt x="350" y="420" on="1"/>
        <pt x="350" y="320" on="1"/>
        <pt x="620" y="320" on="1"/>
        <pt x="620" y="220" on="1"/>
      </contour>
    </TTGlyph>
    <TTGlyph name="SF510000" xMin="250" yMin="-400" xMax="620" yMax="520">
      <contour>
        <pt x="250" y="-400" on="1"/>
        <pt x="250" y="520" on="1"/>
        <pt x="620" y="520" on="1"/>
        <pt x="620" y="420" on="1"/>
        <pt x="350" y="420" on="1"/>
        <pt x="350" y="320" on="1"/>
        <pt x="620" y="320" on="1"/>
        <pt x="620" y="220" on="1"/>
        <pt x="350" y="220" on="1"/>
        <pt x="350" y="-400" on="1"/>
      </contour>
    </TTGlyph>
    <TTGlyph name="SF520000" xMin="150" yMin="-400" xMax="620" yMax="420">
      <contour>
        <pt x="150" y="-400" on="1"/>
        <pt x="150" y="420" on="1"/>
        <pt x="620" y="420" on="1"/>
        <pt x="620" y="320" on="1"/>
        <pt x="450" y="320" on="1"/>
        <pt x="450" y="-400" on="1"/>
        <pt x="350" y="-400" on="1"/>
        <pt x="350" y="320" on="1"/>
        <pt x="250" y="320" on="1"/>
        <pt x="250" y="-400" on="1"/>
      </contour>
    </TTGlyph>
    <TTGlyph name="SF530000" xMin="-20" yMin="-400" xMax="620" yMax="1120">
      <contour>
        <pt x="150" y="-400" on="1"/>
        <pt x="150" y="320" on="1"/>
        <pt x="-20" y="320" on="1"/>
        <pt x="-20" y="420" on="1"/>
        <pt x="150" y="420" on="1"/>
        <pt x="150" y="1120" on="1"/>
        <pt x="250" y="1120" on="1"/>
        <pt x="250" y="420" on="1"/>
        <pt x="350" y="420" on="1"/>
        <pt x="350" y="1120" on="1"/>
        <pt x="450" y="1120" on="1"/>
        <pt x="450" y="420" on="1"/>
        <pt x="620" y="420" on="1"/>
        <pt x="620" y="320" on="1"/>
        <pt x="450" y="320" on="1"/>
        <pt x="450" y="-400" on="1"/>
        <pt x="350" y="-400" on="1"/>
        <pt x="350" y="320" on="1"/>
        <pt x="250" y="320" on="1"/>
        <pt x="250" y="-400" on="1"/>
      </contour>
    </TTGlyph>
    <TTGlyph name="SF540000" xMin="-20" yMin="-400" xMax="620" yMax="1120">
      <contour>
        <pt x="250" y="-400" on="1"/>
        <pt x="250" y="220" on="1"/>
        <pt x="-20" y="220" on="1"/>
        <pt x="-20" y="320" on="1"/>
        <pt x="250" y="320" on="1"/>
        <pt x="250" y="420" on="1"/>
        <pt x="-20" y="420" on="1"/>
        <pt x="-20" y="520" on="1"/>
        <pt x="250" y="520" on="1"/>
        <pt x="250" y="1120" on="1"/>
        <pt x="350" y="1120" on="1"/>
        <pt x="350" y="520" on="1"/>
        <pt x="620" y="520" on="1"/>
        <pt x="620" y="420" on="1"/>
        <pt x="350" y="420" on="1"/>
        <pt x="350" y="320" on="1"/>
        <pt x="620" y="320" on="1"/>
        <pt x="620" y="220" on="1"/>
        <pt x="350" y="220" on="1"/>
        <pt x="350" y="-400" on="1"/>
      </contour>
    </TTGlyph>
    <TTGlyph name="T" xMin="194" yMin="-20" xMax="706" yMax="765">
      <contour>
        <pt x="299" y="-20" on="1"/>
        <pt x="275" y="-20" on="0"/>
        <pt x="260" y="-1" on="1"/>
        <pt x="248" y="14" on="0"/>
        <pt x="248" y="33" on="1"/>
        <pt x="249" y="43" on="1"/>
        <pt x="377" y="645" on="1"/>
        <pt x="245" y="645" on="1"/>
        <pt x="221" y="645" on="0"/>
        <pt x="206" y="664" on="1"/>
        <pt x="194" y="679" on="0"/>
        <pt x="194" y="698" on="1"/>
        <pt x="194" y="725" on="0"/>
        <pt x="222" y="748" on="1"/>
        <pt x="242" y="765" on="0"/>
        <pt x="265" y="765" on="1"/>
        <pt x="655" y="765" on="1"/>
        <pt x="679" y="765" on="0"/>
        <pt x="694" y="746" on="1"/>
        <pt x="706" y="731" on="0"/>
        <pt x="706" y="712" on="1"/>
        <pt x="706" y="685" on="0"/>
        <pt x="679" y="662" on="1"/>
        <pt x="658" y="645" on="0"/>
        <pt x="635" y="645" on="1"/>
        <pt x="509" y="645" on="1"/>
        <pt x="498" y="645" on="0"/>
        <pt x="495" y="633" on="1"/>
        <pt x="368" y="37" on="1"/>
        <pt x="363" y="14" on="0"/>
        <pt x="322" y="-20" on="0"/>
      </contour>
    </TTGlyph>
    <TTGlyph name="U" xMin="105" yMin="-20" xMax="685" yMax="770">
      <contour>
        <pt x="297" y="-20" on="1"/>
        <pt x="201" y="-20" on="0"/>
        <pt x="146" y="48" on="1"/>
        <pt x="105" y="100" on="0"/>
        <pt x="105" y="170" on="1"/>
        <pt x="105" y="193" on="0"/>
        <pt x="109" y="218" on="1"/>
        <pt x="214" y="713" on="1"/>
        <pt x="220" y="736" on="0"/>
        <pt x="261" y="770" on="0"/>
        <pt x="284" y="770" on="1"/>
        <pt x="308" y="770" on="0"/>
        <pt x="323" y="751" on="1"/>
        <pt x="335" y="736" on="0"/>
        <pt x="335" y="717" on="1"/>
        <pt x="335" y="711" on="0"/>
        <pt x="229" y="212" on="1"/>
        <pt x="226" y="197" on="0"/>
        <pt x="226" y="184" on="1"/>
        <pt x="226" y="153" on="0"/>
        <pt x="267" y="100" on="0"/>
        <pt x="316" y="100" on="1"/>
        <pt x="367" y="100" on="0"/>
        <pt x="447" y="166" on="0"/>
        <pt x="459" y="218" on="1"/>
        <pt x="564" y="713" on="1"/>
        <pt x="570" y="736" on="0"/>
        <pt x="611" y="770" on="0"/>
        <pt x="634" y="770" on="1"/>
        <pt x="658" y="770" on="0"/>
        <pt x="673" y="751" on="1"/>
        <pt x="685" y="736" on="0"/>
        <pt x="685" y="717" on="1"/>
        <pt x="685" y="711" on="0"/>
        <pt x="579" y="212" on="1"/>
        <pt x="555" y="112" on="0"/>
        <pt x="392" y="-20" on="0"/>
      </contour>
    </TTGlyph>
    <TTGlyph name="V" xMin="198" yMin="-20" xMax="703" yMax="770">
      <contour>
        <pt x="302" y="-20" on="1" overlap="1"/>
        <pt x="276" y="-20" on="0"/>
        <pt x="237" y="11" on="0"/>
        <pt x="235" y="39" on="1"/>
        <pt x="198" y="697" on="1"/>
        <pt x="198" y="701" on="0"/>
        <pt x="209" y="756" on="1"/>
        <pt x="210" y="766" on="0"/>
        <pt x="211" y="768" on="1"/>
        <pt x="200" y="717" on="1"/>
        <pt x="205" y="738" on="0"/>
        <pt x="247" y="770" on="0"/>
        <pt x="269" y="770" on="1"/>
        <pt x="289" y="770" on="0"/>
        <pt x="319" y="742" on="0"/>
        <pt x="320" y="722" on="1"/>
        <pt x="348" y="211" on="1"/>
        <pt x="343" y="216" on="1"/>
        <pt x="588" y="727" on="1"/>
        <pt x="597" y="746" on="0"/>
        <pt x="633" y="770" on="0"/>
        <pt x="652" y="770" on="1"/>
        <pt x="678" y="770" on="0"/>
        <pt x="692" y="750" on="1"/>
        <pt x="703" y="735" on="0"/>
        <pt x="703" y="718" on="1"/>
        <pt x="703" y="706" on="0"/>
        <pt x="698" y="692" on="1"/>
        <pt x="382" y="33" on="1"/>
        <pt x="371" y="11" on="0"/>
        <pt x="326" y="-20" on="0"/>
      </contour>
    </TTGlyph>
    <TTGlyph name="W" xMin="82" yMin="-20" xMax="714" yMax="770">
      <contour>
        <pt x="457" y="-20" on="1" overlap="1"/>
        <pt x="436" y="-20" on="0"/>
        <pt x="402" y="9" on="0"/>
        <pt x="399" y="30" on="1"/>
        <pt x="369" y="337" on="1"/>
        <pt x="369" y="336" on="0"/>
        <pt x="373" y="333" on="0"/>
        <pt x="374" y="333" on="0"/>
        <pt x="375" y="332" on="1"/>
        <pt x="374" y="332" on="1"/>
        <pt x="375" y="333" on="1"/>
        <pt x="213" y="24" on="1"/>
        <pt x="201" y="4" on="0"/>
        <pt x="161" y="-20" on="0"/>
        <pt x="141" y="-20" on="1"/>
        <pt x="114" y="-20" on="0"/>
        <pt x="82" y="17" on="0"/>
        <pt x="82" y="39" on="1"/>
        <pt x="82" y="44" on="0"/>
        <pt x="190" y="715" on="1"/>
        <pt x="195" y="738" on="0"/>
        <pt x="236" y="770" on="0"/>
        <pt x="258" y="770" on="1"/>
        <pt x="282" y="770" on="0"/>
        <pt x="297" y="752" on="1"/>
        <pt x="309" y="736" on="0"/>
        <pt x="309" y="718" on="1"/>
        <pt x="233" y="250" on="1"/>
        <pt x="233" y="252" on="0"/>
        <pt x="230" y="254" on="0"/>
        <pt x="226" y="257" on="1"/>
        <pt x="227" y="257" on="1"/>
        <pt x="226" y="257" on="1"/>
        <pt x="340" y="483" on="1"/>
        <pt x="350" y="501" on="0"/>
        <pt x="390" y="525" on="0"/>
        <pt x="409" y="525" on="1"/>
        <pt x="430" y="525" on="0"/>
        <pt x="463" y="497" on="0"/>
        <pt x="465" y="476" on="1"/>
        <pt x="481" y="254" on="1"/>
        <pt x="481" y="255" on="0"/>
        <pt x="480" y="256" on="0"/>
        <pt x="476" y="259" on="1"/>
        <pt x="594" y="716" on="1"/>
        <pt x="600" y="738" on="0"/>
        <pt x="641" y="770" on="0"/>
        <pt x="662" y="770" on="1"/>
        <pt x="686" y="770" on="0"/>
        <pt x="702" y="751" on="1"/>
        <pt x="714" y="736" on="0"/>
        <pt x="714" y="718" on="1"/>
        <pt x="714" y="711" on="0"/>
        <pt x="536" y="42" on="1"/>
        <pt x="529" y="16" on="0"/>
        <pt x="483" y="-20" on="0"/>
      </contour>
    </TTGlyph>
    <TTGlyph name="X" xMin="63" yMin="-20" xMax="685" yMax="771">
      <contour>
        <pt x="485" y="-20" on="1" overlap="1"/>
        <pt x="469" y="-20" on="0"/>
        <pt x="441" y="-1" on="0"/>
        <pt x="436" y="13" on="1"/>
        <pt x="355" y="269" on="1"/>
        <pt x="355" y="267" on="0"/>
        <pt x="359" y="265" on="0"/>
        <pt x="360" y="264" on="1"/>
        <pt x="361" y="264" on="1"/>
        <pt x="171" y="9" on="1"/>
        <pt x="161" y="-4" on="0"/>
        <pt x="130" y="-20" on="0"/>
        <pt x="115" y="-20" on="1"/>
        <pt x="89" y="-20" on="0"/>
        <pt x="74" y="-1" on="1"/>
        <pt x="63" y="13" on="0"/>
        <pt x="63" y="30" on="1"/>
        <pt x="63" y="51" on="0"/>
        <pt x="77" y="70" on="1"/>
        <pt x="311" y="384" on="1"/>
        <pt x="313" y="388" on="0"/>
        <pt x="313" y="390" on="1"/>
        <pt x="314" y="390" on="1"/>
        <pt x="314" y="392" on="1"/>
        <pt x="313" y="393" on="1"/>
        <pt x="220" y="684" on="1"/>
        <pt x="218" y="693" on="0"/>
        <pt x="218" y="701" on="1"/>
        <pt x="218" y="731" on="0"/>
        <pt x="244" y="754" on="1"/>
        <pt x="264" y="771" on="0"/>
        <pt x="288" y="771" on="1"/>
        <pt x="304" y="771" on="0"/>
        <pt x="332" y="753" on="0"/>
        <pt x="338" y="737" on="1"/>
        <pt x="412" y="504" on="1"/>
        <pt x="406" y="508" on="1"/>
        <pt x="405" y="508" on="1"/>
        <pt x="405" y="509" on="1"/>
        <pt x="578" y="741" on="1"/>
        <pt x="588" y="754" on="0"/>
        <pt x="619" y="771" on="0"/>
        <pt x="635" y="771" on="1"/>
        <pt x="660" y="771" on="0"/>
        <pt x="674" y="751" on="1"/>
        <pt x="685" y="735" on="0"/>
        <pt x="685" y="718" on="1"/>
        <pt x="685" y="698" on="0"/>
        <pt x="671" y="680" on="1"/>
        <pt x="455" y="389" on="1"/>
        <pt x="452" y="386" on="0"/>
        <pt x="452" y="383" on="1"/>
        <pt x="452" y="380" on="1"/>
        <pt x="552" y="66" on="1"/>
        <pt x="555" y="56" on="0"/>
        <pt x="555" y="46" on="1"/>
        <pt x="555" y="20" on="0"/>
        <pt x="529" y="-3" on="1"/>
        <pt x="509" y="-20" on="0"/>
      </contour>
    </TTGlyph>
    <TTGlyph name="Y" xMin="215" yMin="-20" xMax="687" yMax="770">
      <contour>
        <pt x="300" y="-20" on="1"/>
        <pt x="276" y="-20" on="0"/>
        <pt x="261" y="-1" on="1"/>
        <pt x="249" y="13" on="0"/>
        <pt x="249" y="31" on="1"/>
        <pt x="249" y="37" on="0"/>
        <pt x="322" y="381" on="0"/>
        <pt x="322" y="385" on="1"/>
        <pt x="218" y="683" on="1"/>
        <pt x="215" y="692" on="0"/>
        <pt x="215" y="702" on="1"/>
        <pt x="215" y="731" on="0"/>
        <pt x="241" y="753" on="1"/>
        <pt x="261" y="770" on="0"/>
        <pt x="284" y="770" on="1"/>
        <pt x="300" y="770" on="0"/>
        <pt x="328" y="753" on="0"/>
        <pt x="334" y="738" on="1"/>
        <pt x="406" y="528" on="1"/>
        <pt x="407" y="527" on="1"/>
        <pt x="410" y="527" on="1"/>
        <pt x="413" y="527" on="0"/>
        <pt x="418" y="529" on="0"/>
        <pt x="581" y="742" on="1"/>
        <pt x="591" y="755" on="0"/>
        <pt x="622" y="770" on="0"/>
        <pt x="636" y="770" on="1"/>
        <pt x="662" y="770" on="0"/>
        <pt x="676" y="750" on="1"/>
        <pt x="687" y="735" on="0"/>
        <pt x="687" y="717" on="1"/>
        <pt x="687" y="698" on="0"/>
        <pt x="672" y="679" on="1"/>
        <pt x="448" y="389" on="1"/>
        <pt x="442" y="381" on="0"/>
        <pt x="441" y="373" on="1"/>
        <pt x="369" y="37" on="1"/>
        <pt x="363" y="14" on="0"/>
        <pt x="323" y="-20" on="0"/>
      </contour>
    </TTGlyph>
    <TTGlyph name="Z" xMin="79" yMin="-15" xMax="681" yMax="765">
      <contour>
        <pt x="475" y="-15" on="1"/>
        <pt x="151" y="-15" on="1"/>
        <pt x="116" y="-15" on="0"/>
        <pt x="95" y="12" on="1"/>
        <pt x="79" y="32" on="0"/>
        <pt x="79" y="58" on="1"/>
        <pt x="79" y="88" on="0"/>
        <pt x="101" y="116" on="1"/>
        <pt x="516" y="634" on="1"/>
        <pt x="517" y="636" on="0"/>
        <pt x="519" y="638" on="0"/>
        <pt x="520" y="644" on="0"/>
        <pt x="520" y="645" on="1"/>
        <pt x="265" y="645" on="1"/>
        <pt x="242" y="645" on="0"/>
        <pt x="226" y="664" on="1"/>
        <pt x="214" y="679" on="0"/>
        <pt x="214" y="698" on="1"/>
        <pt x="214" y="727" on="0"/>
        <pt x="242" y="749" on="1"/>
        <pt x="263" y="765" on="0"/>
        <pt x="284" y="765" on="1"/>
        <pt x="609" y="765" on="1"/>
        <pt x="644" y="765" on="0"/>
        <pt x="665" y="739" on="1"/>
        <pt x="681" y="719" on="0"/>
        <pt x="681" y="694" on="1"/>
        <pt x="681" y="663" on="0"/>
        <pt x="660" y="635" on="1"/>
        <pt x="245" y="117" on="1"/>
        <pt x="242" y="114" on="0"/>
        <pt x="241" y="110" on="0"/>
        <pt x="241" y="106" on="1"/>
        <pt x="241" y="105" on="0"/>
        <pt x="494" y="105" on="1"/>
        <pt x="518" y="105" on="0"/>
        <pt x="533" y="86" on="1"/>
        <pt x="545" y="72" on="0"/>
        <pt x="545" y="54" on="1"/>
        <pt x="545" y="24" on="0"/>
        <pt x="519" y="2" on="1"/>
        <pt x="498" y="-15" on="0"/>
      </contour>
    </TTGlyph>
    <TTGlyph name="a" xMin="74" yMin="-20" xMax="625" yMax="570">
      <contour>
        <pt x="243" y="105" on="1"/>
        <pt x="311" y="106" on="0"/>
        <pt x="372" y="170" on="1"/>
        <pt x="427" y="231" on="0"/>
        <pt x="449" y="338" on="1"/>
        <pt x="452" y="352" on="0"/>
        <pt x="452" y="365" on="1"/>
        <pt x="452" y="384" on="0"/>
        <pt x="447" y="400" on="1"/>
        <pt x="434" y="439" on="0"/>
        <pt x="400" y="439" on="1"/>
        <pt x="369" y="439" on="0"/>
        <pt x="292" y="384" on="0"/>
        <pt x="220" y="282" on="0"/>
        <pt x="204" y="214" on="1"/>
        <pt x="198" y="185" on="0"/>
        <pt x="198" y="162" on="1"/>
        <pt x="198" y="105" on="0"/>
      </contour>
      <contour>
        <pt x="498" y="-20" on="1"/>
        <pt x="422" y="-20" on="0"/>
        <pt x="418" y="70" on="1"/>
        <pt x="418" y="81" on="0"/>
        <pt x="423" y="81" on="1"/>
        <pt x="424" y="81" on="0"/>
        <pt x="422" y="79" on="1"/>
        <pt x="397" y="45" on="0"/>
        <pt x="277" y="-20" on="0"/>
        <pt x="218" y="-20" on="1"/>
        <pt x="137" y="-20" on="0"/>
        <pt x="97" y="42" on="1"/>
        <pt x="74" y="79" on="0"/>
        <pt x="74" y="135" on="1"/>
        <pt x="74" y="172" on="0"/>
        <pt x="83" y="215" on="1"/>
        <pt x="104" y="310" on="0"/>
        <pt x="212" y="468" on="0"/>
        <pt x="350" y="570" on="0"/>
        <pt x="421" y="570" on="1"/>
        <pt x="475" y="569" on="0"/>
        <pt x="505" y="522" on="1"/>
        <pt x="504" y="523" on="0"/>
        <pt x="503" y="523" on="1"/>
        <pt x="502" y="523" on="0"/>
        <pt x="503" y="525" on="1"/>
        <pt x="518" y="570" on="0"/>
        <pt x="567" y="570" on="1"/>
        <pt x="589" y="570" on="0"/>
        <pt x="608" y="551" on="1"/>
        <pt x="619" y="537" on="0"/>
        <pt x="619" y="522" on="1"/>
        <pt x="618" y="512" on="1"/>
        <pt x="578" y="396" on="0"/>
        <pt x="543" y="228" on="1"/>
        <pt x="528" y="159" on="0"/>
        <pt x="528" y="115" on="1"/>
        <pt x="528" y="99" on="0"/>
        <pt x="530" y="90" on="1"/>
        <pt x="534" y="66" on="0"/>
        <pt x="538" y="66" on="1"/>
        <pt x="545" y="66" on="0"/>
        <pt x="565" y="79" on="1"/>
        <pt x="580" y="88" on="0"/>
        <pt x="591" y="88" on="1"/>
        <pt x="605" y="88" on="0"/>
        <pt x="625" y="65" on="0"/>
        <pt x="625" y="52" on="1"/>
        <pt x="625" y="28" on="0"/>
        <pt x="565" y="-4" on="1"/>
        <pt x="536" y="-20" on="0"/>
      </contour>
    </TTGlyph>
    <TTGlyph name="ampersand" xMin="71" yMin="-20" xMax="633" yMax="770">
      <contour>
        <pt x="391" y="210" on="1"/>
        <pt x="258" y="401" on="1"/>
        <pt x="186" y="495" on="0"/>
        <pt x="205" y="585" on="1"/>
        <pt x="223" y="667" on="0"/>
        <pt x="356" y="770" on="0"/>
        <pt x="432" y="770" on="1"/>
        <pt x="488" y="770" on="0"/>
        <pt x="575" y="708" on="0"/>
        <pt x="586" y="648" on="1"/>
        <pt x="589" y="632" on="0"/>
        <pt x="587" y="623" on="1"/>
        <pt x="582" y="600" on="0"/>
        <pt x="543" y="566" on="0"/>
        <pt x="520" y="566" on="1"/>
        <pt x="475" y="566" on="0"/>
        <pt x="460" y="627" on="0"/>
        <pt x="431" y="646" on="0"/>
        <pt x="410" y="646" on="1"/>
        <pt x="379" y="646" on="0"/>
        <pt x="335" y="607" on="0"/>
        <pt x="329" y="580" on="1"/>
        <pt x="320" y="534" on="0"/>
        <pt x="365" y="473" on="1"/>
        <pt x="481" y="312" on="1"/>
        <pt x="445" y="251" on="0"/>
      </contour>
      <contour>
        <pt x="254" y="-20" on="1"/>
        <pt x="154" y="-20" on="0"/>
        <pt x="71" y="110" on="0"/>
        <pt x="91" y="203" on="1"/>
        <pt x="114" y="314" on="0"/>
        <pt x="193" y="402" on="1"/>
        <pt x="225" y="354" on="0"/>
        <pt x="261" y="315" on="1"/>
        <pt x="225" y="257" on="0"/>
        <pt x="212" y="197" on="1"/>
        <pt x="193" y="108" on="0"/>
        <pt x="275" y="108" on="1"/>
        <pt x="339" y="108" on="0"/>
        <pt x="413" y="177" on="1"/>
        <pt x="475" y="238" on="0"/>
        <pt x="510" y="319" on="1"/>
        <pt x="532" y="373" on="0"/>
        <pt x="579" y="373" on="1"/>
        <pt x="607" y="373" on="0"/>
        <pt x="633" y="336" on="0"/>
        <pt x="628" y="314" on="1"/>
        <pt x="616" y="255" on="0"/>
        <pt x="491" y="83" on="0"/>
        <pt x="328" y="-20" on="0"/>
      </contour>
      <contour>
        <pt x="517" y="-20" on="1"/>
        <pt x="465" y="-20" on="0"/>
        <pt x="476" y="44" on="1"/>
        <pt x="515" y="75" on="0"/>
        <pt x="566" y="145" on="1"/>
        <pt x="592" y="68" on="0"/>
        <pt x="586" y="39" on="1"/>
        <pt x="580" y="14" on="0"/>
        <pt x="542" y="-20" on="0"/>
      </contour>
    </TTGlyph>
    <TTGlyph name="arrow" xMin="126" yMin="-11" xMax="564" yMax="624">
      <contour>
        <pt x="179" y="-11" on="1"/>
        <pt x="153" y="-11" on="0"/>
        <pt x="138" y="9" on="1"/>
        <pt x="126" y="24" on="0"/>
        <pt x="126" y="43" on="1"/>
        <pt x="126" y="71" on="0"/>
        <pt x="149" y="90" on="1"/>
        <pt x="409" y="304" on="1"/>
        <pt x="413" y="308" on="0"/>
        <pt x="414" y="313" on="1"/>
        <pt x="415" y="315" on="1"/>
        <pt x="414" y="315" on="1"/>
        <pt x="414" y="316" on="1"/>
        <pt x="250" y="524" on="1"/>
        <pt x="241" y="538" on="0"/>
        <pt x="241" y="555" on="1"/>
        <pt x="241" y="583" on="0"/>
        <pt x="270" y="606" on="1"/>
        <pt x="292" y="624" on="0"/>
        <pt x="314" y="624" on="1"/>
        <pt x="337" y="624" on="0"/>
        <pt x="350" y="607" on="1"/>
        <pt x="555" y="347" on="1"/>
        <pt x="564" y="334" on="0"/>
        <pt x="564" y="317" on="1"/>
        <pt x="564" y="290" on="0"/>
        <pt x="540" y="269" on="1"/>
        <pt x="218" y="4" on="1"/>
        <pt x="198" y="-11" on="0"/>
      </contour>
    </TTGlyph>
    <TTGlyph name="asciicircum" xMin="120" yMin="295" xMax="632" yMax="683">
      <contour>
        <pt x="561" y="295" on="1"/>
        <pt x="546" y="295" on="0"/>
        <pt x="520" y="313" on="0"/>
        <pt x="513" y="326" on="1"/>
        <pt x="412" y="521" on="1"/>
        <pt x="413" y="521" on="1"/>
        <pt x="412" y="520" on="0"/>
        <pt x="411" y="520" on="0"/>
        <pt x="410" y="518" on="0"/>
        <pt x="409" y="518" on="1"/>
        <pt x="225" y="322" on="1"/>
        <pt x="200" y="295" on="0"/>
        <pt x="171" y="295" on="1"/>
        <pt x="156" y="295" on="0"/>
        <pt x="140" y="305" on="1"/>
        <pt x="120" y="319" on="0"/>
        <pt x="120" y="347" on="1"/>
        <pt x="120" y="369" on="0"/>
        <pt x="135" y="388" on="1"/>
        <pt x="386" y="655" on="1"/>
        <pt x="414" y="683" on="0"/>
        <pt x="443" y="683" on="1"/>
        <pt x="473" y="683" on="0"/>
        <pt x="490" y="652" on="1"/>
        <pt x="627" y="384" on="1"/>
        <pt x="632" y="375" on="0"/>
        <pt x="632" y="367" on="1"/>
        <pt x="632" y="342" on="0"/>
        <pt x="616" y="323" on="1"/>
        <pt x="592" y="295" on="0"/>
      </contour>
    </TTGlyph>
    <TTGlyph name="asciitilde" xMin="98" yMin="185" xMax="633" yMax="437">
      <contour>
        <pt x="450" y="185" on="1"/>
        <pt x="383" y="185" on="0"/>
        <pt x="328" y="258" on="1"/>
        <pt x="286" y="314" on="0"/>
        <pt x="263" y="314" on="1"/>
        <pt x="228" y="314" on="0"/>
        <pt x="215" y="268" on="1"/>
        <pt x="209" y="244" on="0"/>
        <pt x="173" y="216" on="0"/>
        <pt x="149" y="216" on="1"/>
        <pt x="123" y="216" on="0"/>
        <pt x="98" y="253" on="0"/>
        <pt x="104" y="280" on="1"/>
        <pt x="116" y="334" on="0"/>
        <pt x="160" y="381" on="1"/>
        <pt x="213" y="437" on="0"/>
        <pt x="286" y="437" on="1"/>
        <pt x="355" y="437" on="0"/>
        <pt x="408" y="364" on="1"/>
        <pt x="433" y="329" on="0"/>
        <pt x="452" y="313" on="1"/>
        <pt x="457" y="309" on="0"/>
        <pt x="471" y="309" on="1"/>
        <pt x="500" y="309" on="0"/>
        <pt x="516" y="356" on="1"/>
        <pt x="525" y="380" on="0"/>
        <pt x="559" y="406" on="0"/>
        <pt x="581" y="406" on="1"/>
        <pt x="611" y="406" on="0"/>
        <pt x="633" y="365" on="0"/>
        <pt x="628" y="342" on="1"/>
        <pt x="617" y="289" on="0"/>
        <pt x="571" y="240" on="1"/>
        <pt x="519" y="185" on="0"/>
      </contour>
    </TTGlyph>
    <TTGlyph name="asterisk" xMin="115" yMin="46" xMax="615" yMax="575">
      <contour>
        <pt x="312" y="46" on="1"/>
        <pt x="288" y="46" on="0"/>
        <pt x="273" y="65" on="1"/>
        <pt x="261" y="80" on="0"/>
        <pt x="261" y="99" on="1"/>
        <pt x="261" y="105" on="0"/>
        <pt x="282" y="204" on="1"/>
        <pt x="197" y="161" on="1"/>
        <pt x="180" y="153" on="0"/>
        <pt x="166" y="153" on="1"/>
        <pt x="151" y="153" on="0"/>
        <pt x="138" y="162" on="1"/>
        <pt x="115" y="176" on="0"/>
        <pt x="115" y="203" on="1"/>
        <pt x="115" y="225" on="0"/>
        <pt x="130" y="245" on="1"/>
        <pt x="140" y="258" on="0"/>
        <pt x="155" y="265" on="1"/>
        <pt x="245" y="312" on="1"/>
        <pt x="178" y="356" on="1"/>
        <pt x="165" y="365" on="0"/>
        <pt x="160" y="381" on="1"/>
        <pt x="156" y="391" on="0"/>
        <pt x="156" y="401" on="1"/>
        <pt x="156" y="420" on="0"/>
        <pt x="171" y="439" on="1"/>
        <pt x="194" y="468" on="0"/>
        <pt x="227" y="468" on="1"/>
        <pt x="241" y="468" on="0"/>
        <pt x="256" y="460" on="1"/>
        <pt x="326" y="413" on="1"/>
        <pt x="349" y="518" on="1"/>
        <pt x="354" y="541" on="0"/>
        <pt x="395" y="575" on="0"/>
        <pt x="418" y="575" on="1"/>
        <pt x="442" y="575" on="0"/>
        <pt x="457" y="556" on="1"/>
        <pt x="469" y="541" on="0"/>
        <pt x="469" y="522" on="1"/>
        <pt x="469" y="516" on="0"/>
        <pt x="448" y="416" on="1"/>
        <pt x="533" y="460" on="1"/>
        <pt x="550" y="468" on="0"/>
        <pt x="564" y="468" on="1"/>
        <pt x="579" y="468" on="0"/>
        <pt x="593" y="459" on="1"/>
        <pt x="615" y="444" on="0"/>
        <pt x="615" y="416" on="1"/>
        <pt x="615" y="395" on="0"/>
        <pt x="601" y="377" on="1"/>
        <pt x="590" y="363" on="0"/>
        <pt x="575" y="356" on="1"/>
        <pt x="485" y="309" on="1"/>
        <pt x="552" y="265" on="1"/>
        <pt x="565" y="256" on="0"/>
        <pt x="570" y="240" on="1"/>
        <pt x="574" y="230" on="0"/>
        <pt x="574" y="220" on="1"/>
        <pt x="574" y="202" on="0"/>
        <pt x="559" y="181" on="1"/>
        <pt x="532" y="153" on="0"/>
        <pt x="503" y="153" on="1"/>
        <pt x="489" y="153" on="0"/>
        <pt x="474" y="161" on="1"/>
        <pt x="403" y="207" on="1"/>
        <pt x="381" y="103" on="1"/>
        <pt x="376" y="80" on="0"/>
        <pt x="335" y="46" on="0"/>
      </contour>
    </TTGlyph>
    <TTGlyph name="at" xMin="43" yMin="-20" xMax="701" yMax="770">
      <contour>
        <pt x="430" y="-20" on="1"/>
        <pt x="330" y="-20" on="0"/>
        <pt x="340" y="94" on="1"/>
        <pt x="345" y="150" on="0"/>
        <pt x="355" y="205" on="1"/>
        <pt x="381" y="344" on="1"/>
        <pt x="386" y="371" on="0"/>
        <pt x="373" y="405" on="0"/>
        <pt x="355" y="405" on="1"/>
        <pt x="324" y="405" on="0"/>
        <pt x="269" y="358" on="0"/>
        <pt x="221" y="279" on="0"/>
        <pt x="206" y="217" on="1"/>
        <pt x="180" y="93" on="0"/>
        <pt x="220" y="93" on="1"/>
        <pt x="243" y="93" on="0"/>
        <pt x="307" y="115" on="1"/>
        <pt x="298" y="45" on="0"/>
        <pt x="316" y="15" on="1"/>
        <pt x="245" y="-20" on="0"/>
        <pt x="183" y="-20" on="1"/>
        <pt x="43" y="-20" on="0"/>
        <pt x="94" y="218" on="1"/>
        <pt x="109" y="290" on="0"/>
        <pt x="150" y="362" on="1"/>
        <pt x="244" y="528" on="0"/>
        <pt x="371" y="529" on="1"/>
        <pt x="453" y="528" on="0"/>
        <pt x="509" y="425" on="0"/>
        <pt x="495" y="357" on="1"/>
        <pt x="467" y="212" on="1"/>
        <pt x="444" y="100" on="0"/>
        <pt x="460" y="100" on="1"/>
        <pt x="482" y="100" on="0"/>
        <pt x="518" y="136" on="1"/>
        <pt x="534" y="153" on="0"/>
        <pt x="559" y="153" on="1"/>
        <pt x="572" y="153" on="0"/>
        <pt x="579" y="149" on="1"/>
        <pt x="611" y="132" on="0"/>
        <pt x="604" y="97" on="1"/>
        <pt x="592" y="42" on="0"/>
        <pt x="497" y="-7" on="1"/>
        <pt x="471" y="-20" on="0"/>
      </contour>
      <contour>
        <pt x="597" y="233" on="1"/>
        <pt x="532" y="233" on="0"/>
        <pt x="544" y="309" on="1"/>
        <pt x="555" y="379" on="1"/>
        <pt x="598" y="640" on="0"/>
        <pt x="403" y="640" on="1"/>
        <pt x="366" y="640" on="0"/>
        <pt x="284" y="602" on="0"/>
        <pt x="221" y="543" on="1"/>
        <pt x="203" y="526" on="0"/>
        <pt x="178" y="526" on="1"/>
        <pt x="155" y="526" on="0"/>
        <pt x="125" y="564" on="0"/>
        <pt x="132" y="598" on="1"/>
        <pt x="136" y="620" on="0"/>
        <pt x="150" y="635" on="1"/>
        <pt x="272" y="769" on="0"/>
        <pt x="436" y="770" on="1"/>
        <pt x="571" y="770" on="0"/>
        <pt x="644" y="659" on="1"/>
        <pt x="701" y="576" on="0"/>
        <pt x="683" y="431" on="1"/>
        <pt x="675" y="364" on="0"/>
        <pt x="660" y="294" on="1"/>
        <pt x="646" y="233" on="0"/>
      </contour>
    </TTGlyph>
    <TTGlyph name="b" xMin="78" yMin="-20" xMax="626" yMax="815">
      <contour>
        <pt x="328" y="100" on="1" overlap="1"/>
        <pt x="437" y="103" on="0"/>
        <pt x="476" y="270" on="1"/>
        <pt x="494" y="354" on="0"/>
        <pt x="452" y="434" on="0"/>
        <pt x="407" y="434" on="1"/>
        <pt x="358" y="434" on="0"/>
        <pt x="317" y="399" on="1"/>
        <pt x="272" y="358" on="0"/>
        <pt x="262" y="315" on="1"/>
        <pt x="241" y="215" on="1"/>
        <pt x="230" y="161" on="0"/>
        <pt x="285" y="100" on="0"/>
        <pt x="322" y="100" on="1"/>
      </contour>
      <contour>
        <pt x="326" y="-20" on="1"/>
        <pt x="241" y="-20" on="0"/>
        <pt x="200" y="35" on="1"/>
        <pt x="200" y="35" on="0"/>
        <pt x="201" y="35" on="1"/>
        <pt x="201" y="35" on="0"/>
        <pt x="198" y="26" on="1"/>
        <pt x="181" y="-20" on="0"/>
        <pt x="132" y="-20" on="1"/>
        <pt x="106" y="-20" on="0"/>
        <pt x="78" y="17" on="0"/>
        <pt x="84" y="44" on="1"/>
        <pt x="235" y="757" on="1"/>
        <pt x="241" y="782" on="0"/>
        <pt x="283" y="815" on="0"/>
        <pt x="306" y="815" on="1"/>
        <pt x="330" y="815" on="0"/>
        <pt x="361" y="777" on="0"/>
        <pt x="355" y="750" on="1"/>
        <pt x="308" y="528" on="1"/>
        <pt x="307" y="524" on="0"/>
        <pt x="306" y="526" on="0"/>
        <pt x="306" y="526" on="1"/>
        <pt x="311" y="526" on="0"/>
        <pt x="319" y="532" on="1"/>
        <pt x="374" y="570" on="0"/>
        <pt x="444" y="570" on="1"/>
        <pt x="539" y="570" on="0"/>
        <pt x="626" y="407" on="0"/>
        <pt x="599" y="278" on="1"/>
        <pt x="567" y="135" on="0"/>
        <pt x="432" y="-20" on="0"/>
      </contour>
    </TTGlyph>
    <TTGlyph name="backslash" xMin="213" yMin="-165" xMax="536" yMax="865">
      <contour>
        <pt x="464" y="-165" on="1"/>
        <pt x="447" y="-165" on="0"/>
        <pt x="419" y="-144" on="0"/>
        <pt x="414" y="-126" on="1"/>
        <pt x="213" y="791" on="0"/>
        <pt x="213" y="796" on="1"/>
        <pt x="213" y="819" on="0"/>
        <pt x="230" y="839" on="1"/>
        <pt x="252" y="865" on="0"/>
        <pt x="283" y="865" on="1"/>
        <pt x="300" y="865" on="0"/>
        <pt x="329" y="844" on="0"/>
        <pt x="334" y="826" on="1"/>
        <pt x="536" y="-91" on="0"/>
        <pt x="536" y="-96" on="1"/>
        <pt x="535" y="-118" on="0"/>
        <pt x="518" y="-138" on="1"/>
        <pt x="495" y="-165" on="0"/>
      </contour>
    </TTGlyph>
    <TTGlyph name="bar" xMin="223" yMin="-135" xMax="521" yMax="815">
      <contour>
        <pt x="274" y="-135" on="1"/>
        <pt x="250" y="-135" on="0"/>
        <pt x="235" y="-116" on="1"/>
        <pt x="223" y="-101" on="0"/>
        <pt x="223" y="-82" on="1"/>
        <pt x="223" y="-76" on="0"/>
        <pt x="400" y="758" on="1"/>
        <pt x="406" y="781" on="0"/>
        <pt x="447" y="815" on="0"/>
        <pt x="470" y="815" on="1"/>
        <pt x="494" y="815" on="0"/>
        <pt x="509" y="796" on="1"/>
        <pt x="521" y="780" on="0"/>
        <pt x="521" y="762" on="1"/>
        <pt x="521" y="756" on="0"/>
        <pt x="343" y="-78" on="1"/>
        <pt x="338" y="-101" on="0"/>
        <pt x="297" y="-135" on="0"/>
      </contour>
    </TTGlyph>
    <TTGlyph name="bar_bar" xMin="-227" yMin="-135" xMax="371" yMax="815">
      <contour>
        <pt x="124" y="-135" on="1"/>
        <pt x="100" y="-135" on="0"/>
        <pt x="85" y="-116" on="1"/>
        <pt x="73" y="-101" on="0"/>
        <pt x="73" y="-82" on="1"/>
        <pt x="73" y="-76" on="0"/>
        <pt x="250" y="758" on="1"/>
        <pt x="256" y="781" on="0"/>
        <pt x="297" y="815" on="0"/>
        <pt x="320" y="815" on="1"/>
        <pt x="344" y="815" on="0"/>
        <pt x="359" y="796" on="1"/>
        <pt x="371" y="780" on="0"/>
        <pt x="371" y="762" on="1"/>
        <pt x="371" y="756" on="0"/>
        <pt x="193" y="-78" on="1"/>
        <pt x="188" y="-101" on="0"/>
        <pt x="147" y="-135" on="0"/>
      </contour>
      <contour>
        <pt x="-176" y="-135" on="1"/>
        <pt x="-200" y="-135" on="0"/>
        <pt x="-215" y="-116" on="1"/>
        <pt x="-227" y="-101" on="0"/>
        <pt x="-227" y="-82" on="1"/>
        <pt x="-227" y="-76" on="0"/>
        <pt x="-50" y="758" on="1"/>
        <pt x="-44" y="781" on="0"/>
        <pt x="-3" y="815" on="0"/>
        <pt x="20" y="815" on="1"/>
        <pt x="44" y="815" on="0"/>
        <pt x="59" y="796" on="1"/>
        <pt x="71" y="780" on="0"/>
        <pt x="71" y="762" on="1"/>
        <pt x="71" y="756" on="0"/>
        <pt x="-107" y="-78" on="1"/>
        <pt x="-112" y="-101" on="0"/>
        <pt x="-153" y="-135" on="0"/>
      </contour>
    </TTGlyph>
    <TTGlyph name="braceleft" xMin="150" yMin="-180" xMax="696" yMax="864">
      <contour>
        <pt x="427" y="-180" on="1"/>
        <pt x="384" y="-180" on="1"/>
        <pt x="350" y="-180" on="0"/>
        <pt x="309" y="-177" on="0"/>
        <pt x="257" y="-160" on="0"/>
        <pt x="238" y="-142" on="1"/>
        <pt x="178" y="-87" on="0"/>
        <pt x="200" y="17" on="1"/>
        <pt x="205" y="38" on="0"/>
        <pt x="248" y="219" on="0"/>
        <pt x="252" y="234" on="1"/>
        <pt x="263" y="290" on="0"/>
        <pt x="246" y="311" on="1"/>
        <pt x="235" y="325" on="0"/>
        <pt x="215" y="325" on="1"/>
        <pt x="150" y="325" on="0"/>
        <pt x="162" y="385" on="1"/>
        <pt x="168" y="411" on="0"/>
        <pt x="204" y="440" on="0"/>
        <pt x="241" y="440" on="0"/>
        <pt x="265" y="447" on="0"/>
        <pt x="279" y="459" on="1"/>
        <pt x="307" y="483" on="0"/>
        <pt x="320" y="543" on="1"/>
        <pt x="322" y="554" on="0"/>
        <pt x="335" y="628" on="0"/>
        <pt x="338" y="643" on="1"/>
        <pt x="363" y="760" on="0"/>
        <pt x="435" y="815" on="1"/>
        <pt x="498" y="864" on="0"/>
        <pt x="616" y="864" on="1"/>
        <pt x="643" y="864" on="1"/>
        <pt x="667" y="864" on="0"/>
        <pt x="696" y="828" on="0"/>
        <pt x="691" y="802" on="1"/>
        <pt x="685" y="777" on="0"/>
        <pt x="647" y="745" on="0"/>
        <pt x="624" y="745" on="1"/>
        <pt x="574" y="746" on="1"/>
        <pt x="538" y="746" on="0"/>
        <pt x="515" y="734" on="1"/>
        <pt x="475" y="712" on="0"/>
        <pt x="462" y="648" on="1"/>
        <pt x="459" y="635" on="0"/>
        <pt x="447" y="561" on="0"/>
        <pt x="444" y="546" on="1"/>
        <pt x="430" y="485" on="0"/>
        <pt x="401" y="444" on="1"/>
        <pt x="379" y="411" on="0"/>
        <pt x="356" y="392" on="1"/>
        <pt x="351" y="387" on="0"/>
        <pt x="350" y="382" on="1"/>
        <pt x="349" y="378" on="0"/>
        <pt x="351" y="375" on="1"/>
        <pt x="395" y="329" on="0"/>
        <pt x="370" y="214" on="1"/>
        <pt x="335" y="54" on="1"/>
        <pt x="327" y="24" on="0"/>
        <pt x="324" y="12" on="1"/>
        <pt x="316" y="-27" on="0"/>
        <pt x="344" y="-49" on="1"/>
        <pt x="362" y="-64" on="0"/>
        <pt x="414" y="-64" on="1"/>
        <pt x="445" y="-64" on="1"/>
        <pt x="469" y="-64" on="0"/>
        <pt x="496" y="-99" on="0"/>
        <pt x="491" y="-124" on="1"/>
        <pt x="485" y="-151" on="0"/>
        <pt x="448" y="-180" on="0"/>
      </contour>
    </TTGlyph>
    <TTGlyph name="braceright" xMin="52" yMin="-180" xMax="607" yMax="864">
      <contour>
        <pt x="104" y="-180" on="1"/>
        <pt x="81" y="-180" on="0"/>
        <pt x="52" y="-147" on="0"/>
        <pt x="58" y="-118" on="1"/>
        <pt x="63" y="-95" on="0"/>
        <pt x="101" y="-64" on="0"/>
        <pt x="122" y="-64" on="1"/>
        <pt x="153" y="-64" on="1"/>
        <pt x="206" y="-64" on="0"/>
        <pt x="233" y="-48" on="1"/>
        <pt x="274" y="-23" on="0"/>
        <pt x="283" y="18" on="1"/>
        <pt x="286" y="30" on="0"/>
        <pt x="291" y="61" on="1"/>
        <pt x="323" y="220" on="1"/>
        <pt x="347" y="333" on="0"/>
        <pt x="407" y="377" on="1"/>
        <pt x="413" y="382" on="0"/>
        <pt x="414" y="388" on="1"/>
        <pt x="415" y="392" on="0"/>
        <pt x="414" y="394" on="1"/>
        <pt x="398" y="415" on="0"/>
        <pt x="390" y="449" on="1"/>
        <pt x="378" y="490" on="0"/>
        <pt x="391" y="552" on="1"/>
        <pt x="394" y="567" on="0"/>
        <pt x="413" y="641" on="0"/>
        <pt x="416" y="654" on="1"/>
        <pt x="429" y="715" on="0"/>
        <pt x="402" y="735" on="1"/>
        <pt x="386" y="746" on="0"/>
        <pt x="351" y="746" on="1"/>
        <pt x="300" y="745" on="1"/>
        <pt x="275" y="745" on="0"/>
        <pt x="247" y="781" on="0"/>
        <pt x="252" y="808" on="1"/>
        <pt x="258" y="832" on="0"/>
        <pt x="297" y="864" on="0"/>
        <pt x="318" y="864" on="1"/>
        <pt x="346" y="864" on="1"/>
        <pt x="466" y="864" on="0"/>
        <pt x="510" y="813" on="1"/>
        <pt x="560" y="755" on="0"/>
        <pt x="534" y="636" on="1"/>
        <pt x="531" y="622" on="0"/>
        <pt x="513" y="548" on="0"/>
        <pt x="511" y="537" on="1"/>
        <pt x="498" y="479" on="0"/>
        <pt x="515" y="456" on="1"/>
        <pt x="522" y="447" on="0"/>
        <pt x="541" y="440" on="0"/>
        <pt x="580" y="440" on="0"/>
        <pt x="607" y="406" on="0"/>
        <pt x="601" y="378" on="1"/>
        <pt x="589" y="325" on="0"/>
        <pt x="531" y="325" on="1"/>
        <pt x="509" y="325" on="0"/>
        <pt x="489" y="309" on="1"/>
        <pt x="460" y="285" on="0"/>
        <pt x="448" y="228" on="1"/>
        <pt x="444" y="213" on="0"/>
        <pt x="411" y="32" on="0"/>
        <pt x="406" y="11" on="1"/>
        <pt x="385" y="-91" on="0"/>
        <pt x="305" y="-144" on="1"/>
        <pt x="280" y="-161" on="0"/>
        <pt x="223" y="-177" on="0"/>
        <pt x="181" y="-180" on="0"/>
        <pt x="147" y="-180" on="1"/>
      </contour>
    </TTGlyph>
    <TTGlyph name="bracketleft" xMin="113" yMin="-181" xMax="649" yMax="863">
      <contour>
        <pt x="382" y="-181" on="1"/>
        <pt x="166" y="-181" on="1"/>
        <pt x="141" y="-181" on="0"/>
        <pt x="125" y="-161" on="1"/>
        <pt x="113" y="-145" on="0"/>
        <pt x="113" y="-126" on="1"/>
        <pt x="113" y="-120" on="0"/>
        <pt x="310" y="804" on="1"/>
        <pt x="316" y="829" on="0"/>
        <pt x="358" y="863" on="0"/>
        <pt x="381" y="863" on="1"/>
        <pt x="597" y="863" on="1"/>
        <pt x="622" y="863" on="0"/>
        <pt x="637" y="844" on="1"/>
        <pt x="649" y="829" on="0"/>
        <pt x="649" y="810" on="1"/>
        <pt x="649" y="783" on="0"/>
        <pt x="622" y="760" on="1"/>
        <pt x="601" y="743" on="0"/>
        <pt x="578" y="743" on="1"/>
        <pt x="429" y="743" on="1"/>
        <pt x="417" y="743" on="0"/>
        <pt x="415" y="732" on="1"/>
        <pt x="247" y="-57" on="1"/>
        <pt x="247" y="-60" on="1"/>
        <pt x="401" y="-61" on="1"/>
        <pt x="425" y="-61" on="0"/>
        <pt x="440" y="-80" on="1"/>
        <pt x="452" y="-95" on="0"/>
        <pt x="452" y="-114" on="1"/>
        <pt x="452" y="-141" on="0"/>
        <pt x="425" y="-164" on="1"/>
        <pt x="405" y="-181" on="0"/>
      </contour>
    </TTGlyph>
    <TTGlyph name="bracketright" xMin="113" yMin="-181" xMax="648" yMax="863">
      <contour>
        <pt x="380" y="-181" on="1"/>
        <pt x="164" y="-181" on="1"/>
        <pt x="140" y="-181" on="0"/>
        <pt x="125" y="-162" on="1"/>
        <pt x="113" y="-146" on="0"/>
        <pt x="113" y="-128" on="1"/>
        <pt x="113" y="-99" on="0"/>
        <pt x="140" y="-77" on="1"/>
        <pt x="160" y="-61" on="0"/>
        <pt x="183" y="-61" on="1"/>
        <pt x="333" y="-61" on="1"/>
        <pt x="344" y="-61" on="0"/>
        <pt x="346" y="-49" on="1"/>
        <pt x="515" y="742" on="1"/>
        <pt x="515" y="743" on="0"/>
        <pt x="512" y="743" on="1"/>
        <pt x="360" y="743" on="1"/>
        <pt x="336" y="743" on="0"/>
        <pt x="321" y="762" on="1"/>
        <pt x="309" y="778" on="0"/>
        <pt x="309" y="796" on="1"/>
        <pt x="309" y="824" on="0"/>
        <pt x="337" y="847" on="1"/>
        <pt x="357" y="863" on="0"/>
        <pt x="379" y="863" on="1"/>
        <pt x="596" y="863" on="1"/>
        <pt x="620" y="863" on="0"/>
        <pt x="636" y="844" on="1"/>
        <pt x="648" y="829" on="0"/>
        <pt x="648" y="810" on="1"/>
        <pt x="648" y="804" on="0"/>
        <pt x="452" y="-122" on="1"/>
        <pt x="446" y="-146" on="0"/>
        <pt x="404" y="-181" on="0"/>
      </contour>
    </TTGlyph>
    <TTGlyph name="c" xMin="118" yMin="-20" xMax="632" yMax="570">
      <contour>
        <pt x="340" y="-20" on="1"/>
        <pt x="263" y="-20" on="0"/>
        <pt x="207" y="16" on="1"/>
        <pt x="118" y="72" on="0"/>
        <pt x="118" y="196" on="1"/>
        <pt x="118" y="234" on="0"/>
        <pt x="127" y="278" on="1"/>
        <pt x="148" y="375" on="0"/>
        <pt x="250" y="502" on="0"/>
        <pt x="390" y="570" on="0"/>
        <pt x="464" y="570" on="1"/>
        <pt x="558" y="570" on="0"/>
        <pt x="611" y="510" on="1"/>
        <pt x="632" y="486" on="0"/>
        <pt x="632" y="452" on="1"/>
        <pt x="632" y="420" on="0"/>
        <pt x="614" y="397" on="1"/>
        <pt x="567" y="342" on="0"/>
        <pt x="499" y="341" on="1"/>
        <pt x="462" y="341" on="0"/>
        <pt x="462" y="378" on="1"/>
        <pt x="462" y="405" on="0"/>
        <pt x="491" y="412" on="1"/>
        <pt x="517" y="418" on="0"/>
        <pt x="517" y="421" on="1"/>
        <pt x="517" y="423" on="0"/>
        <pt x="516" y="424" on="1"/>
        <pt x="485" y="444" on="0"/>
        <pt x="445" y="444" on="1"/>
        <pt x="376" y="444" on="0"/>
        <pt x="275" y="353" on="0"/>
        <pt x="258" y="272" on="1"/>
        <pt x="251" y="240" on="0"/>
        <pt x="251" y="213" on="1"/>
        <pt x="251" y="100" on="0"/>
        <pt x="365" y="100" on="1"/>
        <pt x="417" y="100" on="0"/>
        <pt x="480" y="140" on="1"/>
        <pt x="494" y="148" on="0"/>
        <pt x="511" y="148" on="1"/>
        <pt x="555" y="148" on="0"/>
        <pt x="555" y="101" on="1"/>
        <pt x="555" y="63" on="0"/>
        <pt x="524" y="43" on="1"/>
        <pt x="429" y="-20" on="0"/>
      </contour>
    </TTGlyph>
    <TTGlyph name="colon" xMin="213" yMin="-15" xMax="505" yMax="565">
      <contour>
        <pt x="302" y="-15" on="1"/>
        <pt x="260" y="-15" on="0"/>
        <pt x="213" y="45" on="0"/>
        <pt x="222" y="86" on="1"/>
        <pt x="230" y="126" on="0"/>
        <pt x="297" y="182" on="0"/>
        <pt x="337" y="182" on="1"/>
        <pt x="378" y="182" on="0"/>
        <pt x="423" y="122" on="0"/>
        <pt x="414" y="80" on="1"/>
        <pt x="406" y="41" on="0"/>
        <pt x="341" y="-15" on="0"/>
      </contour>
      <contour>
        <pt x="383" y="368" on="1"/>
        <pt x="341" y="368" on="0"/>
        <pt x="295" y="428" on="0"/>
        <pt x="303" y="469" on="1"/>
        <pt x="312" y="509" on="0"/>
        <pt x="378" y="565" on="0"/>
        <pt x="419" y="565" on="1"/>
        <pt x="459" y="565" on="0"/>
        <pt x="505" y="505" on="0"/>
        <pt x="496" y="463" on="1"/>
        <pt x="487" y="424" on="0"/>
        <pt x="422" y="368" on="0"/>
      </contour>
    </TTGlyph>
    <TTGlyph name="colon_center" xMin="232" yMin="75" xMax="505" yMax="565">
      <contour>
        <pt x="321" y="75" on="1"/>
        <pt x="279" y="75" on="0"/>
        <pt x="232" y="135" on="0"/>
        <pt x="241" y="176" on="1"/>
        <pt x="250" y="216" on="0"/>
        <pt x="316" y="272" on="0"/>
        <pt x="357" y="272" on="1"/>
        <pt x="397" y="272" on="0"/>
        <pt x="442" y="212" on="0"/>
        <pt x="433" y="170" on="1"/>
        <pt x="425" y="131" on="0"/>
        <pt x="360" y="75" on="0"/>
      </contour>
      <contour>
        <pt x="383" y="368" on="1"/>
        <pt x="341" y="368" on="0"/>
        <pt x="295" y="428" on="0"/>
        <pt x="303" y="469" on="1"/>
        <pt x="312" y="509" on="0"/>
        <pt x="378" y="565" on="0"/>
        <pt x="419" y="565" on="1"/>
        <pt x="459" y="565" on="0"/>
        <pt x="505" y="505" on="0"/>
        <pt x="496" y="463" on="1"/>
        <pt x="487" y="424" on="0"/>
        <pt x="422" y="368" on="0"/>
      </contour>
    </TTGlyph>
    <TTGlyph name="colon_center_left" xMin="113" yMin="75" xMax="386" yMax="565">
      <contour>
        <pt x="202" y="75" on="1"/>
        <pt x="160" y="75" on="0"/>
        <pt x="113" y="135" on="0"/>
        <pt x="122" y="176" on="1"/>
        <pt x="131" y="216" on="0"/>
        <pt x="197" y="272" on="0"/>
        <pt x="238" y="272" on="1"/>
        <pt x="278" y="272" on="0"/>
        <pt x="323" y="212" on="0"/>
        <pt x="314" y="170" on="1"/>
        <pt x="306" y="131" on="0"/>
        <pt x="241" y="75" on="0"/>
      </contour>
      <contour>
        <pt x="264" y="368" on="1"/>
        <pt x="222" y="368" on="0"/>
        <pt x="176" y="428" on="0"/>
        <pt x="184" y="469" on="1"/>
        <pt x="193" y="509" on="0"/>
        <pt x="259" y="565" on="0"/>
        <pt x="300" y="565" on="1"/>
        <pt x="340" y="565" on="0"/>
        <pt x="386" y="505" on="0"/>
        <pt x="377" y="463" on="1"/>
        <pt x="368" y="424" on="0"/>
        <pt x="303" y="368" on="0"/>
      </contour>
    </TTGlyph>
    <TTGlyph name="colon_center_right" xMin="350" yMin="75" xMax="623" yMax="565">
      <contour>
        <pt x="439" y="75" on="1"/>
        <pt x="397" y="75" on="0"/>
        <pt x="350" y="135" on="0"/>
        <pt x="359" y="176" on="1"/>
        <pt x="368" y="216" on="0"/>
        <pt x="434" y="272" on="0"/>
        <pt x="475" y="272" on="1"/>
        <pt x="515" y="272" on="0"/>
        <pt x="560" y="212" on="0"/>
        <pt x="551" y="170" on="1"/>
        <pt x="543" y="131" on="0"/>
        <pt x="478" y="75" on="0"/>
      </contour>
      <contour>
        <pt x="501" y="368" on="1"/>
        <pt x="459" y="368" on="0"/>
        <pt x="413" y="428" on="0"/>
        <pt x="421" y="469" on="1"/>
        <pt x="430" y="509" on="0"/>
        <pt x="496" y="565" on="0"/>
        <pt x="537" y="565" on="1"/>
        <pt x="577" y="565" on="0"/>
        <pt x="623" y="505" on="0"/>
        <pt x="614" y="463" on="1"/>
        <pt x="605" y="424" on="0"/>
        <pt x="540" y="368" on="0"/>
      </contour>
    </TTGlyph>
    <TTGlyph name="comma" xMin="72" yMin="-207" xMax="429" yMax="188">
      <contour>
        <pt x="132" y="-207" on="1"/>
        <pt x="72" y="-207" on="0"/>
        <pt x="79" y="-151" on="1"/>
        <pt x="90" y="-96" on="0"/>
        <pt x="144" y="-90" on="1"/>
        <pt x="189" y="-85" on="0"/>
        <pt x="247" y="-45" on="0"/>
        <pt x="252" y="-23" on="1"/>
        <pt x="257" y="1" on="0"/>
        <pt x="210" y="59" on="0"/>
        <pt x="219" y="102" on="1"/>
        <pt x="225" y="129" on="0"/>
        <pt x="244" y="150" on="1"/>
        <pt x="276" y="188" on="0"/>
        <pt x="328" y="188" on="1"/>
        <pt x="368" y="188" on="0"/>
        <pt x="392" y="157" on="1"/>
        <pt x="429" y="111" on="0"/>
        <pt x="410" y="23" on="1"/>
        <pt x="394" y="-53" on="0"/>
        <pt x="335" y="-114" on="1"/>
        <pt x="254" y="-194" on="0"/>
      </contour>
    </TTGlyph>
    <TTGlyph name="d" xMin="108" yMin="-20" xMax="687" yMax="815">
      <contour>
        <pt x="315" y="100" on="1"/>
        <pt x="353" y="100" on="0"/>
        <pt x="439" y="166" on="0"/>
        <pt x="451" y="221" on="1"/>
        <pt x="475" y="331" on="0"/>
        <pt x="475" y="341" on="1"/>
        <pt x="475" y="371" on="0"/>
        <pt x="455" y="400" on="1"/>
        <pt x="430" y="433" on="0"/>
        <pt x="384" y="433" on="1"/>
        <pt x="337" y="433" on="0"/>
        <pt x="255" y="346" on="0"/>
        <pt x="238" y="263" on="1"/>
        <pt x="230" y="225" on="0"/>
        <pt x="230" y="196" on="1"/>
        <pt x="230" y="102" on="0"/>
        <pt x="309" y="100" on="1"/>
      </contour>
      <contour>
        <pt x="272" y="-20" on="1"/>
        <pt x="108" y="-20" on="0"/>
        <pt x="108" y="167" on="1"/>
        <pt x="108" y="219" on="0"/>
        <pt x="121" y="285" on="1"/>
        <pt x="148" y="412" on="0"/>
        <pt x="300" y="570" on="0"/>
        <pt x="392" y="570" on="1"/>
        <pt x="464" y="570" on="0"/>
        <pt x="505" y="531" on="1"/>
        <pt x="509" y="526" on="0"/>
        <pt x="512" y="526" on="1"/>
        <pt x="515" y="526" on="0"/>
        <pt x="517" y="528" on="0"/>
        <pt x="565" y="756" on="1"/>
        <pt x="571" y="787" on="0"/>
        <pt x="611" y="815" on="0"/>
        <pt x="635" y="815" on="1"/>
        <pt x="661" y="815" on="0"/>
        <pt x="676" y="796" on="1"/>
        <pt x="687" y="782" on="0"/>
        <pt x="687" y="763" on="1"/>
        <pt x="687" y="757" on="0"/>
        <pt x="543" y="77" on="0"/>
        <pt x="543" y="77" on="1"/>
        <pt x="543" y="71" on="0"/>
        <pt x="552" y="71" on="1"/>
        <pt x="564" y="71" on="0"/>
        <pt x="582" y="83" on="1"/>
        <pt x="596" y="93" on="0"/>
        <pt x="609" y="93" on="1"/>
        <pt x="624" y="93" on="0"/>
        <pt x="643" y="69" on="0"/>
        <pt x="643" y="57" on="1"/>
        <pt x="643" y="41" on="0"/>
        <pt x="631" y="31" on="1"/>
        <pt x="573" y="-15" on="0"/>
        <pt x="516" y="-15" on="1"/>
        <pt x="461" y="-15" on="0"/>
        <pt x="440" y="42" on="1"/>
        <pt x="442" y="37" on="0"/>
        <pt x="445" y="37" on="1"/>
        <pt x="445" y="37" on="0"/>
        <pt x="439" y="33" on="1"/>
        <pt x="354" y="-20" on="0"/>
      </contour>
    </TTGlyph>
    <TTGlyph name="dagger" xMin="143" yMin="-15" xMax="685" yMax="765">
      <contour>
        <pt x="304" y="-15" on="1"/>
        <pt x="276" y="-15" on="0"/>
        <pt x="246" y="22" on="0"/>
        <pt x="253" y="51" on="1"/>
        <pt x="330" y="415" on="1"/>
        <pt x="456" y="415" on="1"/>
        <pt x="377" y="45" on="1"/>
        <pt x="371" y="18" on="0"/>
        <pt x="331" y="-15" on="0"/>
      </contour>
      <contour>
        <pt x="632" y="565" on="1"/>
        <pt x="659" y="565" on="0"/>
        <pt x="685" y="532" on="0"/>
        <pt x="680" y="505" on="1"/>
        <pt x="674" y="480" on="0"/>
        <pt x="639" y="450" on="0"/>
        <pt x="614" y="450" on="1"/>
        <pt x="196" y="450" on="1"/>
        <pt x="168" y="450" on="0"/>
        <pt x="143" y="484" on="0"/>
        <pt x="148" y="511" on="1"/>
        <pt x="154" y="536" on="0"/>
        <pt x="189" y="565" on="0"/>
        <pt x="214" y="565" on="1"/>
      </contour>
      <contour>
        <pt x="368" y="595" on="1"/>
        <pt x="392" y="705" on="1"/>
        <pt x="398" y="733" on="0"/>
        <pt x="437" y="765" on="0"/>
        <pt x="463" y="765" on="1"/>
        <pt x="492" y="765" on="0"/>
        <pt x="522" y="729" on="0"/>
        <pt x="516" y="699" on="1"/>
        <pt x="494" y="595" on="1"/>
      </contour>
    </TTGlyph>
    <TTGlyph name="dollar" xMin="64" yMin="-172" xMax="667" yMax="915">
      <contour>
        <pt x="464" y="489" on="1"/>
        <pt x="418" y="493" on="0"/>
        <pt x="351" y="524" on="1"/>
        <pt x="421" y="855" on="1"/>
        <pt x="426" y="877" on="0"/>
        <pt x="461" y="915" on="0"/>
        <pt x="490" y="915" on="1"/>
        <pt x="525" y="915" on="0"/>
        <pt x="546" y="871" on="0"/>
        <pt x="542" y="849" on="1"/>
      </contour>
      <contour>
        <pt x="222" y="-11" on="1"/>
        <pt x="141" y="6" on="0"/>
        <pt x="83" y="54" on="1"/>
        <pt x="64" y="70" on="0"/>
        <pt x="71" y="106" on="1"/>
        <pt x="75" y="124" on="0"/>
        <pt x="88" y="139" on="1"/>
        <pt x="107" y="161" on="0"/>
        <pt x="136" y="161" on="1"/>
        <pt x="153" y="161" on="0"/>
        <pt x="168" y="150" on="1"/>
        <pt x="217" y="113" on="0"/>
        <pt x="247" y="106" on="1"/>
      </contour>
      <contour>
        <pt x="373" y="-8" on="1"/>
        <pt x="397" y="107" on="1"/>
        <pt x="466" y="125" on="0"/>
        <pt x="485" y="211" on="1"/>
        <pt x="504" y="304" on="0"/>
        <pt x="414" y="325" on="1"/>
        <pt x="374" y="334" on="0"/>
        <pt x="328" y="351" on="1"/>
        <pt x="141" y="412" on="0"/>
        <pt x="174" y="568" on="1"/>
        <pt x="190" y="642" on="0"/>
        <pt x="255" y="698" on="1"/>
        <pt x="303" y="740" on="0"/>
        <pt x="387" y="766" on="1"/>
        <pt x="359" y="635" on="1"/>
        <pt x="310" y="614" on="0"/>
        <pt x="299" y="561" on="1"/>
        <pt x="287" y="507" on="0"/>
        <pt x="359" y="473" on="1"/>
        <pt x="405" y="452" on="0"/>
        <pt x="440" y="446" on="1"/>
        <pt x="498" y="433" on="0"/>
        <pt x="587" y="377" on="0"/>
        <pt x="614" y="275" on="0"/>
        <pt x="600" y="211" on="1"/>
        <pt x="571" y="74" on="0"/>
        <pt x="467" y="18" on="1"/>
        <pt x="417" y="-8" on="0"/>
      </contour>
      <contour>
        <pt x="268" y="-172" on="1"/>
        <pt x="235" y="-172" on="0"/>
        <pt x="211" y="-129" on="0"/>
        <pt x="216" y="-106" on="1"/>
        <pt x="305" y="306" on="1"/>
        <pt x="365" y="285" on="0"/>
        <pt x="419" y="278" on="1"/>
        <pt x="338" y="-112" on="1"/>
        <pt x="333" y="-134" on="0"/>
        <pt x="297" y="-172" on="0"/>
      </contour>
      <contour>
        <pt x="600" y="597" on="1"/>
        <pt x="579" y="597" on="0"/>
        <pt x="565" y="610" on="1"/>
        <pt x="544" y="632" on="0"/>
        <pt x="512" y="642" on="1"/>
        <pt x="538" y="762" on="1"/>
        <pt x="594" y="750" on="0"/>
        <pt x="638" y="716" on="1"/>
        <pt x="667" y="694" on="0"/>
        <pt x="660" y="660" on="1"/>
        <pt x="654" y="635" on="0"/>
        <pt x="620" y="597" on="0"/>
      </contour>
    </TTGlyph>
    <TTGlyph name="e" xMin="103" yMin="-20" xMax="615" yMax="570">
      <contour>
        <pt x="311" y="-20" on="1"/>
        <pt x="105" y="-20" on="0"/>
        <pt x="103" y="191" on="1"/>
        <pt x="103" y="230" on="0"/>
        <pt x="124" y="333" on="0"/>
        <pt x="142" y="378" on="1"/>
        <pt x="237" y="570" on="0"/>
        <pt x="448" y="570" on="1"/>
        <pt x="516" y="570" on="0"/>
        <pt x="615" y="493" on="0"/>
        <pt x="615" y="436" on="1"/>
        <pt x="615" y="354" on="0"/>
        <pt x="533" y="256" on="0"/>
        <pt x="435" y="238" on="1"/>
        <pt x="370" y="227" on="0"/>
        <pt x="232" y="225" on="1"/>
        <pt x="226" y="225" on="0"/>
        <pt x="222" y="203" on="0"/>
        <pt x="222" y="179" on="1"/>
        <pt x="222" y="132" on="0"/>
        <pt x="287" y="89" on="0"/>
        <pt x="343" y="89" on="1"/>
        <pt x="373" y="89" on="0"/>
        <pt x="440" y="119" on="0"/>
        <pt x="473" y="152" on="1"/>
        <pt x="489" y="167" on="0"/>
        <pt x="511" y="167" on="1"/>
        <pt x="532" y="167" on="0"/>
        <pt x="564" y="136" on="0"/>
        <pt x="564" y="115" on="1"/>
        <pt x="564" y="97" on="0"/>
        <pt x="550" y="79" on="0"/>
        <pt x="541" y="69" on="1"/>
        <pt x="494" y="22" on="0"/>
        <pt x="394" y="-20" on="0"/>
      </contour>
      <contour>
        <pt x="277" y="332" on="1"/>
        <pt x="396" y="333" on="0"/>
        <pt x="505" y="372" on="0"/>
        <pt x="505" y="423" on="1"/>
        <pt x="505" y="433" on="0"/>
        <pt x="473" y="454" on="0"/>
        <pt x="435" y="454" on="1"/>
        <pt x="387" y="454" on="0"/>
        <pt x="286" y="388" on="0"/>
        <pt x="264" y="350" on="1"/>
        <pt x="260" y="342" on="0"/>
        <pt x="260" y="335" on="1"/>
        <pt x="260" y="335" on="0"/>
        <pt x="260" y="335" on="0"/>
        <pt x="266" y="334" on="1"/>
      </contour>
    </TTGlyph>
    <TTGlyph name="eight" xMin="96" yMin="-20" xMax="649" yMax="770">
      <contour>
        <pt x="299" y="-20" on="1" overlap="1"/>
        <pt x="186" y="-20" on="0"/>
        <pt x="134" y="41" on="1"/>
        <pt x="96" y="85" on="0"/>
        <pt x="96" y="147" on="1"/>
        <pt x="96" y="171" on="0"/>
        <pt x="102" y="198" on="1"/>
        <pt x="132" y="322" on="0"/>
        <pt x="259" y="392" on="1"/>
        <pt x="260" y="393" on="1"/>
        <pt x="261" y="390" on="1"/>
        <pt x="262" y="387" on="0"/>
        <pt x="263" y="387" on="1"/>
        <pt x="190" y="440" on="0"/>
        <pt x="190" y="522" on="1"/>
        <pt x="190" y="542" on="0"/>
        <pt x="194" y="563" on="1"/>
        <pt x="215" y="655" on="0"/>
        <pt x="359" y="770" on="0"/>
        <pt x="460" y="770" on="1"/>
        <pt x="563" y="770" on="0"/>
        <pt x="613" y="710" on="1"/>
        <pt x="649" y="666" on="0"/>
        <pt x="649" y="605" on="1"/>
        <pt x="649" y="582" on="0"/>
        <pt x="644" y="557" on="1"/>
        <pt x="620" y="449" on="0"/>
        <pt x="504" y="386" on="1"/>
        <pt x="504" y="388" on="1"/>
        <pt x="503" y="389" on="0"/>
        <pt x="503" y="391" on="0"/>
        <pt x="502" y="391" on="1"/>
        <pt x="584" y="333" on="0"/>
        <pt x="584" y="235" on="1"/>
        <pt x="584" y="215" on="0"/>
        <pt x="580" y="192" on="1"/>
        <pt x="557" y="91" on="0"/>
        <pt x="403" y="-20" on="0"/>
      </contour>
      <contour>
        <pt x="394" y="458" on="1"/>
        <pt x="404" y="458" on="0"/>
        <pt x="416" y="461" on="1"/>
        <pt x="512" y="490" on="0"/>
        <pt x="522" y="558" on="1"/>
        <pt x="526" y="575" on="0"/>
        <pt x="526" y="589" on="1"/>
        <pt x="526" y="612" on="0"/>
        <pt x="496" y="650" on="0"/>
        <pt x="441" y="650" on="1"/>
        <pt x="332" y="650" on="0"/>
        <pt x="313" y="552" on="1"/>
        <pt x="309" y="539" on="0"/>
        <pt x="309" y="527" on="1"/>
        <pt x="309" y="480" on="0"/>
        <pt x="370" y="462" on="1"/>
        <pt x="382" y="458" on="0"/>
      </contour>
      <contour>
        <pt x="318" y="99" on="1"/>
        <pt x="386" y="99" on="0"/>
        <pt x="454" y="155" on="0"/>
        <pt x="464" y="210" on="1"/>
        <pt x="467" y="224" on="0"/>
        <pt x="467" y="236" on="1"/>
        <pt x="467" y="287" on="0"/>
        <pt x="412" y="309" on="1"/>
        <pt x="396" y="317" on="0"/>
        <pt x="371" y="318" on="1"/>
        <pt x="349" y="316" on="1"/>
        <pt x="326" y="314" on="0"/>
        <pt x="289" y="294" on="1"/>
        <pt x="235" y="264" on="0"/>
        <pt x="223" y="204" on="1"/>
        <pt x="218" y="183" on="0"/>
        <pt x="218" y="167" on="1"/>
        <pt x="218" y="140" on="0"/>
        <pt x="251" y="99" on="0"/>
      </contour>
    </TTGlyph>
    <TTGlyph name="equal" xMin="88" yMin="145" xMax="643" yMax="475">
      <contour>
        <pt x="573" y="355" on="1"/>
        <pt x="183" y="355" on="1"/>
        <pt x="159" y="355" on="0"/>
        <pt x="144" y="374" on="1"/>
        <pt x="132" y="389" on="0"/>
        <pt x="132" y="408" on="1"/>
        <pt x="132" y="435" on="0"/>
        <pt x="160" y="458" on="1"/>
        <pt x="180" y="475" on="0"/>
        <pt x="202" y="475" on="1"/>
        <pt x="592" y="475" on="1"/>
        <pt x="616" y="475" on="0"/>
        <pt x="632" y="456" on="1"/>
        <pt x="643" y="442" on="0"/>
        <pt x="643" y="424" on="1"/>
        <pt x="643" y="394" on="0"/>
        <pt x="617" y="372" on="1"/>
        <pt x="596" y="355" on="0"/>
      </contour>
      <contour>
        <pt x="529" y="145" on="1"/>
        <pt x="139" y="145" on="1"/>
        <pt x="115" y="145" on="0"/>
        <pt x="99" y="164" on="1"/>
        <pt x="88" y="178" on="0"/>
        <pt x="88" y="196" on="1"/>
        <pt x="88" y="226" on="0"/>
        <pt x="115" y="248" on="1"/>
        <pt x="135" y="265" on="0"/>
        <pt x="158" y="265" on="1"/>
        <pt x="548" y="265" on="1"/>
        <pt x="572" y="265" on="0"/>
        <pt x="587" y="246" on="1"/>
        <pt x="599" y="231" on="0"/>
        <pt x="599" y="212" on="1"/>
        <pt x="599" y="185" on="0"/>
        <pt x="572" y="162" on="1"/>
        <pt x="551" y="145" on="0"/>
      </contour>
    </TTGlyph>
    <TTGlyph name="exclam" xMin="212" yMin="-20" xMax="525" yMax="770">
      <contour>
        <pt x="301" y="-20" on="1"/>
        <pt x="259" y="-20" on="0"/>
        <pt x="212" y="40" on="0"/>
        <pt x="221" y="81" on="1"/>
        <pt x="229" y="121" on="0"/>
        <pt x="296" y="177" on="0"/>
        <pt x="336" y="177" on="1"/>
        <pt x="377" y="177" on="0"/>
        <pt x="422" y="117" on="0"/>
        <pt x="413" y="75" on="1"/>
        <pt x="405" y="36" on="0"/>
        <pt x="339" y="-20" on="0"/>
      </contour>
      <contour>
        <pt x="355" y="245" on="1"/>
        <pt x="299" y="245" on="0"/>
        <pt x="309" y="307" on="1"/>
        <pt x="372" y="689" on="1"/>
        <pt x="379" y="720" on="0"/>
        <pt x="423" y="770" on="0"/>
        <pt x="459" y="770" on="1"/>
        <pt x="500" y="770" on="0"/>
        <pt x="525" y="715" on="0"/>
        <pt x="519" y="683" on="1"/>
        <pt x="420" y="301" on="1"/>
        <pt x="405" y="245" on="0"/>
      </contour>
    </TTGlyph>
    <TTGlyph name="f" xMin="-21" yMin="-260" xMax="703" yMax="810">
      <contour>
        <pt x="38" y="-260" on="1"/>
        <pt x="-21" y="-260" on="0"/>
        <pt x="-21" y="-208" on="1"/>
        <pt x="-21" y="-151" on="0"/>
        <pt x="42" y="-151" on="1"/>
        <pt x="44" y="-151" on="1"/>
        <pt x="94" y="-151" on="0"/>
        <pt x="169" y="-64" on="0"/>
        <pt x="185" y="11" on="1"/>
        <pt x="214" y="142" on="1"/>
        <pt x="278" y="443" on="1"/>
        <pt x="278" y="445" on="0"/>
        <pt x="274" y="445" on="1"/>
        <pt x="189" y="445" on="1"/>
        <pt x="164" y="445" on="0"/>
        <pt x="138" y="477" on="0"/>
        <pt x="138" y="495" on="1"/>
        <pt x="138" y="527" on="0"/>
        <pt x="165" y="549" on="1"/>
        <pt x="185" y="565" on="0"/>
        <pt x="208" y="565" on="1"/>
        <pt x="293" y="565" on="1"/>
        <pt x="298" y="565" on="0"/>
        <pt x="305" y="571" on="0"/>
        <pt x="306" y="576" on="1"/>
        <pt x="317" y="627" on="1"/>
        <pt x="336" y="700" on="0"/>
        <pt x="468" y="810" on="0"/>
        <pt x="539" y="810" on="1"/>
        <pt x="651" y="810" on="1"/>
        <pt x="677" y="810" on="0"/>
        <pt x="703" y="777" on="0"/>
        <pt x="703" y="758" on="1"/>
        <pt x="703" y="729" on="0"/>
        <pt x="676" y="707" on="1"/>
        <pt x="656" y="690" on="0"/>
        <pt x="632" y="690" on="1"/>
        <pt x="540" y="690" on="1"/>
        <pt x="508" y="690" on="0"/>
        <pt x="441" y="635" on="0"/>
        <pt x="433" y="600" on="1"/>
        <pt x="426" y="569" on="0"/>
        <pt x="426" y="568" on="1"/>
        <pt x="426" y="565" on="0"/>
        <pt x="430" y="565" on="1"/>
        <pt x="598" y="565" on="1"/>
        <pt x="624" y="565" on="0"/>
        <pt x="650" y="532" on="0"/>
        <pt x="650" y="513" on="1"/>
        <pt x="650" y="484" on="0"/>
        <pt x="623" y="462" on="1"/>
        <pt x="603" y="445" on="0"/>
        <pt x="579" y="445" on="1"/>
        <pt x="411" y="445" on="1"/>
        <pt x="400" y="445" on="0"/>
        <pt x="397" y="432" on="1"/>
        <pt x="305" y="3" on="1"/>
        <pt x="274" y="-134" on="0"/>
        <pt x="200" y="-198" on="1"/>
        <pt x="132" y="-260" on="0"/>
      </contour>
    </TTGlyph>
    <TTGlyph name="five" xMin="80" yMin="-20" xMax="662" yMax="765">
      <contour>
        <pt x="231" y="-20" on="1"/>
        <pt x="213" y="-20" on="1"/>
        <pt x="159" y="-20" on="0"/>
        <pt x="128" y="-15" on="1"/>
        <pt x="105" y="-11" on="0"/>
        <pt x="80" y="23" on="0"/>
        <pt x="85" y="48" on="1"/>
        <pt x="90" y="71" on="0"/>
        <pt x="127" y="104" on="0"/>
        <pt x="152" y="104" on="1"/>
        <pt x="192" y="100" on="0"/>
        <pt x="243" y="99" on="1"/>
        <pt x="292" y="99" on="0"/>
        <pt x="379" y="131" on="0"/>
        <pt x="440" y="194" on="0"/>
        <pt x="450" y="243" on="1"/>
        <pt x="463" y="303" on="0"/>
        <pt x="393" y="354" on="0"/>
        <pt x="302" y="354" on="1"/>
        <pt x="218" y="354" on="1"/>
        <pt x="192" y="354" on="0"/>
        <pt x="161" y="393" on="0"/>
        <pt x="167" y="419" on="1"/>
        <pt x="228" y="706" on="1"/>
        <pt x="233" y="731" on="0"/>
        <pt x="275" y="765" on="0"/>
        <pt x="299" y="765" on="1"/>
        <pt x="608" y="765" on="1"/>
        <pt x="634" y="765" on="0"/>
        <pt x="662" y="729" on="0"/>
        <pt x="657" y="704" on="1"/>
        <pt x="652" y="681" on="0"/>
        <pt x="614" y="649" on="0"/>
        <pt x="590" y="649" on="1"/>
        <pt x="351" y="649" on="1"/>
        <pt x="347" y="649" on="0"/>
        <pt x="338" y="642" on="0"/>
        <pt x="337" y="637" on="1"/>
        <pt x="302" y="476" on="1"/>
        <pt x="302" y="473" on="0"/>
        <pt x="304" y="471" on="0"/>
        <pt x="307" y="471" on="1"/>
        <pt x="338" y="471" on="1"/>
        <pt x="623" y="471" on="0"/>
        <pt x="575" y="244" on="1"/>
        <pt x="548" y="114" on="0"/>
        <pt x="450" y="50" on="1"/>
        <pt x="343" y="-20" on="0"/>
      </contour>
    </TTGlyph>
    <TTGlyph name="four" xMin="70" yMin="-20" xMax="619" yMax="770">
      <contour>
        <pt x="405" y="254" on="1" overlap="1"/>
        <pt x="404" y="255" on="1"/>
        <pt x="435" y="402" on="1"/>
        <pt x="466" y="548" on="0"/>
        <pt x="468" y="548" on="1"/>
        <pt x="470" y="546" on="1"/>
        <pt x="469" y="546" on="1"/>
        <pt x="237" y="256" on="1"/>
        <pt x="236" y="254" on="1"/>
        <pt x="236" y="255" on="1"/>
        <pt x="405" y="255" on="1"/>
      </contour>
      <contour>
        <pt x="406" y="-20" on="1"/>
        <pt x="382" y="-20" on="0"/>
        <pt x="368" y="-2" on="1"/>
        <pt x="357" y="12" on="0"/>
        <pt x="357" y="30" on="1"/>
        <pt x="358" y="40" on="1"/>
        <pt x="379" y="135" on="1"/>
        <pt x="139" y="135" on="1"/>
        <pt x="105" y="135" on="0"/>
        <pt x="85" y="160" on="1"/>
        <pt x="70" y="179" on="0"/>
        <pt x="70" y="203" on="1"/>
        <pt x="70" y="237" on="0"/>
        <pt x="95" y="265" on="1"/>
        <pt x="490" y="736" on="1"/>
        <pt x="522" y="770" on="0"/>
        <pt x="561" y="770" on="1"/>
        <pt x="589" y="770" on="0"/>
        <pt x="606" y="748" on="1"/>
        <pt x="619" y="732" on="0"/>
        <pt x="619" y="710" on="1"/>
        <pt x="618" y="697" on="1"/>
        <pt x="524" y="255" on="1"/>
        <pt x="559" y="255" on="1"/>
        <pt x="582" y="255" on="0"/>
        <pt x="597" y="237" on="1"/>
        <pt x="607" y="224" on="0"/>
        <pt x="607" y="207" on="1"/>
        <pt x="607" y="177" on="0"/>
        <pt x="579" y="153" on="1"/>
        <pt x="557" y="135" on="0"/>
        <pt x="534" y="135" on="1"/>
        <pt x="498" y="135" on="1"/>
        <pt x="498" y="136" on="1"/>
        <pt x="499" y="134" on="1"/>
        <pt x="478" y="40" on="1"/>
        <pt x="473" y="16" on="0"/>
        <pt x="429" y="-20" on="0"/>
      </contour>
    </TTGlyph>
    <TTGlyph name="g" xMin="13" yMin="-251" xMax="609" yMax="570">
      <contour>
        <pt x="284" y="116" on="1"/>
        <pt x="332" y="116" on="0"/>
        <pt x="374" y="151" on="1"/>
        <pt x="419" y="192" on="0"/>
        <pt x="428" y="235" on="1"/>
        <pt x="454" y="350" on="0"/>
        <pt x="454" y="364" on="1"/>
        <pt x="454" y="397" on="0"/>
        <pt x="406" y="450" on="0"/>
        <pt x="369" y="450" on="1"/>
        <pt x="260" y="450" on="0"/>
        <pt x="215" y="281" on="1"/>
        <pt x="207" y="238" on="0"/>
        <pt x="207" y="214" on="1"/>
        <pt x="207" y="116" on="0"/>
      </contour>
      <contour>
        <pt x="211" y="-251" on="1"/>
        <pt x="84" y="-251" on="0"/>
        <pt x="22" y="-161" on="1"/>
        <pt x="13" y="-148" on="0"/>
        <pt x="13" y="-133" on="1"/>
        <pt x="13" y="-106" on="0"/>
        <pt x="52" y="-69" on="0"/>
        <pt x="76" y="-69" on="1"/>
        <pt x="100" y="-69" on="0"/>
        <pt x="114" y="-86" on="1"/>
        <pt x="137" y="-115" on="0"/>
        <pt x="177" y="-140" on="0"/>
        <pt x="228" y="-140" on="1"/>
        <pt x="284" y="-139" on="0"/>
        <pt x="326" y="-106" on="1"/>
        <pt x="361" y="-79" on="0"/>
        <pt x="368" y="-46" on="1"/>
        <pt x="384" y="24" on="0"/>
        <pt x="384" y="27" on="1"/>
        <pt x="384" y="24" on="0"/>
        <pt x="385" y="24" on="1"/>
        <pt x="381" y="24" on="0"/>
        <pt x="372" y="18" on="1"/>
        <pt x="318" y="-20" on="0"/>
        <pt x="247" y="-20" on="1"/>
        <pt x="152" y="-20" on="0"/>
        <pt x="108" y="63" on="1"/>
        <pt x="82" y="112" on="0"/>
        <pt x="82" y="179" on="1"/>
        <pt x="82" y="221" on="0"/>
        <pt x="92" y="271" on="1"/>
        <pt x="159" y="570" on="0"/>
        <pt x="365" y="570" on="1"/>
        <pt x="454" y="570" on="0"/>
        <pt x="492" y="514" on="1"/>
        <pt x="492" y="515" on="0"/>
        <pt x="490" y="515" on="1"/>
        <pt x="490" y="515" on="0"/>
        <pt x="493" y="524" on="1"/>
        <pt x="511" y="570" on="0"/>
        <pt x="559" y="570" on="1"/>
        <pt x="609" y="570" on="0"/>
        <pt x="609" y="522" on="1"/>
        <pt x="609" y="515" on="0"/>
        <pt x="495" y="-22" on="1"/>
        <pt x="472" y="-128" on="0"/>
        <pt x="316" y="-251" on="0"/>
      </contour>
    </TTGlyph>
    <TTGlyph name="grave" xMin="320" yMin="535" xMax="567" yMax="815">
      <contour>
        <pt x="497" y="535" on="1"/>
        <pt x="471" y="535" on="0"/>
        <pt x="455" y="555" on="1"/>
        <pt x="331" y="713" on="1"/>
        <pt x="320" y="725" on="0"/>
        <pt x="320" y="747" on="1"/>
        <pt x="320" y="776" on="0"/>
        <pt x="346" y="798" on="1"/>
        <pt x="369" y="815" on="0"/>
        <pt x="390" y="815" on="1"/>
        <pt x="413" y="815" on="0"/>
        <pt x="431" y="795" on="1"/>
        <pt x="556" y="636" on="1"/>
        <pt x="567" y="622" on="0"/>
        <pt x="567" y="603" on="1"/>
        <pt x="567" y="575" on="0"/>
        <pt x="540" y="552" on="1"/>
        <pt x="518" y="535" on="0"/>
      </contour>
    </TTGlyph>
    <TTGlyph name="greater" xMin="89" yMin="64" xMax="607" yMax="554">
      <contour>
        <pt x="140" y="64" on="1" overlap="1"/>
        <pt x="123" y="64" on="0"/>
        <pt x="109" y="75" on="1"/>
        <pt x="89" y="89" on="0"/>
        <pt x="89" y="114" on="1"/>
        <pt x="89" y="137" on="0"/>
        <pt x="105" y="157" on="1"/>
        <pt x="117" y="171" on="0"/>
        <pt x="132" y="179" on="1"/>
        <pt x="405" y="310" on="1"/>
        <pt x="407" y="310" on="0"/>
        <pt x="409" y="312" on="0"/>
        <pt x="409" y="314" on="1"/>
        <pt x="410" y="314" on="0"/>
        <pt x="410" y="313" on="0"/>
        <pt x="411" y="311" on="1"/>
        <pt x="193" y="440" on="1"/>
        <pt x="179" y="449" on="0"/>
        <pt x="173" y="465" on="1"/>
        <pt x="168" y="476" on="0"/>
        <pt x="168" y="488" on="1"/>
        <pt x="169" y="498" on="1"/>
        <pt x="178" y="530" on="0"/>
        <pt x="206" y="545" on="1"/>
        <pt x="222" y="554" on="0"/>
        <pt x="238" y="554" on="1"/>
        <pt x="251" y="554" on="0"/>
        <pt x="265" y="547" on="1"/>
        <pt x="582" y="364" on="1"/>
        <pt x="596" y="355" on="0"/>
        <pt x="602" y="339" on="1"/>
        <pt x="607" y="329" on="0"/>
        <pt x="607" y="318" on="1"/>
        <pt x="606" y="308" on="1"/>
        <pt x="605" y="307" on="1"/>
        <pt x="597" y="273" on="0"/>
        <pt x="563" y="256" on="1"/>
        <pt x="167" y="69" on="1"/>
        <pt x="152" y="64" on="0"/>
      </contour>
    </TTGlyph>
    <TTGlyph name="h" xMin="76" yMin="-20" xMax="660" yMax="815">
      <contour>
        <pt x="128" y="-20" on="1"/>
        <pt x="101" y="-20" on="0"/>
        <pt x="86" y="-1" on="1"/>
        <pt x="76" y="11" on="0"/>
        <pt x="76" y="28" on="1"/>
        <pt x="76" y="35" on="0"/>
        <pt x="229" y="756" on="1"/>
        <pt x="234" y="781" on="0"/>
        <pt x="276" y="815" on="0"/>
        <pt x="299" y="815" on="1"/>
        <pt x="324" y="815" on="0"/>
        <pt x="340" y="796" on="1"/>
        <pt x="350" y="782" on="0"/>
        <pt x="350" y="764" on="1"/>
        <pt x="350" y="757" on="0"/>
        <pt x="293" y="486" on="0"/>
        <pt x="293" y="485" on="1"/>
        <pt x="293" y="492" on="0"/>
        <pt x="285" y="492" on="1"/>
        <pt x="285" y="492" on="0"/>
        <pt x="290" y="496" on="1"/>
        <pt x="375" y="569" on="0"/>
        <pt x="455" y="570" on="1"/>
        <pt x="615" y="570" on="0"/>
        <pt x="615" y="418" on="1"/>
        <pt x="615" y="396" on="0"/>
        <pt x="611" y="370" on="1"/>
        <pt x="609" y="355" on="0"/>
        <pt x="588" y="252" on="1"/>
        <pt x="559" y="116" on="0"/>
        <pt x="559" y="88" on="1"/>
        <pt x="559" y="64" on="0"/>
        <pt x="570" y="64" on="1"/>
        <pt x="576" y="64" on="0"/>
        <pt x="600" y="79" on="1"/>
        <pt x="615" y="88" on="0"/>
        <pt x="626" y="88" on="1"/>
        <pt x="640" y="88" on="0"/>
        <pt x="660" y="65" on="0"/>
        <pt x="660" y="52" on="1"/>
        <pt x="660" y="28" on="0"/>
        <pt x="600" y="-4" on="1"/>
        <pt x="570" y="-20" on="0"/>
        <pt x="533" y="-20" on="1"/>
        <pt x="502" y="-20" on="0"/>
        <pt x="465" y="-13" on="0"/>
        <pt x="451" y="0" on="1"/>
        <pt x="432" y="20" on="0"/>
        <pt x="432" y="47" on="1"/>
        <pt x="432" y="53" on="0"/>
        <pt x="486" y="339" on="1"/>
        <pt x="491" y="364" on="0"/>
        <pt x="491" y="384" on="1"/>
        <pt x="491" y="443" on="0"/>
        <pt x="421" y="443" on="1"/>
        <pt x="378" y="442" on="0"/>
        <pt x="326" y="404" on="1"/>
        <pt x="263" y="357" on="0"/>
        <pt x="254" y="312" on="1"/>
        <pt x="196" y="38" on="1"/>
        <pt x="182" y="-20" on="0"/>
      </contour>
    </TTGlyph>
    <TTGlyph name="hyphen" xMin="110" yMin="250" xMax="621" yMax="370">
      <contour>
        <pt x="551" y="250" on="1"/>
        <pt x="161" y="250" on="1"/>
        <pt x="137" y="250" on="0"/>
        <pt x="122" y="269" on="1"/>
        <pt x="110" y="284" on="0"/>
        <pt x="110" y="303" on="1"/>
        <pt x="110" y="330" on="0"/>
        <pt x="137" y="353" on="1"/>
        <pt x="157" y="370" on="0"/>
        <pt x="180" y="370" on="1"/>
        <pt x="570" y="370" on="1"/>
        <pt x="594" y="370" on="0"/>
        <pt x="609" y="351" on="1"/>
        <pt x="621" y="336" on="0"/>
        <pt x="621" y="317" on="1"/>
        <pt x="621" y="290" on="0"/>
        <pt x="594" y="267" on="1"/>
        <pt x="573" y="250" on="0"/>
      </contour>
    </TTGlyph>
    <TTGlyph name="i" xMin="134" yMin="-19" xMax="596" yMax="816">
      <contour>
        <pt x="424" y="637" on="1"/>
        <pt x="386" y="637" on="0"/>
        <pt x="365" y="664" on="1"/>
        <pt x="351" y="683" on="0"/>
        <pt x="351" y="708" on="1"/>
        <pt x="352" y="757" on="0"/>
        <pt x="392" y="791" on="1"/>
        <pt x="423" y="816" on="0"/>
        <pt x="459" y="816" on="1"/>
        <pt x="495" y="816" on="0"/>
        <pt x="517" y="788" on="1"/>
        <pt x="531" y="768" on="0"/>
        <pt x="531" y="743" on="1"/>
        <pt x="530" y="695" on="0"/>
        <pt x="490" y="662" on="1"/>
        <pt x="458" y="637" on="0"/>
      </contour>
      <contour>
        <pt x="331" y="-19" on="1"/>
        <pt x="231" y="-19" on="0"/>
        <pt x="231" y="81" on="1"/>
        <pt x="232" y="152" on="0"/>
        <pt x="278" y="301" on="1"/>
        <pt x="299" y="386" on="1"/>
        <pt x="313" y="438" on="0"/>
        <pt x="313" y="449" on="1"/>
        <pt x="313" y="451" on="0"/>
        <pt x="312" y="451" on="1"/>
        <pt x="309" y="451" on="0"/>
        <pt x="296" y="448" on="1"/>
        <pt x="263" y="438" on="0"/>
        <pt x="185" y="418" on="1"/>
        <pt x="163" y="418" on="0"/>
        <pt x="134" y="447" on="0"/>
        <pt x="134" y="469" on="1"/>
        <pt x="134" y="498" on="0"/>
        <pt x="177" y="536" on="0"/>
        <pt x="202" y="541" on="1"/>
        <pt x="362" y="571" on="1"/>
        <pt x="395" y="571" on="0"/>
        <pt x="443" y="519" on="0"/>
        <pt x="443" y="489" on="1"/>
        <pt x="443" y="483" on="0"/>
        <pt x="417" y="382" on="0"/>
        <pt x="401" y="318" on="1"/>
        <pt x="361" y="149" on="0"/>
        <pt x="361" y="137" on="1"/>
        <pt x="361" y="109" on="0"/>
        <pt x="379" y="109" on="1"/>
        <pt x="409" y="109" on="0"/>
        <pt x="473" y="149" on="0"/>
        <pt x="523" y="197" on="1"/>
        <pt x="538" y="209" on="0"/>
        <pt x="553" y="209" on="1"/>
        <pt x="571" y="209" on="0"/>
        <pt x="596" y="183" on="0"/>
        <pt x="596" y="166" on="1"/>
        <pt x="596" y="151" on="0"/>
        <pt x="585" y="137" on="1"/>
        <pt x="508" y="54" on="0"/>
        <pt x="401" y="-19" on="0"/>
      </contour>
    </TTGlyph>
    <TTGlyph name="j" xMin="37" yMin="-232" xMax="590" yMax="815">
      <contour>
        <pt x="155" y="-132" on="1"/>
        <pt x="186" y="-132" on="0"/>
        <pt x="256" y="-6" on="0"/>
        <pt x="270" y="54" on="1"/>
        <pt x="133" y="-63" on="0"/>
        <pt x="133" y="-122" on="1"/>
        <pt x="133" y="-132" on="0"/>
      </contour>
      <contour>
        <pt x="456" y="638" on="1"/>
        <pt x="390" y="638" on="0"/>
        <pt x="384" y="708" on="1"/>
        <pt x="384" y="750" on="0"/>
        <pt x="443" y="815" on="0"/>
        <pt x="487" y="815" on="1"/>
        <pt x="518" y="815" on="0"/>
        <pt x="560" y="771" on="0"/>
        <pt x="560" y="742" on="1"/>
        <pt x="560" y="699" on="0"/>
        <pt x="494" y="638" on="0"/>
      </contour>
      <contour>
        <pt x="138" y="-232" on="1"/>
        <pt x="37" y="-232" on="0"/>
        <pt x="37" y="-136" on="1"/>
        <pt x="37" y="-85" on="0"/>
        <pt x="136" y="66" on="0"/>
        <pt x="307" y="199" on="1"/>
        <pt x="359" y="438" on="0"/>
        <pt x="359" y="444" on="1"/>
        <pt x="359" y="450" on="0"/>
        <pt x="357" y="450" on="1"/>
        <pt x="354" y="450" on="0"/>
        <pt x="344" y="447" on="1"/>
        <pt x="313" y="437" on="0"/>
        <pt x="232" y="417" on="1"/>
        <pt x="180" y="417" on="0"/>
        <pt x="180" y="468" on="1"/>
        <pt x="180" y="495" on="0"/>
        <pt x="206" y="520" on="1"/>
        <pt x="226" y="536" on="0"/>
        <pt x="247" y="540" on="1"/>
        <pt x="406" y="570" on="1"/>
        <pt x="445" y="570" on="0"/>
        <pt x="470" y="536" on="1"/>
        <pt x="488" y="511" on="0"/>
        <pt x="488" y="478" on="1"/>
        <pt x="450" y="297" on="1"/>
        <pt x="519" y="353" on="1"/>
        <pt x="532" y="363" on="0"/>
        <pt x="547" y="363" on="1"/>
        <pt x="566" y="363" on="0"/>
        <pt x="590" y="334" on="0"/>
        <pt x="590" y="319" on="1"/>
        <pt x="590" y="300" on="0"/>
        <pt x="574" y="286" on="1"/>
        <pt x="425" y="167" on="1"/>
        <pt x="393" y="42" on="0"/>
        <pt x="377" y="-4" on="1"/>
        <pt x="331" y="-130" on="0"/>
        <pt x="209" y="-232" on="0"/>
      </contour>
    </TTGlyph>
    <TTGlyph name="k" xMin="96" yMin="-20" xMax="599" yMax="815">
      <contour>
        <pt x="470" y="-20" on="1"/>
        <pt x="439" y="-20" on="0"/>
        <pt x="410" y="12" on="1"/>
        <pt x="267" y="224" on="1"/>
        <pt x="258" y="237" on="0"/>
        <pt x="258" y="250" on="1"/>
        <pt x="258" y="268" on="0"/>
        <pt x="278" y="277" on="1"/>
        <pt x="478" y="363" on="0"/>
        <pt x="478" y="427" on="1"/>
        <pt x="478" y="442" on="0"/>
        <pt x="451" y="443" on="1"/>
        <pt x="397" y="443" on="0"/>
        <pt x="293" y="341" on="1"/>
        <pt x="215" y="29" on="1"/>
        <pt x="209" y="8" on="0"/>
        <pt x="174" y="-19" on="0"/>
        <pt x="153" y="-19" on="1"/>
        <pt x="126" y="-19" on="0"/>
        <pt x="96" y="16" on="0"/>
        <pt x="96" y="39" on="1"/>
        <pt x="96" y="46" on="0"/>
        <pt x="273" y="766" on="1"/>
        <pt x="290" y="815" on="0"/>
        <pt x="337" y="815" on="1"/>
        <pt x="363" y="815" on="0"/>
        <pt x="395" y="781" on="0"/>
        <pt x="395" y="758" on="1"/>
        <pt x="394" y="746" on="0"/>
        <pt x="330" y="505" on="1"/>
        <pt x="422" y="570" on="0"/>
        <pt x="500" y="570" on="1"/>
        <pt x="599" y="570" on="0"/>
        <pt x="599" y="471" on="1"/>
        <pt x="596" y="324" on="0"/>
        <pt x="403" y="230" on="1"/>
        <pt x="401" y="229" on="0"/>
        <pt x="401" y="226" on="1"/>
        <pt x="401" y="223" on="0"/>
        <pt x="406" y="218" on="1"/>
        <pt x="480" y="93" on="0"/>
        <pt x="490" y="93" on="1"/>
        <pt x="505" y="93" on="0"/>
        <pt x="511" y="126" on="1"/>
        <pt x="520" y="157" on="0"/>
        <pt x="549" y="157" on="1"/>
        <pt x="585" y="157" on="0"/>
        <pt x="585" y="114" on="1"/>
        <pt x="568" y="42" on="0"/>
        <pt x="525" y="5" on="1"/>
        <pt x="499" y="-20" on="0"/>
      </contour>
    </TTGlyph>
    <TTGlyph name="l" xMin="54" yMin="-20" xMax="679" yMax="815">
      <contour>
        <pt x="284" y="-20" on="1"/>
        <pt x="155" y="-20" on="0"/>
        <pt x="155" y="96" on="1"/>
        <pt x="155" y="136" on="0"/>
        <pt x="164" y="189" on="0"/>
        <pt x="174" y="230" on="1"/>
        <pt x="179" y="247" on="1"/>
        <pt x="122" y="218" on="0"/>
        <pt x="104" y="218" on="1"/>
        <pt x="87" y="218" on="0"/>
        <pt x="54" y="244" on="0"/>
        <pt x="54" y="269" on="1"/>
        <pt x="57" y="299" on="0"/>
        <pt x="86" y="314" on="1"/>
        <pt x="119" y="325" on="0"/>
        <pt x="149" y="338" on="1"/>
        <pt x="206" y="363" on="1"/>
        <pt x="255" y="561" on="1"/>
        <pt x="284" y="682" on="0"/>
        <pt x="427" y="815" on="0"/>
        <pt x="526" y="815" on="1"/>
        <pt x="590" y="815" on="0"/>
        <pt x="679" y="743" on="0"/>
        <pt x="679" y="671" on="1"/>
        <pt x="679" y="546" on="0"/>
        <pt x="556" y="442" on="1"/>
        <pt x="493" y="389" on="0"/>
        <pt x="321" y="298" on="1"/>
        <pt x="309" y="246" on="0"/>
        <pt x="280" y="130" on="0"/>
        <pt x="280" y="109" on="1"/>
        <pt x="280" y="90" on="0"/>
        <pt x="308" y="90" on="1"/>
        <pt x="336" y="90" on="0"/>
        <pt x="383" y="122" on="0"/>
        <pt x="413" y="162" on="1"/>
        <pt x="432" y="184" on="0"/>
        <pt x="455" y="184" on="1"/>
        <pt x="476" y="184" on="0"/>
        <pt x="508" y="153" on="0"/>
        <pt x="508" y="132" on="1"/>
        <pt x="508" y="115" on="0"/>
        <pt x="497" y="100" on="1"/>
        <pt x="432" y="18" on="0"/>
        <pt x="369" y="-4" on="1"/>
        <pt x="332" y="-20" on="0"/>
      </contour>
      <contour>
        <pt x="358" y="431" on="1"/>
        <pt x="467" y="485" on="0"/>
        <pt x="577" y="602" on="0"/>
        <pt x="577" y="669" on="1"/>
        <pt x="577" y="708" on="0"/>
        <pt x="526" y="709" on="1"/>
        <pt x="494" y="709" on="0"/>
        <pt x="412" y="654" on="0"/>
        <pt x="392" y="576" on="1"/>
      </contour>
    </TTGlyph>
    <TTGlyph name="left_arrow_single" xMin="-432" yMin="-11" xMax="622" yMax="624">
      <contour>
        <pt x="-177" y="-11" on="1"/>
        <pt x="-187" y="-11" on="0"/>
        <pt x="-207" y="-1" on="0"/>
        <pt x="-213" y="7" on="1"/>
        <pt x="-423" y="271" on="1"/>
        <pt x="-432" y="283" on="0"/>
        <pt x="-432" y="303" on="1"/>
        <pt x="-432" y="329" on="0"/>
        <pt x="-409" y="349" on="1"/>
        <pt x="-94" y="609" on="1"/>
        <pt x="-74" y="624" on="0"/>
        <pt x="-55" y="624" on="1"/>
        <pt x="-31" y="624" on="0"/>
        <pt x="-15" y="603" on="1"/>
        <pt x="-2" y="588" on="0"/>
        <pt x="-2" y="569" on="1"/>
        <pt x="-2" y="543" on="0"/>
        <pt x="-25" y="522" on="1"/>
        <pt x="-111" y="451" on="1"/>
        <pt x="-45" y="370" on="1"/>
        <pt x="571" y="370" on="1"/>
        <pt x="596" y="370" on="0"/>
        <pt x="610" y="350" on="1"/>
        <pt x="622" y="335" on="0"/>
        <pt x="622" y="317" on="1"/>
        <pt x="621" y="307" on="1"/>
        <pt x="615" y="282" on="0"/>
        <pt x="574" y="250" on="0"/>
        <pt x="551" y="250" on="1"/>
        <pt x="-66" y="250" on="1"/>
        <pt x="-173" y="163" on="1"/>
        <pt x="-114" y="88" on="1"/>
        <pt x="-104" y="77" on="0"/>
        <pt x="-104" y="58" on="1"/>
        <pt x="-104" y="31" on="0"/>
        <pt x="-133" y="7" on="1"/>
        <pt x="-155" y="-11" on="0"/>
      </contour>
      <contour>
        <pt x="-241" y="254" on="1"/>
        <pt x="-239" y="254" on="0"/>
        <pt x="-236" y="255" on="0"/>
        <pt x="-175" y="305" on="1"/>
        <pt x="-170" y="309" on="0"/>
        <pt x="-169" y="315" on="1"/>
        <pt x="-169" y="316" on="0"/>
        <pt x="-169" y="317" on="0"/>
        <pt x="-208" y="364" on="0"/>
        <pt x="-209" y="364" on="1"/>
        <pt x="-209" y="365" on="1"/>
        <pt x="-212" y="365" on="1"/>
        <pt x="-214" y="365" on="0"/>
        <pt x="-217" y="363" on="0"/>
        <pt x="-280" y="312" on="0"/>
        <pt x="-282" y="309" on="0"/>
        <pt x="-283" y="305" on="0"/>
        <pt x="-283" y="304" on="1"/>
        <pt x="-283" y="304" on="1"/>
        <pt x="-244" y="254" on="1"/>
      </contour>
    </TTGlyph>
    <TTGlyph name="left_right_arrow_double" xMin="-1036" yMin="-11" xMax="568" yMax="624">
      <contour>
        <pt x="219" y="265" on="1"/>
        <pt x="245" y="265" on="0"/>
        <pt x="261" y="245" on="1"/>
        <pt x="292" y="208" on="1"/>
        <pt x="409" y="305" on="1"/>
        <pt x="413" y="308" on="0"/>
        <pt x="414" y="313" on="1"/>
        <pt x="415" y="315" on="0"/>
        <pt x="414" y="317" on="1"/>
        <pt x="339" y="411" on="1"/>
        <pt x="290" y="371" on="1"/>
        <pt x="270" y="355" on="0"/>
        <pt x="245" y="355" on="1"/>
        <pt x="-687" y="355" on="1"/>
        <pt x="-715" y="355" on="0"/>
        <pt x="-729" y="374" on="1"/>
        <pt x="-760" y="411" on="1"/>
        <pt x="-877" y="314" on="1"/>
        <pt x="-882" y="311" on="0"/>
        <pt x="-882" y="307" on="1"/>
        <pt x="-883" y="304" on="0"/>
        <pt x="-882" y="302" on="1"/>
        <pt x="-808" y="208" on="1"/>
        <pt x="-758" y="248" on="1"/>
        <pt x="-737" y="265" on="0"/>
        <pt x="-713" y="265" on="1"/>
      </contour>
      <contour>
        <pt x="226" y="475" on="1"/>
        <pt x="240" y="475" on="0"/>
        <pt x="252" y="485" on="1"/>
        <pt x="270" y="499" on="1"/>
        <pt x="250" y="525" on="1"/>
        <pt x="237" y="541" on="0"/>
        <pt x="242" y="565" on="1"/>
        <pt x="247" y="588" on="0"/>
        <pt x="290" y="624" on="0"/>
        <pt x="314" y="624" on="1"/>
        <pt x="337" y="624" on="0"/>
        <pt x="350" y="607" on="1"/>
        <pt x="555" y="347" on="1"/>
        <pt x="568" y="331" on="0"/>
        <pt x="563" y="307" on="1"/>
        <pt x="558" y="284" on="0"/>
        <pt x="540" y="269" on="1"/>
        <pt x="218" y="3" on="1"/>
        <pt x="200" y="-11" on="0"/>
        <pt x="179" y="-11" on="1"/>
        <pt x="154" y="-11" on="0"/>
        <pt x="122" y="28" on="0"/>
        <pt x="127" y="54" on="1"/>
        <pt x="132" y="75" on="0"/>
        <pt x="149" y="90" on="1"/>
        <pt x="191" y="125" on="1"/>
        <pt x="181" y="136" on="1"/>
        <pt x="173" y="145" on="0"/>
        <pt x="162" y="145" on="1"/>
        <pt x="-694" y="145" on="1"/>
        <pt x="-707" y="145" on="0"/>
        <pt x="-721" y="134" on="1"/>
        <pt x="-739" y="120" on="1"/>
        <pt x="-714" y="87" on="1"/>
        <pt x="-701" y="71" on="0"/>
        <pt x="-705" y="48" on="1"/>
        <pt x="-711" y="24" on="0"/>
        <pt x="-754" y="-11" on="0"/>
        <pt x="-777" y="-11" on="1"/>
        <pt x="-800" y="-11" on="0"/>
        <pt x="-814" y="6" on="1"/>
        <pt x="-1023" y="272" on="1"/>
        <pt x="-1036" y="288" on="0"/>
        <pt x="-1031" y="313" on="1"/>
        <pt x="-1026" y="335" on="0"/>
        <pt x="-1009" y="350" on="1"/>
        <pt x="-693" y="610" on="1"/>
        <pt x="-676" y="624" on="0"/>
        <pt x="-656" y="624" on="1"/>
        <pt x="-629" y="624" on="0"/>
        <pt x="-598" y="584" on="0"/>
        <pt x="-603" y="559" on="1"/>
        <pt x="-608" y="537" on="0"/>
        <pt x="-625" y="522" on="1"/>
        <pt x="-659" y="494" on="1"/>
        <pt x="-649" y="483" on="1"/>
        <pt x="-642" y="475" on="0"/>
        <pt x="-630" y="475" on="1"/>
      </contour>
    </TTGlyph>
    <TTGlyph name="left_right_arrow_double_long" xMin="-1636" yMin="-11" xMax="568" yMax="624">
      <contour>
        <pt x="219" y="265" on="1"/>
        <pt x="245" y="265" on="0"/>
        <pt x="261" y="245" on="1"/>
        <pt x="292" y="208" on="1"/>
        <pt x="409" y="305" on="1"/>
        <pt x="413" y="308" on="0"/>
        <pt x="414" y="313" on="1"/>
        <pt x="415" y="315" on="0"/>
        <pt x="414" y="317" on="1"/>
        <pt x="339" y="411" on="1"/>
        <pt x="290" y="371" on="1"/>
        <pt x="270" y="355" on="0"/>
        <pt x="245" y="355" on="1"/>
        <pt x="-1287" y="355" on="1"/>
        <pt x="-1315" y="355" on="0"/>
        <pt x="-1329" y="374" on="1"/>
        <pt x="-1360" y="411" on="1"/>
        <pt x="-1477" y="314" on="1"/>
        <pt x="-1482" y="311" on="0"/>
        <pt x="-1482" y="307" on="1"/>
        <pt x="-1483" y="304" on="0"/>
        <pt x="-1482" y="302" on="1"/>
        <pt x="-1408" y="208" on="1"/>
        <pt x="-1358" y="248" on="1"/>
        <pt x="-1337" y="265" on="0"/>
        <pt x="-1313" y="265" on="1"/>
      </contour>
      <contour>
        <pt x="226" y="475" on="1"/>
        <pt x="240" y="475" on="0"/>
        <pt x="252" y="485" on="1"/>
        <pt x="270" y="499" on="1"/>
        <pt x="250" y="525" on="1"/>
        <pt x="237" y="541" on="0"/>
        <pt x="242" y="565" on="1"/>
        <pt x="247" y="588" on="0"/>
        <pt x="290" y="624" on="0"/>
        <pt x="314" y="624" on="1"/>
        <pt x="337" y="624" on="0"/>
        <pt x="350" y="607" on="1"/>
        <pt x="555" y="347" on="1"/>
        <pt x="568" y="331" on="0"/>
        <pt x="563" y="307" on="1"/>
        <pt x="558" y="284" on="0"/>
        <pt x="540" y="269" on="1"/>
        <pt x="218" y="3" on="1"/>
        <pt x="200" y="-11" on="0"/>
        <pt x="179" y="-11" on="1"/>
        <pt x="154" y="-11" on="0"/>
        <pt x="122" y="28" on="0"/>
        <pt x="127" y="54" on="1"/>
        <pt x="132" y="75" on="0"/>
        <pt x="149" y="90" on="1"/>
        <pt x="191" y="125" on="1"/>
        <pt x="181" y="136" on="1"/>
        <pt x="173" y="145" on="0"/>
        <pt x="162" y="145" on="1"/>
        <pt x="-1294" y="145" on="1"/>
        <pt x="-1307" y="145" on="0"/>
        <pt x="-1321" y="134" on="1"/>
        <pt x="-1339" y="120" on="1"/>
        <pt x="-1314" y="87" on="1"/>
        <pt x="-1301" y="71" on="0"/>
        <pt x="-1305" y="48" on="1"/>
        <pt x="-1311" y="24" on="0"/>
        <pt x="-1354" y="-11" on="0"/>
        <pt x="-1377" y="-11" on="1"/>
        <pt x="-1400" y="-11" on="0"/>
        <pt x="-1414" y="6" on="1"/>
        <pt x="-1623" y="272" on="1"/>
        <pt x="-1636" y="288" on="0"/>
        <pt x="-1631" y="313" on="1"/>
        <pt x="-1626" y="335" on="0"/>
        <pt x="-1609" y="350" on="1"/>
        <pt x="-1293" y="610" on="1"/>
        <pt x="-1276" y="624" on="0"/>
        <pt x="-1256" y="624" on="1"/>
        <pt x="-1229" y="624" on="0"/>
        <pt x="-1198" y="584" on="0"/>
        <pt x="-1203" y="559" on="1"/>
        <pt x="-1208" y="537" on="0"/>
        <pt x="-1225" y="522" on="1"/>
        <pt x="-1259" y="494" on="1"/>
        <pt x="-1249" y="483" on="1"/>
        <pt x="-1242" y="475" on="0"/>
        <pt x="-1230" y="475" on="1"/>
      </contour>
    </TTGlyph>
    <TTGlyph name="left_right_arrow_single" xMin="-1036" yMin="-11" xMax="567" yMax="624">
      <contour>
        <pt x="344" y="254" on="1"/>
        <pt x="347" y="254" on="0"/>
        <pt x="352" y="258" on="1"/>
        <pt x="409" y="305" on="1"/>
        <pt x="413" y="308" on="0"/>
        <pt x="414" y="312" on="1"/>
        <pt x="415" y="315" on="0"/>
        <pt x="413" y="317" on="1"/>
        <pt x="376" y="364" on="1"/>
        <pt x="375" y="365" on="0"/>
        <pt x="374" y="365" on="1"/>
        <pt x="370" y="365" on="0"/>
        <pt x="364" y="361" on="1"/>
        <pt x="307" y="315" on="1"/>
        <pt x="305" y="314" on="0"/>
        <pt x="302" y="309" on="0"/>
        <pt x="302" y="307" on="1"/>
        <pt x="301" y="306" on="0"/>
        <pt x="302" y="302" on="0"/>
        <pt x="302" y="302" on="1"/>
        <pt x="340" y="256" on="1"/>
        <pt x="341" y="254" on="0"/>
      </contour>
      <contour>
        <pt x="-841" y="254" on="1"/>
        <pt x="-838" y="254" on="0"/>
        <pt x="-833" y="258" on="1"/>
        <pt x="-775" y="305" on="1"/>
        <pt x="-774" y="306" on="0"/>
        <pt x="-770" y="312" on="0"/>
        <pt x="-770" y="313" on="1"/>
        <pt x="-769" y="315" on="0"/>
        <pt x="-770" y="317" on="0"/>
        <pt x="-770" y="318" on="1"/>
        <pt x="-808" y="364" on="1"/>
        <pt x="-810" y="365" on="0"/>
        <pt x="-811" y="365" on="1"/>
        <pt x="-815" y="365" on="0"/>
        <pt x="-820" y="361" on="1"/>
        <pt x="-877" y="315" on="1"/>
        <pt x="-882" y="310" on="0"/>
        <pt x="-883" y="306" on="1"/>
        <pt x="-883" y="304" on="0"/>
        <pt x="-882" y="302" on="1"/>
        <pt x="-845" y="256" on="1"/>
        <pt x="-844" y="254" on="0"/>
      </contour>
      <contour>
        <pt x="198" y="370" on="1"/>
        <pt x="304" y="455" on="1"/>
        <pt x="249" y="525" on="1"/>
        <pt x="237" y="543" on="0"/>
        <pt x="242" y="565" on="1"/>
        <pt x="247" y="588" on="0"/>
        <pt x="290" y="624" on="0"/>
        <pt x="314" y="624" on="1"/>
        <pt x="337" y="624" on="0"/>
        <pt x="350" y="607" on="1"/>
        <pt x="555" y="347" on="1"/>
        <pt x="567" y="328" on="0"/>
        <pt x="563" y="307" on="1"/>
        <pt x="558" y="285" on="0"/>
        <pt x="540" y="270" on="1"/>
        <pt x="218" y="4" on="1"/>
        <pt x="199" y="-11" on="0"/>
        <pt x="179" y="-11" on="1"/>
        <pt x="154" y="-11" on="0"/>
        <pt x="122" y="29" on="0"/>
        <pt x="127" y="54" on="1"/>
        <pt x="132" y="75" on="0"/>
        <pt x="149" y="90" on="1"/>
        <pt x="243" y="168" on="1"/>
        <pt x="177" y="250" on="1"/>
        <pt x="-666" y="250" on="1"/>
        <pt x="-773" y="164" on="1"/>
        <pt x="-713" y="88" on="1"/>
        <pt x="-701" y="70" on="0"/>
        <pt x="-705" y="48" on="1"/>
        <pt x="-710" y="25" on="0"/>
        <pt x="-754" y="-11" on="0"/>
        <pt x="-777" y="-11" on="1"/>
        <pt x="-799" y="-11" on="0"/>
        <pt x="-813" y="7" on="1"/>
        <pt x="-1023" y="272" on="1"/>
        <pt x="-1036" y="290" on="0"/>
        <pt x="-1031" y="313" on="1"/>
        <pt x="-1027" y="333" on="0"/>
        <pt x="-1009" y="349" on="1"/>
        <pt x="-693" y="610" on="1"/>
        <pt x="-675" y="624" on="0"/>
        <pt x="-655" y="624" on="1"/>
        <pt x="-629" y="624" on="0"/>
        <pt x="-598" y="584" on="0"/>
        <pt x="-603" y="559" on="1"/>
        <pt x="-607" y="538" on="0"/>
        <pt x="-625" y="523" on="1"/>
        <pt x="-711" y="451" on="1"/>
        <pt x="-645" y="370" on="1"/>
      </contour>
    </TTGlyph>
    <TTGlyph name="left_right_arrow_single_long" xMin="-1636" yMin="-11" xMax="567" yMax="624">
      <contour>
        <pt x="344" y="254" on="1"/>
        <pt x="347" y="254" on="0"/>
        <pt x="352" y="258" on="1"/>
        <pt x="409" y="305" on="1"/>
        <pt x="413" y="308" on="0"/>
        <pt x="414" y="312" on="1"/>
        <pt x="415" y="315" on="0"/>
        <pt x="413" y="317" on="1"/>
        <pt x="376" y="364" on="1"/>
        <pt x="375" y="365" on="0"/>
        <pt x="374" y="365" on="1"/>
        <pt x="370" y="365" on="0"/>
        <pt x="364" y="361" on="1"/>
        <pt x="307" y="315" on="1"/>
        <pt x="305" y="314" on="0"/>
        <pt x="302" y="309" on="0"/>
        <pt x="302" y="307" on="1"/>
        <pt x="301" y="306" on="0"/>
        <pt x="302" y="302" on="0"/>
        <pt x="302" y="302" on="1"/>
        <pt x="340" y="256" on="1"/>
        <pt x="341" y="254" on="0"/>
      </contour>
      <contour>
        <pt x="-1441" y="254" on="1"/>
        <pt x="-1438" y="254" on="0"/>
        <pt x="-1433" y="258" on="1"/>
        <pt x="-1375" y="305" on="1"/>
        <pt x="-1374" y="306" on="0"/>
        <pt x="-1370" y="312" on="0"/>
        <pt x="-1370" y="313" on="1"/>
        <pt x="-1369" y="315" on="0"/>
        <pt x="-1370" y="317" on="0"/>
        <pt x="-1370" y="318" on="1"/>
        <pt x="-1408" y="364" on="1"/>
        <pt x="-1410" y="365" on="0"/>
        <pt x="-1411" y="365" on="1"/>
        <pt x="-1415" y="365" on="0"/>
        <pt x="-1420" y="361" on="1"/>
        <pt x="-1477" y="315" on="1"/>
        <pt x="-1482" y="310" on="0"/>
        <pt x="-1483" y="306" on="1"/>
        <pt x="-1483" y="304" on="0"/>
        <pt x="-1482" y="302" on="1"/>
        <pt x="-1445" y="256" on="1"/>
        <pt x="-1444" y="254" on="0"/>
      </contour>
      <contour>
        <pt x="198" y="370" on="1"/>
        <pt x="304" y="455" on="1"/>
        <pt x="249" y="525" on="1"/>
        <pt x="237" y="543" on="0"/>
        <pt x="242" y="565" on="1"/>
        <pt x="247" y="588" on="0"/>
        <pt x="290" y="624" on="0"/>
        <pt x="314" y="624" on="1"/>
        <pt x="337" y="624" on="0"/>
        <pt x="350" y="607" on="1"/>
        <pt x="555" y="347" on="1"/>
        <pt x="567" y="328" on="0"/>
        <pt x="563" y="307" on="1"/>
        <pt x="558" y="285" on="0"/>
        <pt x="540" y="270" on="1"/>
        <pt x="218" y="4" on="1"/>
        <pt x="199" y="-11" on="0"/>
        <pt x="179" y="-11" on="1"/>
        <pt x="154" y="-11" on="0"/>
        <pt x="122" y="29" on="0"/>
        <pt x="127" y="54" on="1"/>
        <pt x="132" y="75" on="0"/>
        <pt x="149" y="90" on="1"/>
        <pt x="243" y="168" on="1"/>
        <pt x="177" y="250" on="1"/>
        <pt x="-1266" y="250" on="1"/>
        <pt x="-1373" y="164" on="1"/>
        <pt x="-1313" y="88" on="1"/>
        <pt x="-1301" y="70" on="0"/>
        <pt x="-1305" y="48" on="1"/>
        <pt x="-1310" y="25" on="0"/>
        <pt x="-1354" y="-11" on="0"/>
        <pt x="-1377" y="-11" on="1"/>
        <pt x="-1399" y="-11" on="0"/>
        <pt x="-1413" y="7" on="1"/>
        <pt x="-1623" y="272" on="1"/>
        <pt x="-1636" y="290" on="0"/>
        <pt x="-1631" y="313" on="1"/>
        <pt x="-1627" y="333" on="0"/>
        <pt x="-1609" y="349" on="1"/>
        <pt x="-1293" y="610" on="1"/>
        <pt x="-1275" y="624" on="0"/>
        <pt x="-1255" y="624" on="1"/>
        <pt x="-1229" y="624" on="0"/>
        <pt x="-1198" y="584" on="0"/>
        <pt x="-1203" y="559" on="1"/>
        <pt x="-1207" y="538" on="0"/>
        <pt x="-1225" y="523" on="1"/>
        <pt x="-1311" y="451" on="1"/>
        <pt x="-1245" y="370" on="1"/>
      </contour>
    </TTGlyph>
    <TTGlyph name="less" xMin="128" yMin="64" xMax="645" yMax="554">
      <contour>
        <pt x="496" y="64" on="1" overlap="1"/>
        <pt x="484" y="64" on="0"/>
        <pt x="470" y="70" on="1"/>
        <pt x="153" y="257" on="1"/>
        <pt x="128" y="271" on="0"/>
        <pt x="128" y="302" on="1"/>
        <pt x="128" y="323" on="0"/>
        <pt x="144" y="343" on="1"/>
        <pt x="155" y="357" on="0"/>
        <pt x="171" y="365" on="1"/>
        <pt x="566" y="548" on="1"/>
        <pt x="581" y="554" on="0"/>
        <pt x="594" y="554" on="1"/>
        <pt x="611" y="554" on="0"/>
        <pt x="625" y="544" on="1"/>
        <pt x="645" y="529" on="0"/>
        <pt x="645" y="501" on="1"/>
        <pt x="645" y="482" on="0"/>
        <pt x="628" y="462" on="1"/>
        <pt x="616" y="447" on="0"/>
        <pt x="601" y="439" on="1"/>
        <pt x="326" y="309" on="1"/>
        <pt x="326" y="307" on="1"/>
        <pt x="325" y="307" on="1"/>
        <pt x="324" y="309" on="1"/>
        <pt x="542" y="178" on="1"/>
        <pt x="556" y="169" on="0"/>
        <pt x="562" y="153" on="1"/>
        <pt x="567" y="142" on="0"/>
        <pt x="567" y="130" on="1"/>
        <pt x="566" y="120" on="1"/>
        <pt x="557" y="88" on="0"/>
        <pt x="529" y="73" on="1"/>
        <pt x="512" y="64" on="0"/>
      </contour>
    </TTGlyph>
    <TTGlyph name="less_less" xMin="-412" yMin="64" xMax="585" yMax="554">
      <contour>
        <pt x="436" y="64" on="1" overlap="1"/>
        <pt x="424" y="64" on="0"/>
        <pt x="410" y="70" on="1"/>
        <pt x="93" y="257" on="1"/>
        <pt x="68" y="271" on="0"/>
        <pt x="68" y="302" on="1"/>
        <pt x="68" y="323" on="0"/>
        <pt x="84" y="343" on="1"/>
        <pt x="95" y="357" on="0"/>
        <pt x="111" y="365" on="1"/>
        <pt x="506" y="548" on="1"/>
        <pt x="521" y="554" on="0"/>
        <pt x="534" y="554" on="1"/>
        <pt x="551" y="554" on="0"/>
        <pt x="565" y="544" on="1"/>
        <pt x="585" y="529" on="0"/>
        <pt x="585" y="501" on="1"/>
        <pt x="585" y="482" on="0"/>
        <pt x="568" y="462" on="1"/>
        <pt x="556" y="447" on="0"/>
        <pt x="541" y="439" on="1"/>
        <pt x="266" y="309" on="1"/>
        <pt x="266" y="307" on="1"/>
        <pt x="265" y="307" on="1"/>
        <pt x="264" y="309" on="1"/>
        <pt x="482" y="178" on="1"/>
        <pt x="496" y="169" on="0"/>
        <pt x="502" y="153" on="1"/>
        <pt x="507" y="142" on="0"/>
        <pt x="507" y="130" on="1"/>
        <pt x="506" y="120" on="1"/>
        <pt x="497" y="88" on="0"/>
        <pt x="469" y="73" on="1"/>
        <pt x="452" y="64" on="0"/>
      </contour>
      <contour>
        <pt x="-44" y="64" on="1"/>
        <pt x="-56" y="64" on="0"/>
        <pt x="-70" y="70" on="1"/>
        <pt x="-387" y="257" on="1"/>
        <pt x="-412" y="271" on="0"/>
        <pt x="-412" y="302" on="1"/>
        <pt x="-412" y="323" on="0"/>
        <pt x="-396" y="343" on="1"/>
        <pt x="-385" y="357" on="0"/>
        <pt x="-369" y="365" on="1"/>
        <pt x="26" y="548" on="1"/>
        <pt x="41" y="554" on="0"/>
        <pt x="54" y="554" on="1"/>
        <pt x="71" y="554" on="0"/>
        <pt x="85" y="544" on="1"/>
        <pt x="105" y="529" on="0"/>
        <pt x="105" y="501" on="1"/>
        <pt x="105" y="482" on="0"/>
        <pt x="88" y="462" on="1"/>
        <pt x="76" y="447" on="0"/>
        <pt x="61" y="439" on="1"/>
        <pt x="-214" y="309" on="1"/>
        <pt x="-214" y="307" on="1"/>
        <pt x="-215" y="307" on="1"/>
        <pt x="-216" y="309" on="1"/>
        <pt x="2" y="178" on="1"/>
        <pt x="16" y="169" on="0"/>
        <pt x="22" y="153" on="1"/>
        <pt x="27" y="142" on="0"/>
        <pt x="27" y="130" on="1"/>
        <pt x="26" y="120" on="1"/>
        <pt x="17" y="88" on="0"/>
        <pt x="-11" y="73" on="1"/>
        <pt x="-28" y="64" on="0"/>
      </contour>
    </TTGlyph>
    <TTGlyph name="less_less_less" xMin="-952" yMin="64" xMax="525" yMax="554">
      <contour>
        <pt x="376" y="64" on="1" overlap="1"/>
        <pt x="364" y="64" on="0"/>
        <pt x="350" y="70" on="1"/>
        <pt x="33" y="257" on="1"/>
        <pt x="8" y="271" on="0"/>
        <pt x="8" y="302" on="1"/>
        <pt x="8" y="323" on="0"/>
        <pt x="24" y="343" on="1"/>
        <pt x="35" y="357" on="0"/>
        <pt x="51" y="365" on="1"/>
        <pt x="446" y="548" on="1"/>
        <pt x="461" y="554" on="0"/>
        <pt x="474" y="554" on="1"/>
        <pt x="491" y="554" on="0"/>
        <pt x="505" y="544" on="1"/>
        <pt x="525" y="529" on="0"/>
        <pt x="525" y="501" on="1"/>
        <pt x="525" y="482" on="0"/>
        <pt x="508" y="462" on="1"/>
        <pt x="496" y="447" on="0"/>
        <pt x="481" y="439" on="1"/>
        <pt x="206" y="309" on="1"/>
        <pt x="206" y="307" on="1"/>
        <pt x="205" y="307" on="1"/>
        <pt x="204" y="309" on="1"/>
        <pt x="422" y="178" on="1"/>
        <pt x="436" y="169" on="0"/>
        <pt x="442" y="153" on="1"/>
        <pt x="447" y="142" on="0"/>
        <pt x="447" y="130" on="1"/>
        <pt x="446" y="120" on="1"/>
        <pt x="437" y="88" on="0"/>
        <pt x="409" y="73" on="1"/>
        <pt x="392" y="64" on="0"/>
      </contour>
      <contour>
        <pt x="-104" y="64" on="1"/>
        <pt x="-116" y="64" on="0"/>
        <pt x="-130" y="70" on="1"/>
        <pt x="-447" y="257" on="1"/>
        <pt x="-472" y="271" on="0"/>
        <pt x="-472" y="302" on="1"/>
        <pt x="-472" y="323" on="0"/>
        <pt x="-456" y="343" on="1"/>
        <pt x="-445" y="357" on="0"/>
        <pt x="-429" y="365" on="1"/>
        <pt x="-34" y="548" on="1"/>
        <pt x="-19" y="554" on="0"/>
        <pt x="-6" y="554" on="1"/>
        <pt x="11" y="554" on="0"/>
        <pt x="25" y="544" on="1"/>
        <pt x="45" y="529" on="0"/>
        <pt x="45" y="501" on="1"/>
        <pt x="45" y="482" on="0"/>
        <pt x="28" y="462" on="1"/>
        <pt x="16" y="447" on="0"/>
        <pt x="1" y="439" on="1"/>
        <pt x="-274" y="309" on="1"/>
        <pt x="-274" y="307" on="1"/>
        <pt x="-275" y="307" on="1"/>
        <pt x="-276" y="309" on="1"/>
        <pt x="-58" y="178" on="1"/>
        <pt x="-44" y="169" on="0"/>
        <pt x="-38" y="153" on="1"/>
        <pt x="-33" y="142" on="0"/>
        <pt x="-33" y="130" on="1"/>
        <pt x="-34" y="120" on="1"/>
        <pt x="-43" y="88" on="0"/>
        <pt x="-71" y="73" on="1"/>
        <pt x="-88" y="64" on="0"/>
      </contour>
      <contour>
        <pt x="-584" y="64" on="1"/>
        <pt x="-596" y="64" on="0"/>
        <pt x="-610" y="70" on="1"/>
        <pt x="-927" y="257" on="1"/>
        <pt x="-952" y="271" on="0"/>
        <pt x="-952" y="302" on="1"/>
        <pt x="-952" y="323" on="0"/>
        <pt x="-936" y="343" on="1"/>
        <pt x="-925" y="357" on="0"/>
        <pt x="-909" y="365" on="1"/>
        <pt x="-514" y="548" on="1"/>
        <pt x="-499" y="554" on="0"/>
        <pt x="-486" y="554" on="1"/>
        <pt x="-469" y="554" on="0"/>
        <pt x="-455" y="544" on="1"/>
        <pt x="-435" y="529" on="0"/>
        <pt x="-435" y="501" on="1"/>
        <pt x="-435" y="482" on="0"/>
        <pt x="-452" y="462" on="1"/>
        <pt x="-464" y="447" on="0"/>
        <pt x="-479" y="439" on="1"/>
        <pt x="-754" y="309" on="1"/>
        <pt x="-754" y="307" on="1"/>
        <pt x="-755" y="307" on="1"/>
        <pt x="-756" y="309" on="1"/>
        <pt x="-538" y="178" on="1"/>
        <pt x="-524" y="169" on="0"/>
        <pt x="-518" y="153" on="1"/>
        <pt x="-513" y="142" on="0"/>
        <pt x="-513" y="130" on="1"/>
        <pt x="-514" y="120" on="1"/>
        <pt x="-523" y="88" on="0"/>
        <pt x="-551" y="73" on="1"/>
        <pt x="-568" y="64" on="0"/>
      </contour>
    </TTGlyph>
    <TTGlyph name="less_slash" xMin="-428" yMin="-165" xMax="705" yMax="865">
      <contour>
        <pt x="117" y="102" on="1" overlap="1"/>
        <pt x="588" y="832" on="1"/>
        <pt x="613" y="865" on="0"/>
        <pt x="647" y="865" on="1"/>
        <pt x="660" y="865" on="0"/>
        <pt x="672" y="859" on="1"/>
        <pt x="705" y="838" on="0"/>
        <pt x="698" y="802" on="1"/>
        <pt x="695" y="790" on="0"/>
        <pt x="688" y="779" on="1"/>
        <pt x="100" y="-132" on="1"/>
        <pt x="75" y="-165" on="0"/>
        <pt x="41" y="-165" on="1"/>
        <pt x="29" y="-165" on="0"/>
        <pt x="17" y="-159" on="1"/>
        <pt x="-18" y="-138" on="0"/>
        <pt x="-10" y="-102" on="1"/>
        <pt x="-7" y="-90" on="0"/>
        <pt x="0" y="-79" on="1"/>
        <pt x="48" y="-5" on="1"/>
        <pt x="-398" y="257" on="1"/>
        <pt x="-428" y="278" on="0"/>
        <pt x="-421" y="313" on="1"/>
        <pt x="-421" y="314" on="1"/>
        <pt x="-414" y="345" on="0"/>
        <pt x="-379" y="364" on="1"/>
        <pt x="16" y="548" on="1"/>
        <pt x="30" y="554" on="0"/>
        <pt x="45" y="554" on="1"/>
        <pt x="80" y="554" on="0"/>
        <pt x="93" y="516" on="1"/>
        <pt x="96" y="503" on="0"/>
        <pt x="94" y="492" on="1"/>
        <pt x="87" y="459" on="0"/>
        <pt x="51" y="440" on="1"/>
        <pt x="-221" y="311" on="1"/>
        <pt x="-224" y="309" on="0"/>
        <pt x="-224" y="307" on="1"/>
        <pt x="-224" y="308" on="0"/>
        <pt x="-225" y="308" on="1"/>
      </contour>
    </TTGlyph>
    <TTGlyph name="less_slash_uni003E" xMin="-1008" yMin="-165" xMax="540" yMax="865">
      <contour>
        <pt x="30" y="642" on="1" overlap="1"/>
        <pt x="510" y="364" on="1"/>
        <pt x="540" y="343" on="0"/>
        <pt x="533" y="308" on="1"/>
        <pt x="533" y="307" on="1"/>
        <pt x="526" y="276" on="0"/>
        <pt x="491" y="257" on="1"/>
        <pt x="96" y="73" on="1"/>
        <pt x="82" y="67" on="0"/>
        <pt x="67" y="67" on="1"/>
        <pt x="32" y="67" on="0"/>
        <pt x="19" y="104" on="1"/>
        <pt x="15" y="116" on="0"/>
        <pt x="18" y="129" on="1"/>
        <pt x="25" y="161" on="0"/>
        <pt x="61" y="181" on="1"/>
        <pt x="333" y="310" on="1"/>
        <pt x="336" y="312" on="0"/>
        <pt x="336" y="313" on="1"/>
        <pt x="336" y="313" on="0"/>
        <pt x="337" y="313" on="1"/>
        <pt x="-39" y="535" on="1"/>
        <pt x="-470" y="-132" on="1"/>
        <pt x="-495" y="-165" on="0"/>
        <pt x="-529" y="-165" on="1"/>
        <pt x="-541" y="-165" on="0"/>
        <pt x="-553" y="-159" on="1"/>
        <pt x="-588" y="-138" on="0"/>
        <pt x="-580" y="-102" on="1"/>
        <pt x="-577" y="-90" on="0"/>
        <pt x="-570" y="-79" on="1"/>
        <pt x="-526" y="-11" on="1"/>
        <pt x="-978" y="257" on="1"/>
        <pt x="-1008" y="278" on="0"/>
        <pt x="-1001" y="313" on="1"/>
        <pt x="-1001" y="314" on="1"/>
        <pt x="-994" y="345" on="0"/>
        <pt x="-959" y="364" on="1"/>
        <pt x="-564" y="548" on="1"/>
        <pt x="-550" y="554" on="0"/>
        <pt x="-535" y="554" on="1"/>
        <pt x="-500" y="554" on="0"/>
        <pt x="-487" y="516" on="1"/>
        <pt x="-484" y="503" on="0"/>
        <pt x="-486" y="492" on="1"/>
        <pt x="-493" y="459" on="0"/>
        <pt x="-529" y="440" on="1"/>
        <pt x="-801" y="311" on="1"/>
        <pt x="-804" y="309" on="0"/>
        <pt x="-804" y="307" on="1"/>
        <pt x="-804" y="308" on="0"/>
        <pt x="-805" y="308" on="1"/>
        <pt x="-456" y="97" on="1"/>
        <pt x="18" y="832" on="1"/>
        <pt x="43" y="865" on="0"/>
        <pt x="77" y="865" on="1"/>
        <pt x="90" y="865" on="0"/>
        <pt x="102" y="859" on="1"/>
        <pt x="135" y="838" on="0"/>
        <pt x="128" y="802" on="1"/>
        <pt x="125" y="790" on="0"/>
        <pt x="118" y="779" on="1"/>
      </contour>
    </TTGlyph>
    <TTGlyph name="less_uni003E" xMin="-438" yMin="20" xMax="573" yMax="597">
      <contour>
        <pt x="7" y="20" on="1" overlap="1"/>
        <pt x="-13" y="20" on="0"/>
        <pt x="-26" y="32" on="1"/>
        <pt x="-408" y="257" on="1"/>
        <pt x="-438" y="278" on="0"/>
        <pt x="-431" y="314" on="1"/>
        <pt x="-424" y="345" on="0"/>
        <pt x="-389" y="364" on="1"/>
        <pt x="89" y="586" on="1"/>
        <pt x="105" y="597" on="0"/>
        <pt x="124" y="597" on="1"/>
        <pt x="127" y="597" on="1"/>
        <pt x="147" y="597" on="0"/>
        <pt x="159" y="585" on="1"/>
        <pt x="543" y="364" on="1"/>
        <pt x="573" y="341" on="0"/>
        <pt x="566" y="308" on="1"/>
        <pt x="559" y="275" on="0"/>
        <pt x="524" y="257" on="1"/>
        <pt x="46" y="31" on="1"/>
        <pt x="30" y="20" on="0"/>
        <pt x="10" y="20" on="1"/>
      </contour>
      <contour>
        <pt x="30" y="149" on="1"/>
        <pt x="365" y="309" on="1"/>
        <pt x="369" y="312" on="0"/>
        <pt x="369" y="313" on="1"/>
        <pt x="369" y="312" on="0"/>
        <pt x="370" y="311" on="1"/>
        <pt x="104" y="469" on="1"/>
        <pt x="-231" y="311" on="1"/>
        <pt x="-234" y="309" on="0"/>
        <pt x="-234" y="307" on="1"/>
        <pt x="-234" y="308" on="0"/>
        <pt x="-235" y="308" on="1"/>
      </contour>
    </TTGlyph>
    <TTGlyph name="m" xMin="24" yMin="-20" xMax="639" yMax="570">
      <contour>
        <pt x="575" y="282" on="1" overlap="1"/>
        <pt x="550" y="160" on="1"/>
        <pt x="538" y="113" on="0"/>
        <pt x="538" y="85" on="1"/>
        <pt x="538" y="66" on="0"/>
        <pt x="548" y="66" on="1"/>
        <pt x="560" y="66" on="0"/>
        <pt x="578" y="78" on="1"/>
        <pt x="592" y="88" on="0"/>
        <pt x="605" y="88" on="1"/>
        <pt x="619" y="88" on="0"/>
        <pt x="639" y="65" on="0"/>
        <pt x="639" y="52" on="1"/>
        <pt x="639" y="28" on="0"/>
        <pt x="579" y="-4" on="1"/>
        <pt x="551" y="-20" on="0"/>
        <pt x="514" y="-20" on="1"/>
        <pt x="415" y="-20" on="0"/>
        <pt x="415" y="66" on="1"/>
        <pt x="415" y="92" on="0"/>
        <pt x="455" y="289" on="1"/>
        <pt x="481" y="413" on="1"/>
        <pt x="482" y="427" on="1"/>
        <pt x="482" y="451" on="0"/>
        <pt x="457" y="451" on="1"/>
        <pt x="443" y="451" on="0"/>
        <pt x="417" y="425" on="0"/>
        <pt x="413" y="409" on="1"/>
        <pt x="334" y="37" on="1"/>
        <pt x="327" y="13" on="0"/>
        <pt x="288" y="-20" on="0"/>
        <pt x="264" y="-20" on="1"/>
        <pt x="239" y="-20" on="0"/>
        <pt x="224" y="-1" on="1"/>
        <pt x="214" y="12" on="0"/>
        <pt x="214" y="30" on="1"/>
        <pt x="214" y="37" on="0"/>
        <pt x="295" y="423" on="0"/>
        <pt x="295" y="428" on="1"/>
        <pt x="295" y="438" on="0"/>
        <pt x="282" y="452" on="0"/>
        <pt x="269" y="452" on="1"/>
        <pt x="257" y="452" on="0"/>
        <pt x="227" y="425" on="0"/>
        <pt x="222" y="402" on="1"/>
        <pt x="145" y="37" on="1"/>
        <pt x="138" y="13" on="0"/>
        <pt x="99" y="-20" on="0"/>
        <pt x="75" y="-20" on="1"/>
        <pt x="49" y="-20" on="0"/>
        <pt x="34" y="-1" on="1"/>
        <pt x="24" y="12" on="0"/>
        <pt x="24" y="30" on="1"/>
        <pt x="24" y="37" on="0"/>
        <pt x="125" y="516" on="1"/>
        <pt x="131" y="539" on="0"/>
        <pt x="169" y="570" on="0"/>
        <pt x="191" y="570" on="1"/>
        <pt x="237" y="570" on="0"/>
        <pt x="237" y="521" on="1"/>
        <pt x="237" y="515" on="0"/>
        <pt x="234" y="496" on="1"/>
        <pt x="231" y="507" on="0"/>
        <pt x="224" y="507" on="1"/>
        <pt x="219" y="507" on="0"/>
        <pt x="217" y="504" on="1"/>
        <pt x="257" y="570" on="0"/>
        <pt x="319" y="570" on="1"/>
        <pt x="410" y="570" on="0"/>
        <pt x="410" y="495" on="1"/>
        <pt x="410" y="492" on="1"/>
        <pt x="410" y="503" on="0"/>
        <pt x="399" y="503" on="1"/>
        <pt x="393" y="503" on="0"/>
        <pt x="390" y="498" on="1"/>
        <pt x="406" y="536" on="0"/>
        <pt x="437" y="552" on="1"/>
        <pt x="466" y="570" on="0"/>
        <pt x="506" y="570" on="1"/>
        <pt x="563" y="570" on="0"/>
        <pt x="591" y="532" on="1"/>
        <pt x="609" y="508" on="0"/>
        <pt x="609" y="469" on="1"/>
        <pt x="609" y="448" on="0"/>
        <pt x="604" y="421" on="1"/>
      </contour>
    </TTGlyph>
    <TTGlyph name="n" xMin="57" yMin="-20" xMax="641" yMax="570">
      <contour>
        <pt x="109" y="-20" on="1"/>
        <pt x="82" y="-20" on="0"/>
        <pt x="67" y="-1" on="1"/>
        <pt x="57" y="11" on="0"/>
        <pt x="57" y="28" on="1"/>
        <pt x="57" y="35" on="0"/>
        <pt x="158" y="511" on="1"/>
        <pt x="163" y="536" on="0"/>
        <pt x="205" y="570" on="0"/>
        <pt x="228" y="570" on="1"/>
        <pt x="253" y="570" on="0"/>
        <pt x="269" y="551" on="1"/>
        <pt x="279" y="537" on="0"/>
        <pt x="279" y="519" on="1"/>
        <pt x="279" y="512" on="0"/>
        <pt x="274" y="486" on="0"/>
        <pt x="274" y="485" on="1"/>
        <pt x="274" y="492" on="0"/>
        <pt x="266" y="492" on="1"/>
        <pt x="266" y="492" on="0"/>
        <pt x="270" y="495" on="1"/>
        <pt x="356" y="569" on="0"/>
        <pt x="436" y="570" on="1"/>
        <pt x="597" y="570" on="0"/>
        <pt x="597" y="419" on="1"/>
        <pt x="597" y="388" on="0"/>
        <pt x="590" y="351" on="1"/>
        <pt x="588" y="339" on="1"/>
        <pt x="551" y="165" on="1"/>
        <pt x="538" y="110" on="0"/>
        <pt x="538" y="78" on="1"/>
        <pt x="538" y="71" on="0"/>
        <pt x="544" y="71" on="1"/>
        <pt x="561" y="71" on="0"/>
        <pt x="581" y="84" on="1"/>
        <pt x="596" y="93" on="0"/>
        <pt x="607" y="93" on="1"/>
        <pt x="621" y="93" on="0"/>
        <pt x="641" y="70" on="0"/>
        <pt x="641" y="57" on="1"/>
        <pt x="641" y="33" on="0"/>
        <pt x="581" y="1" on="1"/>
        <pt x="553" y="-15" on="0"/>
        <pt x="527" y="-15" on="1"/>
        <pt x="415" y="-15" on="0"/>
        <pt x="415" y="67" on="1"/>
        <pt x="415" y="88" on="0"/>
        <pt x="468" y="339" on="1"/>
        <pt x="474" y="363" on="0"/>
        <pt x="474" y="383" on="1"/>
        <pt x="474" y="443" on="0"/>
        <pt x="402" y="443" on="1"/>
        <pt x="359" y="442" on="0"/>
        <pt x="307" y="404" on="1"/>
        <pt x="244" y="357" on="0"/>
        <pt x="235" y="312" on="1"/>
        <pt x="177" y="38" on="1"/>
        <pt x="163" y="-20" on="0"/>
      </contour>
    </TTGlyph>
    <TTGlyph name="nine" xMin="107" yMin="-20" xMax="645" yMax="770">
      <contour>
        <pt x="177" y="-20" on="1" overlap="1"/>
        <pt x="157" y="-20" on="1"/>
        <pt x="133" y="-20" on="0"/>
        <pt x="119" y="-1" on="1"/>
        <pt x="107" y="14" on="0"/>
        <pt x="107" y="31" on="1"/>
        <pt x="108" y="41" on="1"/>
        <pt x="114" y="64" on="0"/>
        <pt x="152" y="94" on="0"/>
        <pt x="174" y="96" on="1"/>
        <pt x="267" y="102" on="1"/>
        <pt x="291" y="105" on="0"/>
        <pt x="316" y="115" on="1"/>
        <pt x="396" y="147" on="0"/>
        <pt x="446" y="223" on="1"/>
        <pt x="469" y="255" on="0"/>
        <pt x="483" y="304" on="1"/>
        <pt x="484" y="305" on="1"/>
        <pt x="485" y="305" on="0"/>
        <pt x="485" y="304" on="1"/>
        <pt x="485" y="302" on="0"/>
        <pt x="484" y="302" on="1"/>
        <pt x="485" y="302" on="1"/>
        <pt x="416" y="269" on="0"/>
        <pt x="339" y="269" on="1"/>
        <pt x="236" y="269" on="0"/>
        <pt x="191" y="334" on="1"/>
        <pt x="161" y="377" on="0"/>
        <pt x="161" y="441" on="1"/>
        <pt x="161" y="475" on="0"/>
        <pt x="169" y="514" on="1"/>
        <pt x="184" y="584" on="0"/>
        <pt x="266" y="699" on="0"/>
        <pt x="391" y="770" on="0"/>
        <pt x="468" y="770" on="1"/>
        <pt x="645" y="770" on="0"/>
        <pt x="645" y="563" on="1"/>
        <pt x="645" y="501" on="0"/>
        <pt x="629" y="419" on="1"/>
        <pt x="537" y="-20" on="0"/>
      </contour>
      <contour>
        <pt x="375" y="384" on="1"/>
        <pt x="402" y="384" on="0"/>
        <pt x="472" y="410" on="0"/>
        <pt x="503" y="435" on="1"/>
        <pt x="526" y="452" on="0"/>
        <pt x="526" y="536" on="1"/>
        <pt x="526" y="578" on="0"/>
        <pt x="514" y="606" on="1"/>
        <pt x="500" y="650" on="0"/>
        <pt x="442" y="650" on="1"/>
        <pt x="379" y="650" on="0"/>
        <pt x="300" y="573" on="0"/>
        <pt x="288" y="514" on="1"/>
        <pt x="281" y="483" on="0"/>
        <pt x="281" y="460" on="1"/>
        <pt x="281" y="432" on="0"/>
        <pt x="311" y="384" on="0"/>
      </contour>
    </TTGlyph>
    <TTGlyph name="numbersign" xMin="39" yMin="-20" xMax="723" yMax="770">
      <contour>
        <pt x="319" y="345" on="1"/>
        <pt x="198" y="345" on="1"/>
        <pt x="276" y="713" on="1"/>
        <pt x="282" y="736" on="0"/>
        <pt x="323" y="770" on="0"/>
        <pt x="346" y="770" on="1"/>
        <pt x="370" y="770" on="0"/>
        <pt x="385" y="751" on="1"/>
        <pt x="397" y="735" on="0"/>
        <pt x="397" y="717" on="1"/>
        <pt x="397" y="711" on="0"/>
      </contour>
      <contour>
        <pt x="184" y="-20" on="1"/>
        <pt x="160" y="-20" on="0"/>
        <pt x="145" y="-1" on="1"/>
        <pt x="133" y="14" on="0"/>
        <pt x="133" y="33" on="1"/>
        <pt x="133" y="39" on="0"/>
        <pt x="160" y="165" on="1"/>
        <pt x="280" y="165" on="1"/>
        <pt x="253" y="37" on="1"/>
        <pt x="248" y="13" on="0"/>
        <pt x="207" y="-20" on="0"/>
      </contour>
      <contour>
        <pt x="602" y="595" on="1"/>
        <pt x="481" y="595" on="1"/>
        <pt x="506" y="713" on="1"/>
        <pt x="512" y="736" on="0"/>
        <pt x="553" y="770" on="0"/>
        <pt x="576" y="770" on="1"/>
        <pt x="600" y="770" on="0"/>
        <pt x="615" y="751" on="1"/>
        <pt x="627" y="735" on="0"/>
        <pt x="627" y="717" on="1"/>
        <pt x="627" y="711" on="0"/>
      </contour>
      <contour>
        <pt x="414" y="-20" on="1"/>
        <pt x="390" y="-20" on="0"/>
        <pt x="375" y="-1" on="1"/>
        <pt x="363" y="14" on="0"/>
        <pt x="363" y="33" on="1"/>
        <pt x="363" y="39" on="0"/>
        <pt x="443" y="415" on="1"/>
        <pt x="564" y="415" on="1"/>
        <pt x="483" y="37" on="1"/>
        <pt x="478" y="13" on="0"/>
        <pt x="437" y="-20" on="0"/>
      </contour>
      <contour>
        <pt x="200" y="445" on="1"/>
        <pt x="143" y="445" on="1"/>
        <pt x="119" y="445" on="0"/>
        <pt x="104" y="464" on="1"/>
        <pt x="92" y="478" on="0"/>
        <pt x="92" y="496" on="1"/>
        <pt x="92" y="526" on="0"/>
        <pt x="119" y="548" on="1"/>
        <pt x="139" y="565" on="0"/>
        <pt x="162" y="565" on="1"/>
        <pt x="226" y="565" on="1"/>
      </contour>
      <contour>
        <pt x="653" y="445" on="1"/>
        <pt x="359" y="445" on="1"/>
        <pt x="385" y="565" on="1"/>
        <pt x="672" y="565" on="1"/>
        <pt x="696" y="565" on="0"/>
        <pt x="711" y="546" on="1"/>
        <pt x="723" y="530" on="0"/>
        <pt x="723" y="512" on="1"/>
        <pt x="723" y="484" on="0"/>
        <pt x="696" y="462" on="1"/>
        <pt x="676" y="445" on="0"/>
      </contour>
      <contour>
        <pt x="377" y="195" on="1"/>
        <pt x="90" y="195" on="1"/>
        <pt x="66" y="195" on="0"/>
        <pt x="50" y="214" on="1"/>
        <pt x="39" y="228" on="0"/>
        <pt x="39" y="246" on="1"/>
        <pt x="39" y="276" on="0"/>
        <pt x="66" y="298" on="1"/>
        <pt x="86" y="315" on="0"/>
        <pt x="109" y="315" on="1"/>
        <pt x="402" y="315" on="1"/>
      </contour>
      <contour>
        <pt x="600" y="195" on="1"/>
        <pt x="536" y="195" on="1"/>
        <pt x="562" y="315" on="1"/>
        <pt x="619" y="315" on="1"/>
        <pt x="643" y="315" on="0"/>
        <pt x="658" y="296" on="1"/>
        <pt x="670" y="280" on="0"/>
        <pt x="670" y="262" on="1"/>
        <pt x="670" y="234" on="0"/>
        <pt x="643" y="212" on="1"/>
        <pt x="622" y="195" on="0"/>
      </contour>
    </TTGlyph>
    <TTGlyph name="numbersign_expand" xMin="34" yMin="-20" xMax="1002" yMax="770">
      <contour>
        <pt x="800" y="445" on="1"/>
        <pt x="359" y="445" on="1"/>
        <pt x="385" y="565" on="1"/>
        <pt x="825" y="565" on="1"/>
      </contour>
      <contour>
        <pt x="977" y="195" on="1"/>
        <pt x="536" y="195" on="1"/>
        <pt x="562" y="315" on="1"/>
        <pt x="1002" y="315" on="1"/>
      </contour>
      <contour>
        <pt x="319" y="345" on="1"/>
        <pt x="198" y="345" on="1"/>
        <pt x="276" y="713" on="1"/>
        <pt x="281" y="736" on="0"/>
        <pt x="321" y="770" on="0"/>
        <pt x="345" y="770" on="1"/>
        <pt x="372" y="770" on="0"/>
        <pt x="401" y="732" on="0"/>
        <pt x="396" y="707" on="1"/>
      </contour>
      <contour>
        <pt x="184" y="-20" on="1"/>
        <pt x="158" y="-20" on="0"/>
        <pt x="128" y="17" on="0"/>
        <pt x="134" y="43" on="1"/>
        <pt x="160" y="165" on="1"/>
        <pt x="280" y="165" on="1"/>
        <pt x="253" y="37" on="1"/>
        <pt x="248" y="13" on="0"/>
        <pt x="208" y="-20" on="0"/>
      </contour>
      <contour>
        <pt x="602" y="595" on="1"/>
        <pt x="481" y="595" on="1"/>
        <pt x="506" y="713" on="1"/>
        <pt x="511" y="736" on="0"/>
        <pt x="551" y="770" on="0"/>
        <pt x="575" y="770" on="1"/>
        <pt x="602" y="770" on="0"/>
        <pt x="631" y="732" on="0"/>
        <pt x="626" y="707" on="1"/>
      </contour>
      <contour>
        <pt x="414" y="-20" on="1"/>
        <pt x="388" y="-20" on="0"/>
        <pt x="358" y="17" on="0"/>
        <pt x="364" y="43" on="1"/>
        <pt x="443" y="415" on="1"/>
        <pt x="564" y="415" on="1"/>
        <pt x="483" y="37" on="1"/>
        <pt x="478" y="13" on="0"/>
        <pt x="438" y="-20" on="0"/>
      </contour>
      <contour>
        <pt x="200" y="445" on="1"/>
        <pt x="143" y="445" on="1"/>
        <pt x="116" y="445" on="0"/>
        <pt x="87" y="482" on="0"/>
        <pt x="93" y="508" on="1"/>
        <pt x="98" y="531" on="0"/>
        <pt x="137" y="565" on="0"/>
        <pt x="162" y="565" on="1"/>
        <pt x="225" y="565" on="1"/>
      </contour>
      <contour>
        <pt x="377" y="195" on="1"/>
        <pt x="90" y="195" on="1"/>
        <pt x="63" y="195" on="0"/>
        <pt x="34" y="232" on="0"/>
        <pt x="40" y="258" on="1"/>
        <pt x="44" y="281" on="0"/>
        <pt x="84" y="315" on="0"/>
        <pt x="109" y="315" on="1"/>
        <pt x="402" y="315" on="1"/>
      </contour>
    </TTGlyph>
    <TTGlyph name="o" xMin="101" yMin="-20" xMax="606" yMax="570">
      <contour>
        <pt x="294" y="-20" on="1"/>
        <pt x="228" y="-20" on="0"/>
        <pt x="178" y="16" on="1"/>
        <pt x="101" y="71" on="0"/>
        <pt x="101" y="189" on="1"/>
        <pt x="101" y="230" on="0"/>
        <pt x="111" y="279" on="1"/>
        <pt x="130" y="370" on="0"/>
        <pt x="222" y="500" on="0"/>
        <pt x="348" y="570" on="0"/>
        <pt x="413" y="570" on="1"/>
        <pt x="480" y="570" on="0"/>
        <pt x="529" y="534" on="1"/>
        <pt x="606" y="478" on="0"/>
        <pt x="606" y="360" on="1"/>
        <pt x="606" y="320" on="0"/>
        <pt x="597" y="273" on="1"/>
        <pt x="577" y="180" on="0"/>
        <pt x="485" y="50" on="0"/>
        <pt x="360" y="-20" on="0"/>
      </contour>
      <contour>
        <pt x="310" y="101" on="1"/>
        <pt x="360" y="101" on="0"/>
        <pt x="449" y="184" on="0"/>
        <pt x="474" y="269" on="1"/>
        <pt x="486" y="314" on="0"/>
        <pt x="486" y="352" on="1"/>
        <pt x="486" y="449" on="0"/>
        <pt x="398" y="449" on="1"/>
        <pt x="348" y="449" on="0"/>
        <pt x="256" y="363" on="0"/>
        <pt x="232" y="279" on="1"/>
        <pt x="221" y="235" on="0"/>
        <pt x="221" y="204" on="1"/>
        <pt x="221" y="171" on="0"/>
        <pt x="236" y="135" on="1"/>
        <pt x="251" y="101" on="0"/>
      </contour>
    </TTGlyph>
    <TTGlyph name="one" xMin="74" yMin="-15" xMax="545" yMax="770">
      <contour>
        <pt x="475" y="-15" on="1" overlap="1"/>
        <pt x="125" y="-15" on="1"/>
        <pt x="101" y="-15" on="0"/>
        <pt x="86" y="5" on="1"/>
        <pt x="74" y="20" on="0"/>
        <pt x="74" y="38" on="1"/>
        <pt x="74" y="65" on="0"/>
        <pt x="101" y="88" on="1"/>
        <pt x="121" y="105" on="0"/>
        <pt x="144" y="105" on="1"/>
        <pt x="250" y="105" on="1"/>
        <pt x="262" y="105" on="0"/>
        <pt x="265" y="117" on="1"/>
        <pt x="368" y="604" on="1"/>
        <pt x="368" y="605" on="0"/>
        <pt x="369" y="605" on="1"/>
        <pt x="371" y="603" on="1"/>
        <pt x="371" y="602" on="0"/>
        <pt x="370" y="602" on="1"/>
        <pt x="369" y="602" on="1"/>
        <pt x="369" y="601" on="1"/>
        <pt x="276" y="522" on="1"/>
        <pt x="254" y="508" on="0"/>
        <pt x="235" y="508" on="1"/>
        <pt x="223" y="508" on="0"/>
        <pt x="211" y="514" on="1"/>
        <pt x="183" y="527" on="0"/>
        <pt x="183" y="561" on="1"/>
        <pt x="183" y="590" on="0"/>
        <pt x="212" y="614" on="1"/>
        <pt x="384" y="751" on="1"/>
        <pt x="413" y="770" on="0"/>
        <pt x="440" y="770" on="1"/>
        <pt x="473" y="770" on="0"/>
        <pt x="493" y="745" on="1"/>
        <pt x="507" y="726" on="0"/>
        <pt x="507" y="702" on="1"/>
        <pt x="506" y="687" on="1"/>
        <pt x="384" y="110" on="0"/>
        <pt x="383" y="109" on="1"/>
        <pt x="383" y="106" on="1"/>
        <pt x="383" y="105" on="0"/>
        <pt x="494" y="105" on="1"/>
        <pt x="518" y="105" on="0"/>
        <pt x="533" y="86" on="1"/>
        <pt x="545" y="72" on="0"/>
        <pt x="545" y="54" on="1"/>
        <pt x="545" y="24" on="0"/>
        <pt x="519" y="2" on="1"/>
        <pt x="498" y="-15" on="0"/>
      </contour>
    </TTGlyph>
    <TTGlyph name="p" xMin="31" yMin="-265" xMax="610" yMax="570">
      <contour>
        <pt x="336" y="103" on="1" overlap="1"/>
        <pt x="383" y="103" on="0"/>
        <pt x="464" y="196" on="0"/>
        <pt x="486" y="284" on="1"/>
        <pt x="494" y="312" on="0"/>
        <pt x="494" y="352" on="1"/>
        <pt x="494" y="448" on="0"/>
        <pt x="420" y="449" on="1"/>
        <pt x="387" y="449" on="0"/>
        <pt x="285" y="380" on="0"/>
        <pt x="274" y="325" on="1"/>
        <pt x="250" y="206" on="0"/>
        <pt x="250" y="186" on="1"/>
        <pt x="250" y="155" on="0"/>
        <pt x="270" y="126" on="1"/>
        <pt x="286" y="103" on="0"/>
      </contour>
      <contour>
        <pt x="82" y="-265" on="1"/>
        <pt x="58" y="-265" on="0"/>
        <pt x="43" y="-247" on="1"/>
        <pt x="31" y="-234" on="0"/>
        <pt x="31" y="-215" on="1"/>
        <pt x="31" y="-208" on="0"/>
        <pt x="183" y="512" on="1"/>
        <pt x="190" y="538" on="0"/>
        <pt x="228" y="570" on="0"/>
        <pt x="252" y="570" on="1"/>
        <pt x="302" y="570" on="0"/>
        <pt x="302" y="522" on="1"/>
        <pt x="302" y="516" on="1"/>
        <pt x="302" y="515" on="0"/>
        <pt x="297" y="515" on="1"/>
        <pt x="297" y="515" on="0"/>
        <pt x="300" y="517" on="1"/>
        <pt x="363" y="570" on="0"/>
        <pt x="445" y="570" on="1"/>
        <pt x="610" y="570" on="0"/>
        <pt x="610" y="385" on="1"/>
        <pt x="610" y="332" on="0"/>
        <pt x="596" y="265" on="1"/>
        <pt x="569" y="138" on="0"/>
        <pt x="417" y="-20" on="0"/>
        <pt x="325" y="-20" on="1"/>
        <pt x="254" y="-20" on="0"/>
        <pt x="213" y="19" on="1"/>
        <pt x="209" y="24" on="0"/>
        <pt x="206" y="24" on="1"/>
        <pt x="203" y="24" on="0"/>
        <pt x="200" y="21" on="0"/>
        <pt x="152" y="-206" on="1"/>
        <pt x="147" y="-232" on="0"/>
        <pt x="104" y="-265" on="0"/>
      </contour>
    </TTGlyph>
    <TTGlyph name="parenleft" xMin="136" yMin="-202" xMax="676" yMax="902">
      <contour>
        <pt x="290" y="315" on="1"/>
        <pt x="259" y="159" on="0"/>
        <pt x="324" y="42" on="1"/>
        <pt x="369" y="-42" on="0"/>
        <pt x="445" y="-103" on="1"/>
        <pt x="467" y="-121" on="0"/>
        <pt x="460" y="-151" on="1"/>
        <pt x="457" y="-168" on="0"/>
        <pt x="447" y="-179" on="1"/>
        <pt x="426" y="-202" on="0"/>
        <pt x="397" y="-202" on="1"/>
        <pt x="382" y="-202" on="0"/>
        <pt x="372" y="-195" on="1"/>
        <pt x="265" y="-122" on="0"/>
        <pt x="209" y="-11" on="1"/>
        <pt x="136" y="140" on="0"/>
        <pt x="177" y="332" on="1"/>
        <pt x="182" y="356" on="1"/>
        <pt x="227" y="565" on="0"/>
        <pt x="362" y="714" on="1"/>
        <pt x="464" y="824" on="0"/>
        <pt x="600" y="896" on="1"/>
        <pt x="611" y="902" on="0"/>
        <pt x="626" y="902" on="1"/>
        <pt x="659" y="902" on="0"/>
        <pt x="670" y="874" on="1"/>
        <pt x="676" y="862" on="0"/>
        <pt x="672" y="845" on="1"/>
        <pt x="666" y="817" on="0"/>
        <pt x="641" y="802" on="1"/>
        <pt x="537" y="740" on="0"/>
        <pt x="458" y="655" on="1"/>
        <pt x="337" y="526" on="0"/>
        <pt x="300" y="361" on="1"/>
      </contour>
    </TTGlyph>
    <TTGlyph name="parenright" xMin="72" yMin="-202" xMax="611" yMax="902">
      <contour>
        <pt x="444" y="321" on="1"/>
        <pt x="454" y="367" on="1"/>
        <pt x="487" y="531" on="0"/>
        <pt x="422" y="658" on="1"/>
        <pt x="379" y="742" on="0"/>
        <pt x="303" y="803" on="1"/>
        <pt x="281" y="821" on="0"/>
        <pt x="288" y="851" on="1"/>
        <pt x="291" y="867" on="0"/>
        <pt x="300" y="878" on="1"/>
        <pt x="320" y="902" on="0"/>
        <pt x="351" y="902" on="1"/>
        <pt x="366" y="902" on="0"/>
        <pt x="376" y="895" on="1"/>
        <pt x="482" y="822" on="0"/>
        <pt x="538" y="711" on="1"/>
        <pt x="611" y="560" on="0"/>
        <pt x="567" y="350" on="1"/>
        <pt x="562" y="326" on="1"/>
        <pt x="521" y="135" on="0"/>
        <pt x="385" y="-14" on="1"/>
        <pt x="284" y="-124" on="0"/>
        <pt x="148" y="-196" on="1"/>
        <pt x="136" y="-202" on="0"/>
        <pt x="122" y="-202" on="1"/>
        <pt x="91" y="-202" on="0"/>
        <pt x="78" y="-175" on="1"/>
        <pt x="72" y="-163" on="0"/>
        <pt x="76" y="-145" on="1"/>
        <pt x="82" y="-117" on="0"/>
        <pt x="107" y="-102" on="1"/>
        <pt x="210" y="-40" on="0"/>
        <pt x="292" y="45" on="1"/>
        <pt x="409" y="164" on="0"/>
      </contour>
    </TTGlyph>
    <TTGlyph name="percent" xMin="18" yMin="-20" xMax="741" yMax="770">
      <contour>
        <pt x="444" y="-20" on="1"/>
        <pt x="377" y="-20" on="0"/>
        <pt x="301" y="86" on="0"/>
        <pt x="320" y="172" on="1"/>
        <pt x="340" y="263" on="0"/>
        <pt x="443" y="362" on="0"/>
        <pt x="519" y="362" on="1"/>
        <pt x="593" y="362" on="0"/>
        <pt x="661" y="257" on="0"/>
        <pt x="643" y="171" on="1"/>
        <pt x="625" y="86" on="0"/>
        <pt x="516" y="-20" on="0"/>
      </contour>
      <contour>
        <pt x="460" y="83" on="1"/>
        <pt x="511" y="83" on="0"/>
        <pt x="529" y="168" on="1"/>
        <pt x="546" y="253" on="0"/>
        <pt x="502" y="253" on="1"/>
        <pt x="452" y="253" on="0"/>
        <pt x="434" y="167" on="1"/>
        <pt x="416" y="83" on="0"/>
      </contour>
      <contour>
        <pt x="241" y="388" on="1"/>
        <pt x="206" y="388" on="0"/>
        <pt x="159" y="413" on="0"/>
        <pt x="131" y="444" on="0"/>
        <pt x="131" y="447" on="1"/>
        <pt x="99" y="497" on="0"/>
        <pt x="118" y="584" on="1"/>
        <pt x="136" y="672" on="0"/>
        <pt x="247" y="770" on="0"/>
        <pt x="316" y="770" on="1"/>
        <pt x="387" y="770" on="0"/>
        <pt x="460" y="667" on="0"/>
        <pt x="441" y="578" on="1"/>
        <pt x="423" y="492" on="0"/>
        <pt x="369" y="441" on="1"/>
        <pt x="343" y="415" on="0"/>
        <pt x="290" y="389" on="0"/>
      </contour>
      <contour>
        <pt x="257" y="494" on="1"/>
        <pt x="309" y="494" on="0"/>
        <pt x="327" y="578" on="1"/>
        <pt x="344" y="665" on="0"/>
        <pt x="300" y="665" on="1"/>
        <pt x="251" y="665" on="0"/>
        <pt x="232" y="578" on="1"/>
        <pt x="215" y="494" on="0"/>
      </contour>
      <contour>
        <pt x="77" y="64" on="1"/>
        <pt x="39" y="64" on="0"/>
        <pt x="27" y="92" on="1"/>
        <pt x="18" y="113" on="0"/>
        <pt x="21" y="131" on="1"/>
        <pt x="27" y="159" on="0"/>
        <pt x="47" y="174" on="1"/>
        <pt x="256" y="336" on="1"/>
        <pt x="273" y="348" on="0"/>
        <pt x="294" y="348" on="1"/>
        <pt x="317" y="347" on="0"/>
        <pt x="344" y="312" on="0"/>
        <pt x="340" y="291" on="1"/>
        <pt x="336" y="271" on="0"/>
        <pt x="321" y="259" on="1"/>
        <pt x="128" y="83" on="1"/>
        <pt x="106" y="64" on="0"/>
      </contour>
      <contour>
        <pt x="678" y="685" on="1"/>
        <pt x="710" y="685" on="0"/>
        <pt x="728" y="661" on="1"/>
        <pt x="741" y="645" on="0"/>
        <pt x="735" y="618" on="1"/>
        <pt x="730" y="593" on="0"/>
        <pt x="710" y="576" on="1"/>
        <pt x="500" y="413" on="1"/>
        <pt x="485" y="402" on="0"/>
        <pt x="463" y="402" on="1"/>
        <pt x="439" y="403" on="0"/>
        <pt x="411" y="437" on="0"/>
        <pt x="416" y="459" on="1"/>
        <pt x="420" y="476" on="0"/>
        <pt x="435" y="490" on="1"/>
        <pt x="629" y="666" on="1"/>
        <pt x="651" y="685" on="0"/>
      </contour>
    </TTGlyph>
    <TTGlyph name="period" xMin="213" yMin="-15" xMax="423" yMax="182">
      <contour>
        <pt x="302" y="-15" on="1"/>
        <pt x="260" y="-15" on="0"/>
        <pt x="213" y="45" on="0"/>
        <pt x="222" y="86" on="1"/>
        <pt x="230" y="126" on="0"/>
        <pt x="297" y="182" on="0"/>
        <pt x="337" y="182" on="1"/>
        <pt x="378" y="182" on="0"/>
        <pt x="423" y="122" on="0"/>
        <pt x="414" y="80" on="1"/>
        <pt x="406" y="41" on="0"/>
        <pt x="341" y="-15" on="0"/>
      </contour>
    </TTGlyph>
</ttFont>
